<svg width="70" height="70" viewBox="0 0 70 70" fill="none" xmlns="http://www.w3.org/2000/svg">
<path d="M53.9546 16.2104C51.6509 14.3062 48.6951 13.2576 45.6333 13.2576C42.0944 13.2576 38.6677 14.669 36.235 17.1258C35.7967 17.5682 35.3867 18.0432 35.004 18.557C32.024 14.5945 27.0559 12.5582 22.1225 13.4558C18.0383 14.1971 14.8298 16.4442 12.5827 20.1278C9.41814 25.3255 9.16019 30.3365 11.8172 35.0268C13.2401 37.5412 15.0856 39.9864 17.4532 42.4998C21.7953 47.1177 26.9375 51.5028 33.644 56.301C34.0698 56.6019 34.5269 56.7539 35.0019 56.7539C35.737 56.7539 36.235 56.3827 36.4804 56.1993C42.4383 51.9473 47.3246 47.8517 51.4203 43.6763C53.7386 41.315 56.3684 38.4115 58.2915 34.7898C59.1146 33.239 60.0551 31.1544 59.9975 28.7731C59.8748 23.6488 57.8416 19.4221 53.9546 16.2104Z" fill="#E8EBEF"/>
<path d="M50.0449 23.1172L53.2845 26.3568L42.6456 36.9956L39.4061 33.756L50.0449 23.1172Z" fill="#9DA9BD"/>
<path d="M53.2852 33.7578L50.0456 36.9974L39.4067 26.3585L42.6463 23.119L53.2852 33.7578Z" fill="#C7CED9"/>
</svg>
