<svg xmlns="http://www.w3.org/2000/svg" viewBox="0 0 32 32" role="img" aria-label="theMeal">
  <rect width="32" height="32" rx="5" ry="5" fill="#FCDE02"/>
  <path fill="#411864" transform="translate(-4.0320 3.9402) scale(0.873290)" d="M16.14 11.7234L14.2602 23.1765C14.108 23.9649 13.7508 24.5786 13.1886 25.0178C12.6381 25.4458 11.9296 25.6598 11.0629 25.6598C10.3134 25.6598 9.74537 25.3613 9.35887 24.7643C8.9841 24.1675 8.79666 23.3624 8.79666 22.3488L11.7481 4.96631C11.9237 4.00905 12.2809 3.29956 12.8197 2.83783C13.5341 2.25223 14.3539 1.95941 15.2792 1.95941C16.1224 1.95941 16.8719 2.15087 17.5278 2.53376C18.1837 2.9054 18.6287 3.46286 18.8629 4.20612L22.9034 16.0816L26.6103 4.69605C26.8795 3.91896 27.3304 3.27141 27.9629 2.75337C28.607 2.22406 29.3392 1.95941 30.1589 1.95941C31.0608 1.95941 31.8689 2.21281 32.5833 2.71958C33.3093 3.2151 33.7368 3.8739 33.8656 4.69605L37.0805 22.2643C37.0805 24.5279 36.3368 25.6598 34.8494 25.6598C33.5611 25.6598 32.6828 25.35 32.2143 24.7306C31.8746 24.2688 31.6347 23.5538 31.494 22.5853L29.6318 11.7234L26.2413 22.5516C26.0187 23.2948 25.8079 23.8748 25.6088 24.2914C25.4097 24.6968 25.1054 25.0347 24.6953 25.305C24.2971 25.564 23.7467 25.6935 23.044 25.6935C22.2007 25.6935 21.539 25.4852 21.0589 25.0684C20.5904 24.6404 20.2216 24.0099 19.9522 23.1765L16.14 11.7234Z"/>
</svg>