<svg width="32" height="32" viewBox="0 0 32 32" fill="none" xmlns="http://www.w3.org/2000/svg">
<path d="M6.66675 22.6667H5.33341C4.62617 22.6667 3.94789 22.3857 3.4478 21.8856C2.9477 21.3855 2.66675 20.7072 2.66675 20V6.66667C2.66675 5.95942 2.9477 5.28115 3.4478 4.78105C3.94789 4.28095 4.62617 4 5.33341 4H26.6667C27.374 4 28.0523 4.28095 28.5524 4.78105C29.0525 5.28115 29.3334 5.95942 29.3334 6.66667V20C29.3334 20.7072 29.0525 21.3855 28.5524 21.8856C28.0523 22.3857 27.374 22.6667 26.6667 22.6667H25.3334M16.0001 20L22.6667 28H9.33342L16.0001 20Z" stroke="currentColor" stroke-width="3" stroke-linecap="round" stroke-linejoin="round"/>
</svg>
