<svg width="20" height="20" viewBox="0 0 20 20" fill="none" xmlns="http://www.w3.org/2000/svg">
<path d="M4.16675 14.1667H3.33341C2.89139 14.1667 2.46746 13.9911 2.1549 13.6785C1.84234 13.366 1.66675 12.942 1.66675 12.5V4.16667C1.66675 3.72464 1.84234 3.30072 2.1549 2.98816C2.46746 2.67559 2.89139 2.5 3.33341 2.5H16.6667C17.1088 2.5 17.5327 2.67559 17.8453 2.98816C18.1578 3.30072 18.3334 3.72464 18.3334 4.16667V12.5C18.3334 12.942 18.1578 13.366 17.8453 13.6785C17.5327 13.9911 17.1088 14.1667 16.6667 14.1667H15.8334M10.0001 12.5L14.1667 17.5H5.83341L10.0001 12.5Z" stroke="currentColor" stroke-width="2" stroke-linecap="round" stroke-linejoin="round"/>
</svg>
