<svg width="40" height="40" viewBox="0 0 40 40" fill="none" xmlns="http://www.w3.org/2000/svg">
<path d="M19.9998 15V21.6667M19.9998 28.3333H20.0165M17.1498 6.43333L3.03312 30C2.74207 30.504 2.58807 31.0755 2.58644 31.6575C2.58481 32.2396 2.73561 32.8119 3.02383 33.3175C3.31206 33.8232 3.72767 34.2446 4.2293 34.5397C4.73094 34.8349 5.30112 34.9936 5.88312 35H34.1165C34.6985 34.9936 35.2686 34.8349 35.7703 34.5397C36.2719 34.2446 36.6875 33.8232 36.9757 33.3175C37.264 32.8119 37.4148 32.2396 37.4131 31.6575C37.4115 31.0755 37.2575 30.504 36.9665 30L22.8498 6.43333C22.5527 5.94351 22.1343 5.53853 21.6351 5.25747C21.1359 4.97641 20.5727 4.82876 19.9998 4.82876C19.4269 4.82876 18.8637 4.97641 18.3645 5.25747C17.8653 5.53853 17.4469 5.94351 17.1498 6.43333Z" stroke="currentColor" stroke-width="3.5" stroke-linecap="round" stroke-linejoin="round"/>
</svg>
