<svg width="40" height="40" viewBox="0 0 40 40" fill="none" xmlns="http://www.w3.org/2000/svg">
<path d="M19.9999 13.3333C22.7613 13.3333 24.9999 11.0948 24.9999 8.33334C24.9999 5.57192 22.7613 3.33334 19.9999 3.33334C17.2385 3.33334 14.9999 5.57192 14.9999 8.33334C14.9999 11.0948 17.2385 13.3333 19.9999 13.3333ZM19.9999 13.3333V36.6667M19.9999 36.6667C15.5796 36.6667 11.3404 34.9107 8.21481 31.7851C5.0892 28.6595 3.33325 24.4203 3.33325 20H8.33325M19.9999 36.6667C24.4202 36.6667 28.6594 34.9107 31.785 31.7851C34.9106 28.6595 36.6666 24.4203 36.6666 20H31.6666" stroke="currentColor" stroke-width="3.5" stroke-linecap="round" stroke-linejoin="round"/>
</svg>
