<svg width="20" height="20" viewBox="0 0 20 20" fill="none" xmlns="http://www.w3.org/2000/svg">
<g clip-path="url(#clip0_12027_441)">
<path d="M10.0001 6.66666C11.3808 6.66666 12.5001 5.54737 12.5001 4.16666C12.5001 2.78594 11.3808 1.66666 10.0001 1.66666C8.61937 1.66666 7.50008 2.78594 7.50008 4.16666C7.50008 5.54737 8.61937 6.66666 10.0001 6.66666ZM10.0001 6.66666V18.3333M10.0001 18.3333C7.78994 18.3333 5.67033 17.4553 4.10752 15.8925C2.54472 14.3297 1.66675 12.2101 1.66675 9.99999H4.16675M10.0001 18.3333C12.2102 18.3333 14.3298 17.4553 15.8926 15.8925C17.4554 14.3297 18.3334 12.2101 18.3334 9.99999H15.8334" stroke="currentColor" stroke-width="2" stroke-linecap="round" stroke-linejoin="round"/>
</g>
<defs>
<clipPath id="clip0_12027_441">
<rect width="20" height="20" fill="white"/>
</clipPath>
</defs>
</svg>
