<svg width="16" height="16" viewBox="0 0 16 16" fill="none" xmlns="http://www.w3.org/2000/svg">
<g clip-path="url(#clip0_12027_439)">
<path d="M8.00004 5.33334C9.10461 5.33334 10 4.43791 10 3.33334C10 2.22877 9.10461 1.33334 8.00004 1.33334C6.89547 1.33334 6.00004 2.22877 6.00004 3.33334C6.00004 4.43791 6.89547 5.33334 8.00004 5.33334ZM8.00004 5.33334V14.6667M8.00004 14.6667C6.23193 14.6667 4.53624 13.9643 3.286 12.7141C2.03575 11.4638 1.33337 9.76812 1.33337 8.00001H3.33337M8.00004 14.6667C9.76815 14.6667 11.4638 13.9643 12.7141 12.7141C13.9643 11.4638 14.6667 9.76812 14.6667 8.00001H12.6667" stroke="currentColor" stroke-width="1.6" stroke-linecap="round" stroke-linejoin="round"/>
</g>
<defs>
<clipPath id="clip0_12027_439">
<rect width="16" height="16" fill="white"/>
</clipPath>
</defs>
</svg>
