<svg width="32" height="32" viewBox="0 0 32 32" fill="none" xmlns="http://www.w3.org/2000/svg">
<path d="M16.0001 10.6667C18.2092 10.6667 20.0001 8.8758 20.0001 6.66666C20.0001 4.45752 18.2092 2.66666 16.0001 2.66666C13.7909 2.66666 12.0001 4.45752 12.0001 6.66666C12.0001 8.8758 13.7909 10.6667 16.0001 10.6667ZM16.0001 10.6667V29.3333M16.0001 29.3333C12.4639 29.3333 9.07248 27.9286 6.57199 25.4281C4.07151 22.9276 2.66675 19.5362 2.66675 16H6.66675M16.0001 29.3333C19.5363 29.3333 22.9277 27.9286 25.4282 25.4281C27.9287 22.9276 29.3334 19.5362 29.3334 16H25.3334" stroke="currentColor" stroke-width="3" stroke-linecap="round" stroke-linejoin="round"/>
</svg>
