<svg width="40" height="40" viewBox="0 0 40 40" fill="none" xmlns="http://www.w3.org/2000/svg">
<path d="M26.6668 13.3333V21.6666C26.6668 22.9927 27.1936 24.2645 28.1313 25.2022C29.069 26.1399 30.3408 26.6666 31.6668 26.6666C32.9929 26.6666 34.2647 26.1399 35.2024 25.2022C36.1401 24.2645 36.6668 22.9927 36.6668 21.6666V20C36.6666 16.2384 35.3939 12.5874 33.0556 9.64087C30.7174 6.69429 27.4511 4.62536 23.7879 3.77048C20.1247 2.9156 16.2801 3.32505 12.8791 4.93226C9.47811 6.53947 6.72084 9.24991 5.05561 12.6229C3.39037 15.9958 2.91512 19.8329 3.70712 23.5102C4.49913 27.1875 6.51181 30.4887 9.41789 32.8771C12.324 35.2655 15.9526 36.6006 19.7136 36.6652C23.4747 36.7299 27.147 35.5204 30.1335 33.2333M26.6668 20C26.6668 23.6819 23.6821 26.6666 20.0002 26.6666C16.3183 26.6666 13.3335 23.6819 13.3335 20C13.3335 16.3181 16.3183 13.3333 20.0002 13.3333C23.6821 13.3333 26.6668 16.3181 26.6668 20Z" stroke="currentColor" stroke-width="3.5" stroke-linecap="round" stroke-linejoin="round"/>
</svg>
