<svg width="32" height="32" viewBox="0 0 32 32" fill="none" xmlns="http://www.w3.org/2000/svg">
<path d="M21.3332 10.6667V17.3333C21.3332 18.3942 21.7546 19.4116 22.5048 20.1617C23.2549 20.9119 24.2723 21.3333 25.3332 21.3333C26.3941 21.3333 27.4115 20.9119 28.1616 20.1617C28.9118 19.4116 29.3332 18.3942 29.3332 17.3333V16C29.333 12.9907 28.3148 10.07 26.4442 7.7127C24.5736 5.35543 21.9606 3.70029 19.03 3.01638C16.0995 2.33248 13.0238 2.66004 10.303 3.94581C7.5822 5.23158 5.37638 7.39993 4.04419 10.0983C2.71201 12.7966 2.3318 15.8663 2.96541 18.8081C3.59901 21.75 5.20915 24.391 7.53402 26.3017C9.85889 28.2124 12.7618 29.2805 15.7706 29.3322C18.7795 29.3839 21.7173 28.4163 24.1065 26.5867M21.3332 16C21.3332 18.9455 18.9454 21.3333 15.9999 21.3333C13.0543 21.3333 10.6665 18.9455 10.6665 16C10.6665 13.0545 13.0543 10.6667 15.9999 10.6667C18.9454 10.6667 21.3332 13.0545 21.3332 16Z" stroke="currentColor" stroke-width="3" stroke-linecap="round" stroke-linejoin="round"/>
</svg>
