<svg width="20" height="20" viewBox="0 0 20 20" fill="none" xmlns="http://www.w3.org/2000/svg">
<g clip-path="url(#clip0_12027_636)">
<path d="M13.3332 6.66666V10.8333C13.3332 11.4964 13.5966 12.1323 14.0654 12.6011C14.5343 13.0699 15.1701 13.3333 15.8332 13.3333C16.4962 13.3333 17.1321 13.0699 17.6009 12.6011C18.0698 12.1323 18.3332 11.4964 18.3332 10.8333V9.99999C18.3331 8.11918 17.6967 6.29372 16.5276 4.82043C15.3584 3.34715 13.7253 2.31268 11.8937 1.88524C10.0621 1.4578 8.13979 1.66253 6.4393 2.46613C4.73881 3.26974 3.36018 4.62495 2.52756 6.31143C1.69494 7.9979 1.45732 9.91644 1.85332 11.7551C2.24932 13.5937 3.25566 15.2444 4.7087 16.4385C6.16175 17.6327 7.97604 18.3003 9.85657 18.3326C11.7371 18.365 13.5733 17.7602 15.0665 16.6167M13.3332 9.99999C13.3332 11.8409 11.8408 13.3333 9.99985 13.3333C8.1589 13.3333 6.66651 11.8409 6.66651 9.99999C6.66651 8.15904 8.1589 6.66666 9.99985 6.66666C11.8408 6.66666 13.3332 8.15904 13.3332 9.99999Z" stroke="currentColor" stroke-width="2" stroke-linecap="round" stroke-linejoin="round"/>
</g>
<defs>
<clipPath id="clip0_12027_636">
<rect width="20" height="20" fill="white"/>
</clipPath>
</defs>
</svg>
