<svg width="40" height="40" viewBox="0 0 40 40" fill="none" xmlns="http://www.w3.org/2000/svg">
<g clip-path="url(#clip0_12027_694)">
<path d="M8.33341 30H5.00008C4.11603 30 3.26818 29.6488 2.64306 29.0237C2.01794 28.3986 1.66675 27.5507 1.66675 26.6667V13.3333C1.66675 12.4493 2.01794 11.6014 2.64306 10.9763C3.26818 10.3512 4.11603 10 5.00008 10H10.3167M25.0001 10H28.3334C29.2175 10 30.0653 10.3512 30.6904 10.9763C31.3156 11.6014 31.6667 12.4493 31.6667 13.3333V26.6667C31.6667 27.5507 31.3156 28.3986 30.6904 29.0237C30.0653 29.6488 29.2175 30 28.3334 30H23.0167M38.3334 21.6667V18.3333M18.3334 10L11.6667 20H21.6667L15.0001 30" stroke="currentColor" stroke-width="3.5" stroke-linecap="round" stroke-linejoin="round"/>
</g>
<defs>
<clipPath id="clip0_12027_694">
<rect width="40" height="40" fill="white"/>
</clipPath>
</defs>
</svg>
