<svg width="20" height="20" viewBox="0 0 20 20" fill="none" xmlns="http://www.w3.org/2000/svg">
<g clip-path="url(#clip0_12027_688)">
<path d="M4.16659 15H2.49992C2.05789 15 1.63397 14.8244 1.32141 14.5118C1.00885 14.1993 0.833252 13.7754 0.833252 13.3333V6.66667C0.833252 6.22464 1.00885 5.80072 1.32141 5.48816C1.63397 5.17559 2.05789 5 2.49992 5H5.15825M12.4999 5H14.1666C14.6086 5 15.0325 5.17559 15.3451 5.48816C15.6577 5.80072 15.8333 6.22464 15.8333 6.66667V13.3333C15.8333 13.7754 15.6577 14.1993 15.3451 14.5118C15.0325 14.8244 14.6086 15 14.1666 15H11.5083M19.1666 10.8333V9.16667M9.16658 5L5.83325 10H10.8333L7.49992 15" stroke="currentColor" stroke-width="2" stroke-linecap="round" stroke-linejoin="round"/>
</g>
<defs>
<clipPath id="clip0_12027_688">
<rect width="20" height="20" fill="white"/>
</clipPath>
</defs>
</svg>
