<svg width="16" height="16" viewBox="0 0 16 16" fill="none" xmlns="http://www.w3.org/2000/svg">
<g clip-path="url(#clip0_12027_712)">
<path d="M9.15341 14C9.03621 14.2021 8.86798 14.3698 8.66556 14.4864C8.46315 14.603 8.23367 14.6643 8.00008 14.6643C7.76649 14.6643 7.53701 14.603 7.3346 14.4864C7.13219 14.3698 6.96395 14.2021 6.84675 14M12.4201 8.66669C12.1235 7.58096 11.9821 6.45872 12.0001 5.33335C12.0012 4.60873 11.8054 3.89742 11.4336 3.27541C11.0619 2.65341 10.5282 2.14406 9.8895 1.80178C9.2508 1.4595 8.53113 1.29715 7.80735 1.33206C7.08356 1.36698 6.38286 1.59785 5.78008 2.00002M4.17342 4.17335C4.05759 4.54909 3.99916 4.94017 4.00008 5.33335C4.00008 10 2.00008 11.3334 2.00008 11.3334H11.3334M0.666748 0.666687L15.3334 15.3334" stroke="currentColor" stroke-width="1.6" stroke-linecap="round" stroke-linejoin="round"/>
</g>
<defs>
<clipPath id="clip0_12027_712">
<rect width="16" height="16" fill="white"/>
</clipPath>
</defs>
</svg>
