<svg width="20" height="20" viewBox="0 0 20 20" fill="none" xmlns="http://www.w3.org/2000/svg">
<g clip-path="url(#clip0_12027_714)">
<path d="M11.4416 17.5C11.2951 17.7525 11.0848 17.9622 10.8318 18.1079C10.5788 18.2537 10.2919 18.3304 9.99992 18.3304C9.70794 18.3304 9.42108 18.2537 9.16806 18.1079C8.91505 17.9622 8.70476 17.7525 8.55825 17.5M15.5249 10.8333C15.1542 9.47615 14.9774 8.07335 14.9999 6.66665C15.0013 5.76087 14.7565 4.87173 14.2919 4.09422C13.8272 3.31671 13.1601 2.68003 12.3617 2.25218C11.5633 1.82433 10.6637 1.62139 9.759 1.66504C8.85427 1.70868 7.97839 1.99727 7.22492 2.49998M5.21659 5.21665C5.07181 5.68632 4.99876 6.17516 4.99992 6.66665C4.99992 12.5 2.49992 14.1666 2.49992 14.1666H14.1666M0.833252 0.833313L19.1666 19.1666" stroke="currentColor" stroke-width="2" stroke-linecap="round" stroke-linejoin="round"/>
</g>
<defs>
<clipPath id="clip0_12027_714">
<rect width="20" height="20" fill="white"/>
</clipPath>
</defs>
</svg>
