<svg width="32" height="32" viewBox="0 0 32 32" fill="none" xmlns="http://www.w3.org/2000/svg">
<g clip-path="url(#clip0_12027_718)">
<path d="M18.3066 28C18.0722 28.4041 17.7357 28.7395 17.3309 28.9727C16.9261 29.2059 16.4671 29.3286 15.9999 29.3286C15.5327 29.3286 15.0738 29.2059 14.669 28.9727C14.2641 28.7395 13.9277 28.4041 13.6933 28M24.8399 17.3333C24.2468 15.1619 23.964 12.9174 23.9999 10.6666C24.0021 9.2174 23.6105 7.79479 22.867 6.55077C22.1236 5.30675 21.0561 4.28806 19.7787 3.6035C18.5014 2.91894 17.062 2.59424 15.6145 2.66407C14.1669 2.7339 12.7655 3.19564 11.5599 3.99998M8.34659 8.34665C8.11494 9.09813 7.99807 9.88027 7.99992 10.6666C7.99992 20 3.99992 22.6666 3.99992 22.6666H22.6666M1.33325 1.33331L30.6666 30.6666" stroke="currentColor" stroke-width="3" stroke-linecap="round" stroke-linejoin="round"/>
</g>
<defs>
<clipPath id="clip0_12027_718">
<rect width="32" height="32" fill="white"/>
</clipPath>
</defs>
</svg>
