<svg width="40" height="40" viewBox="0 0 40 40" fill="none" xmlns="http://www.w3.org/2000/svg">
<g clip-path="url(#clip0_12027_720)">
<path d="M22.8834 35C22.5904 35.5051 22.1698 35.9244 21.6638 36.2159C21.1578 36.5074 20.584 36.6608 20.0001 36.6608C19.4161 36.6608 18.8424 36.5074 18.3364 36.2159C17.8303 35.9244 17.4098 35.5051 17.1167 35M31.0501 21.6667C30.3086 18.9524 29.9551 16.1468 30.0001 13.3334C30.0028 11.5218 29.5133 9.74353 28.584 8.18851C27.6546 6.63348 26.3203 5.36011 24.7236 4.50442C23.1269 3.64872 21.3277 3.24284 19.5182 3.33013C17.7088 3.41742 15.957 3.9946 14.4501 5.00002M10.4334 10.4334C10.1439 11.3727 9.99777 12.3504 10.0001 13.3334C10.0001 25 5.00008 28.3334 5.00008 28.3334H28.3334M1.66675 1.66669L38.3334 38.3334" stroke="currentColor" stroke-width="3.5" stroke-linecap="round" stroke-linejoin="round"/>
</g>
<defs>
<clipPath id="clip0_12027_720">
<rect width="40" height="40" fill="white"/>
</clipPath>
</defs>
</svg>
