<svg width="40" height="40" viewBox="0 0 40 40" fill="none" xmlns="http://www.w3.org/2000/svg">
<path d="M10 20H23.3333C25.1014 20 26.7971 19.2976 28.0474 18.0474C29.2976 16.7972 30 15.1015 30 13.3334C30 11.5652 29.2976 9.86955 28.0474 8.61931C26.7971 7.36907 25.1014 6.66669 23.3333 6.66669H10V20ZM10 20H25C26.7681 20 28.4638 20.7024 29.714 21.9526C30.9643 23.2029 31.6667 24.8986 31.6667 26.6667C31.6667 28.4348 30.9643 30.1305 29.714 31.3807C28.4638 32.631 26.7681 33.3334 25 33.3334H10V20Z" stroke="currentColor" stroke-width="3.5" stroke-linecap="round" stroke-linejoin="round"/>
</svg>
