<svg width="20" height="20" viewBox="0 0 20 20" fill="none" xmlns="http://www.w3.org/2000/svg">
<path d="M5 9.99998H11.6667C12.5507 9.99998 13.3986 9.64879 14.0237 9.02367C14.6488 8.39855 15 7.5507 15 6.66665C15 5.78259 14.6488 4.93474 14.0237 4.30962C13.3986 3.6845 12.5507 3.33331 11.6667 3.33331H5V9.99998ZM5 9.99998H12.5C13.3841 9.99998 14.2319 10.3512 14.857 10.9763C15.4821 11.6014 15.8333 12.4493 15.8333 13.3333C15.8333 14.2174 15.4821 15.0652 14.857 15.6903C14.2319 16.3155 13.3841 16.6666 12.5 16.6666H5V9.99998Z" stroke="currentColor" stroke-width="2" stroke-linecap="round" stroke-linejoin="round"/>
</svg>
