<svg width="40" height="40" viewBox="0 0 40 40" fill="none" xmlns="http://www.w3.org/2000/svg">
<path d="M26.6666 35V8.33333C26.6666 7.44928 26.3154 6.60143 25.6903 5.97631C25.0652 5.35119 24.2173 5 23.3333 5H16.6666C15.7825 5 14.9347 5.35119 14.3096 5.97631C13.6844 6.60143 13.3333 7.44928 13.3333 8.33333V35M6.66659 11.6667H33.3333C35.1742 11.6667 36.6666 13.1591 36.6666 15V31.6667C36.6666 33.5076 35.1742 35 33.3333 35H6.66659C4.82564 35 3.33325 33.5076 3.33325 31.6667V15C3.33325 13.1591 4.82564 11.6667 6.66659 11.6667Z" stroke="currentColor" stroke-width="3.5" stroke-linecap="round" stroke-linejoin="round"/>
</svg>
