<svg width="16" height="16" viewBox="0 0 16 16" fill="none" xmlns="http://www.w3.org/2000/svg">
<g clip-path="url(#clip0_12027_842)">
<path d="M0.666504 0.666626L15.3332 15.3333M13.9998 14H1.99984C1.64622 14 1.30708 13.8595 1.05703 13.6094C0.80698 13.3594 0.666504 13.0202 0.666504 12.6666V5.33329C0.666504 4.97967 0.80698 4.64053 1.05703 4.39048C1.30708 4.14044 1.64622 3.99996 1.99984 3.99996H3.99984M5.99984 1.99996H9.99984L11.3332 3.99996H13.9998C14.3535 3.99996 14.6926 4.14044 14.9426 4.39048C15.1927 4.64053 15.3332 4.97967 15.3332 5.33329V11.56M10.1865 10.1866C9.96524 10.51 9.67543 10.7806 9.3377 10.9793C8.99997 11.1779 8.62261 11.2997 8.23247 11.336C7.84233 11.3722 7.44899 11.322 7.08044 11.189C6.71189 11.056 6.37718 10.8434 6.10012 10.5663C5.82306 10.2893 5.61046 9.95458 5.47744 9.58602C5.34442 9.21747 5.29425 8.82414 5.33051 8.434C5.36676 8.04385 5.48854 7.6665 5.68719 7.32876C5.88584 6.99103 6.15647 6.70123 6.47984 6.47996" stroke="currentColor" stroke-width="1.6" stroke-linecap="round" stroke-linejoin="round"/>
</g>
<defs>
<clipPath id="clip0_12027_842">
<rect width="16" height="16" fill="white"/>
</clipPath>
</defs>
</svg>
