<svg width="20" height="20" viewBox="0 0 20 20" fill="none" xmlns="http://www.w3.org/2000/svg">
<g clip-path="url(#clip0_12027_844)">
<path d="M0.833496 0.833374L19.1668 19.1667M17.5002 17.5H2.50016C2.05814 17.5 1.63421 17.3244 1.32165 17.0119C1.00909 16.6993 0.833496 16.2754 0.833496 15.8334V6.66671C0.833496 6.22468 1.00909 5.80076 1.32165 5.4882C1.63421 5.17564 2.05814 5.00004 2.50016 5.00004H5.00016M7.50016 2.50004H12.5002L14.1668 5.00004H17.5002C17.9422 5.00004 18.3661 5.17564 18.6787 5.4882C18.9912 5.80076 19.1668 6.22468 19.1668 6.66671V14.45M12.7335 12.7334C12.4569 13.1376 12.0947 13.4759 11.6725 13.7242C11.2503 13.9725 10.7786 14.1247 10.2909 14.17C9.80327 14.2154 9.3116 14.1526 8.85091 13.9864C8.39023 13.8201 7.97184 13.5543 7.62551 13.208C7.27919 12.8617 7.01344 12.4433 6.84716 11.9826C6.68089 11.5219 6.61818 11.0303 6.6635 10.5426C6.70882 10.0549 6.86104 9.58321 7.10935 9.16105C7.35766 8.73888 7.69596 8.37662 8.10016 8.10004" stroke="currentColor" stroke-width="2" stroke-linecap="round" stroke-linejoin="round"/>
</g>
<defs>
<clipPath id="clip0_12027_844">
<rect width="20" height="20" fill="white"/>
</clipPath>
</defs>
</svg>
