<svg width="32" height="32" viewBox="0 0 32 32" fill="none" xmlns="http://www.w3.org/2000/svg">
<g clip-path="url(#clip0_12027_848)">
<path d="M1.3335 1.33337L30.6668 30.6667M28.0002 28H4.00016C3.29292 28 2.61464 27.7191 2.11454 27.219C1.61445 26.7189 1.3335 26.0406 1.3335 25.3334V10.6667C1.3335 9.95946 1.61445 9.28119 2.11454 8.78109C2.61464 8.28099 3.29292 8.00004 4.00016 8.00004H8.00016M12.0002 4.00004H20.0002L22.6668 8.00004H28.0002C28.7074 8.00004 29.3857 8.28099 29.8858 8.78109C30.3859 9.28119 30.6668 9.95946 30.6668 10.6667V23.12M20.3735 20.3734C19.931 21.0201 19.3514 21.5614 18.6759 21.9587C18.0004 22.356 17.2457 22.5995 16.4654 22.672C15.6851 22.7445 14.8985 22.6442 14.1614 22.3782C13.4243 22.1121 12.7548 21.6869 12.2007 21.1328C11.6466 20.5787 11.2214 19.9093 10.9554 19.1722C10.6893 18.4351 10.589 17.6484 10.6615 16.8681C10.734 16.0878 10.9776 15.3331 11.3749 14.6577C11.7722 13.9822 12.3134 13.4026 12.9602 12.96" stroke="currentColor" stroke-width="3" stroke-linecap="round" stroke-linejoin="round"/>
</g>
<defs>
<clipPath id="clip0_12027_848">
<rect width="32" height="32" fill="white"/>
</clipPath>
</defs>
</svg>
