<svg width="40" height="40" viewBox="0 0 40 40" fill="none" xmlns="http://www.w3.org/2000/svg">
<g clip-path="url(#clip0_12027_850)">
<path d="M1.6665 1.66663L38.3332 38.3333M34.9998 35H4.99984C4.11578 35 3.26794 34.6488 2.64281 34.0236C2.01769 33.3985 1.6665 32.5507 1.6665 31.6666V13.3333C1.6665 12.4492 2.01769 11.6014 2.64281 10.9763C3.26794 10.3511 4.11578 9.99996 4.99984 9.99996H9.99984M14.9998 4.99996H24.9998L28.3332 9.99996H34.9998C35.8839 9.99996 36.7317 10.3511 37.3569 10.9763C37.982 11.6014 38.3332 12.4492 38.3332 13.3333V28.9M25.4665 25.4666C24.9133 26.275 24.1888 26.9516 23.3445 27.4482C22.5002 27.9449 21.5568 28.2493 20.5814 28.3399C19.6061 28.4306 18.6227 28.3052 17.7013 27.9726C16.78 27.6401 15.9432 27.1086 15.2505 26.4159C14.5579 25.7233 14.0264 24.8865 13.6938 23.9651C13.3613 23.0437 13.2359 22.0604 13.3265 21.085C13.4171 20.1097 13.7216 19.1663 14.2182 18.322C14.7148 17.4776 15.3914 16.7531 16.1998 16.2" stroke="currentColor" stroke-width="3.5" stroke-linecap="round" stroke-linejoin="round"/>
</g>
<defs>
<clipPath id="clip0_12027_850">
<rect width="40" height="40" fill="white"/>
</clipPath>
</defs>
</svg>
