<svg width="20" height="20" viewBox="0 0 20 20" fill="none" xmlns="http://www.w3.org/2000/svg">
<path d="M1.6665 13.4167C2.46725 13.58 3.20229 13.9752 3.78016 14.5531C4.35802 15.1309 4.7532 15.866 4.9165 16.6667M1.6665 10.0417C3.35883 10.2299 4.93673 10.9884 6.14077 12.1924C7.3448 13.3965 8.10328 14.9744 8.2915 16.6667M1.6665 6.66671V5.00004C1.6665 4.55801 1.8421 4.13409 2.15466 3.82153C2.46722 3.50897 2.89114 3.33337 3.33317 3.33337H16.6665C17.1085 3.33337 17.5325 3.50897 17.845 3.82153C18.1576 4.13409 18.3332 4.55801 18.3332 5.00004V15C18.3332 15.4421 18.1576 15.866 17.845 16.1786C17.5325 16.4911 17.1085 16.6667 16.6665 16.6667H11.6665M1.6665 16.6667H1.67484" stroke="currentColor" stroke-width="2" stroke-linecap="round" stroke-linejoin="round"/>
</svg>
