<svg width="16" height="16" viewBox="0 0 16 16" fill="none" xmlns="http://www.w3.org/2000/svg">
<path d="M1.3335 10.7333C1.97409 10.8639 2.56212 11.1801 3.02442 11.6424C3.48671 12.1047 3.80285 12.6927 3.9335 13.3333M1.3335 8.03329C2.68736 8.18387 3.94968 8.79066 4.91291 9.75388C5.87613 10.7171 6.48292 11.9794 6.6335 13.3333M1.3335 5.33329V3.99996C1.3335 3.64634 1.47397 3.3072 1.72402 3.05715C1.97407 2.8071 2.31321 2.66663 2.66683 2.66663H13.3335C13.6871 2.66663 14.0263 2.8071 14.2763 3.05715C14.5264 3.3072 14.6668 3.64634 14.6668 3.99996V12C14.6668 12.3536 14.5264 12.6927 14.2763 12.9428C14.0263 13.1928 13.6871 13.3333 13.3335 13.3333H9.3335M1.3335 13.3333H1.34016" stroke="currentColor" stroke-width="1.6" stroke-linecap="round" stroke-linejoin="round"/>
</svg>
