<svg width="40" height="40" viewBox="0 0 40 40" fill="none" xmlns="http://www.w3.org/2000/svg">
<path d="M3.3335 26.8333C4.93498 27.1599 6.40507 27.9503 7.5608 29.106C8.71653 30.2617 9.50688 31.7318 9.8335 33.3333M3.3335 20.0833C6.71814 20.4597 9.87395 21.9767 12.282 24.3848C14.6901 26.7928 16.2071 29.9486 16.5835 33.3333M3.3335 13.3333V9.99996C3.3335 9.1159 3.68469 8.26806 4.30981 7.64294C4.93493 7.01782 5.78277 6.66663 6.66683 6.66663H33.3335C34.2176 6.66663 35.0654 7.01782 35.6905 7.64294C36.3156 8.26806 36.6668 9.1159 36.6668 9.99996V30C36.6668 30.884 36.3156 31.7319 35.6905 32.357C35.0654 32.9821 34.2176 33.3333 33.3335 33.3333H23.3335M3.3335 33.3333H3.35016" stroke="currentColor" stroke-width="3.5" stroke-linecap="round" stroke-linejoin="round"/>
</svg>
