<svg width="32" height="32" viewBox="0 0 32 32" fill="none" xmlns="http://www.w3.org/2000/svg">
<path d="M2.6665 21.4667C3.94769 21.728 5.12376 22.3603 6.04835 23.2849C6.97293 24.2095 7.60521 25.3855 7.8665 26.6667M2.6665 16.0667C5.37422 16.3679 7.89887 17.5814 9.82532 19.5079C11.7518 21.4343 12.9654 23.959 13.2665 26.6667M2.6665 10.6667V8.00004C2.6665 7.2928 2.94746 6.61452 3.44755 6.11442C3.94765 5.61433 4.62593 5.33337 5.33317 5.33337H26.6665C27.3737 5.33337 28.052 5.61433 28.5521 6.11442C29.0522 6.61452 29.3332 7.2928 29.3332 8.00004V24C29.3332 24.7073 29.0522 25.3856 28.5521 25.8857C28.052 26.3858 27.3737 26.6667 26.6665 26.6667H18.6665M2.6665 26.6667H2.67984" stroke="currentColor" stroke-width="3" stroke-linecap="round" stroke-linejoin="round"/>
</svg>
