<svg width="32" height="32" viewBox="0 0 32 32" fill="none" xmlns="http://www.w3.org/2000/svg">
<path d="M16.0001 10.6666C13.0546 10.6666 10.6667 13.0544 10.6667 16C10.6667 18.9455 13.0546 21.3333 16.0001 21.3333C18.9456 21.3333 21.3334 18.9455 21.3334 16C21.3334 13.0544 18.9456 10.6666 16.0001 10.6666ZM16.0001 10.6666H28.2267M5.26675 8.07996L11.3867 18.6666M14.5067 29.2533L20.6134 18.6666M29.3334 16C29.3334 23.3638 23.3639 29.3333 16.0001 29.3333C8.63628 29.3333 2.66675 23.3638 2.66675 16C2.66675 8.63616 8.63628 2.66663 16.0001 2.66663C23.3639 2.66663 29.3334 8.63616 29.3334 16Z" stroke="currentColor" stroke-width="3" stroke-linecap="round" stroke-linejoin="round"/>
</svg>
