<svg width="16" height="16" viewBox="0 0 16 16" fill="none" xmlns="http://www.w3.org/2000/svg">
<g clip-path="url(#clip0_12027_1024)">
<path d="M8.00004 5.33337C6.52728 5.33337 5.33337 6.52728 5.33337 8.00004C5.33337 9.4728 6.52728 10.6667 8.00004 10.6667C9.4728 10.6667 10.6667 9.4728 10.6667 8.00004C10.6667 6.52728 9.4728 5.33337 8.00004 5.33337ZM8.00004 5.33337H14.1134M2.63337 4.04004L5.69337 9.33337M7.25337 14.6267L10.3067 9.33337M14.6667 8.00004C14.6667 11.6819 11.6819 14.6667 8.00004 14.6667C4.31814 14.6667 1.33337 11.6819 1.33337 8.00004C1.33337 4.31814 4.31814 1.33337 8.00004 1.33337C11.6819 1.33337 14.6667 4.31814 14.6667 8.00004Z" stroke="currentColor" stroke-width="1.6" stroke-linecap="round" stroke-linejoin="round"/>
</g>
<defs>
<clipPath id="clip0_12027_1024">
<rect width="16" height="16" fill="white"/>
</clipPath>
</defs>
</svg>
