<svg width="20" height="20" viewBox="0 0 20 20" fill="none" xmlns="http://www.w3.org/2000/svg">
<g clip-path="url(#clip0_12027_1026)">
<path d="M10.0001 6.66663C8.15913 6.66663 6.66675 8.15901 6.66675 9.99996C6.66675 11.8409 8.15913 13.3333 10.0001 13.3333C11.841 13.3333 13.3334 11.8409 13.3334 9.99996C13.3334 8.15901 11.841 6.66663 10.0001 6.66663ZM10.0001 6.66663H17.6417M3.29175 5.04996L7.11675 11.6666M9.06675 18.2833L12.8834 11.6666M18.3334 9.99996C18.3334 14.6023 14.6025 18.3333 10.0001 18.3333C5.39771 18.3333 1.66675 14.6023 1.66675 9.99996C1.66675 5.39759 5.39771 1.66663 10.0001 1.66663C14.6025 1.66663 18.3334 5.39759 18.3334 9.99996Z" stroke="currentColor" stroke-width="2" stroke-linecap="round" stroke-linejoin="round"/>
</g>
<defs>
<clipPath id="clip0_12027_1026">
<rect width="20" height="20" fill="white"/>
</clipPath>
</defs>
</svg>
