<svg width="16" height="16" viewBox="0 0 16 16" fill="none" xmlns="http://www.w3.org/2000/svg">
<path d="M10.6667 2.66671H12.0001C12.3537 2.66671 12.6928 2.80718 12.9429 3.05723C13.1929 3.30728 13.3334 3.64642 13.3334 4.00004V13.3334C13.3334 13.687 13.1929 14.0261 12.9429 14.2762C12.6928 14.5262 12.3537 14.6667 12.0001 14.6667H4.00008C3.64646 14.6667 3.30732 14.5262 3.05727 14.2762C2.80722 14.0261 2.66675 13.687 2.66675 13.3334V4.00004C2.66675 3.64642 2.80722 3.30728 3.05727 3.05723C3.30732 2.80718 3.64646 2.66671 4.00008 2.66671H5.33341M6.00008 1.33337H10.0001C10.3683 1.33337 10.6667 1.63185 10.6667 2.00004V3.33337C10.6667 3.70156 10.3683 4.00004 10.0001 4.00004H6.00008C5.63189 4.00004 5.33341 3.70156 5.33341 3.33337V2.00004C5.33341 1.63185 5.63189 1.33337 6.00008 1.33337Z" stroke="currentColor" stroke-width="1.6" stroke-linecap="round" stroke-linejoin="round"/>
</svg>
