<svg width="20" height="20" viewBox="0 0 20 20" fill="none" xmlns="http://www.w3.org/2000/svg">
<path d="M13.3333 3.33329H14.9999C15.4419 3.33329 15.8659 3.50889 16.1784 3.82145C16.491 4.13401 16.6666 4.55793 16.6666 4.99996V16.6666C16.6666 17.1087 16.491 17.5326 16.1784 17.8451C15.8659 18.1577 15.4419 18.3333 14.9999 18.3333H4.99992C4.55789 18.3333 4.13397 18.1577 3.82141 17.8451C3.50885 17.5326 3.33325 17.1087 3.33325 16.6666V4.99996C3.33325 4.55793 3.50885 4.13401 3.82141 3.82145C4.13397 3.50889 4.55789 3.33329 4.99992 3.33329H6.66659M7.49992 1.66663H12.4999C12.9602 1.66663 13.3333 2.03972 13.3333 2.49996V4.16663C13.3333 4.62686 12.9602 4.99996 12.4999 4.99996H7.49992C7.03968 4.99996 6.66659 4.62686 6.66659 4.16663V2.49996C6.66659 2.03972 7.03968 1.66663 7.49992 1.66663Z" stroke="currentColor" stroke-width="2" stroke-linecap="round" stroke-linejoin="round"/>
</svg>
