<svg width="40" height="40" viewBox="0 0 40 40" fill="none" xmlns="http://www.w3.org/2000/svg">
<path d="M26.6667 6.66671H30.0001C30.8841 6.66671 31.732 7.0179 32.3571 7.64302C32.9822 8.26814 33.3334 9.11599 33.3334 10V33.3334C33.3334 34.2174 32.9822 35.0653 32.3571 35.6904C31.732 36.3155 30.8841 36.6667 30.0001 36.6667H10.0001C9.11603 36.6667 8.26818 36.3155 7.64306 35.6904C7.01794 35.0653 6.66675 34.2174 6.66675 33.3334V10C6.66675 9.11599 7.01794 8.26814 7.64306 7.64302C8.26818 7.0179 9.11603 6.66671 10.0001 6.66671H13.3334M15.0001 3.33337H25.0001C25.9206 3.33337 26.6667 4.07957 26.6667 5.00004V8.33337C26.6667 9.25385 25.9206 10 25.0001 10H15.0001C14.0796 10 13.3334 9.25385 13.3334 8.33337V5.00004C13.3334 4.07957 14.0796 3.33337 15.0001 3.33337Z" stroke="currentColor" stroke-width="3.5" stroke-linecap="round" stroke-linejoin="round"/>
</svg>
