<svg width="40" height="40" viewBox="0 0 40 40" fill="none" xmlns="http://www.w3.org/2000/svg">
<g clip-path="url(#clip0_12027_1149)">
<path d="M30 16.6666H27.9C27.2765 14.2516 25.988 12.0599 24.1811 10.3406C22.3742 8.6213 20.1212 7.44328 17.6782 6.94042C15.2352 6.43756 12.7002 6.63003 10.3611 7.49595C8.02204 8.36187 5.97275 9.86652 4.44611 11.8389C2.91946 13.8113 1.97667 16.1724 1.72487 18.6539C1.47306 21.1353 1.92234 23.6377 3.02165 25.8766C4.12096 28.1154 5.82622 30.0011 7.94366 31.3192C10.0611 32.6374 12.5058 33.3352 15 33.3333H30C32.2102 33.3333 34.3298 32.4553 35.8926 30.8925C37.4554 29.3297 38.3334 27.2101 38.3334 25C38.3334 22.7898 37.4554 20.6702 35.8926 19.1074C34.3298 17.5446 32.2102 16.6666 30 16.6666Z" stroke="currentColor" stroke-width="3.5" stroke-linecap="round" stroke-linejoin="round"/>
</g>
<defs>
<clipPath id="clip0_12027_1149">
<rect width="40" height="40" fill="white"/>
</clipPath>
</defs>
</svg>
