<svg width="20" height="20" viewBox="0 0 20 20" fill="none" xmlns="http://www.w3.org/2000/svg">
<g clip-path="url(#clip0_12027_1091)">
<path d="M15.8334 14.0833C16.8461 13.8777 17.7462 13.3031 18.359 12.4712C18.9719 11.6393 19.2537 10.6093 19.1499 9.58122C19.046 8.55316 18.5639 7.60035 17.7971 6.90778C17.0302 6.2152 16.0334 5.83226 15.0001 5.8333H13.9501C13.674 4.7644 13.1368 3.78079 12.3867 2.97079C11.6366 2.16078 10.697 1.54974 9.65246 1.19252C8.60787 0.835294 7.49092 0.743075 6.40189 0.924138C5.31285 1.1052 4.28583 1.55388 3.41303 2.22989C2.54023 2.9059 1.84896 3.78808 1.4013 4.79722C0.953643 5.80637 0.763599 6.91089 0.848235 8.01162C0.932871 9.11236 1.28954 10.1748 1.88621 11.1037C2.48288 12.0325 3.30088 12.7987 4.26677 13.3333M10.8334 9.16663L7.50011 14.1666H12.5001L9.16677 19.1666" stroke="currentColor" stroke-width="2" stroke-linecap="round" stroke-linejoin="round"/>
</g>
<defs>
<clipPath id="clip0_12027_1091">
<rect width="20" height="20" fill="white"/>
</clipPath>
</defs>
</svg>
