<svg width="16" height="16" viewBox="0 0 16 16" fill="none" xmlns="http://www.w3.org/2000/svg">
<g clip-path="url(#clip0_12027_1089)">
<path d="M12.6665 11.2667C13.4766 11.1022 14.1966 10.6425 14.6869 9.97698C15.1772 9.31143 15.4027 8.48745 15.3196 7.665C15.2365 6.84255 14.8508 6.08031 14.2373 5.52625C13.6239 4.97218 12.8264 4.66583 11.9998 4.66666H11.1598C10.9389 3.81154 10.5091 3.02466 9.90906 2.37665C9.30897 1.72865 8.55735 1.23982 7.72167 0.954038C6.886 0.66826 5.99244 0.594484 5.12122 0.739335C4.24999 0.884185 3.42837 1.24313 2.73013 1.78394C2.03189 2.32474 1.47888 3.03049 1.12075 3.8378C0.762621 4.64512 0.610586 5.52874 0.678295 6.40932C0.746004 7.28991 1.03134 8.1399 1.50867 8.88297C1.98601 9.62605 2.64041 10.239 3.41313 10.6667M8.66646 7.33333L5.99979 11.3333H9.99979L7.33313 15.3333" stroke="currentColor" stroke-width="1.6" stroke-linecap="round" stroke-linejoin="round"/>
</g>
<defs>
<clipPath id="clip0_12027_1089">
<rect width="16" height="16" fill="white"/>
</clipPath>
</defs>
</svg>
