<svg width="32" height="32" viewBox="0 0 32 32" fill="none" xmlns="http://www.w3.org/2000/svg">
<g clip-path="url(#clip0_12027_1095)">
<path d="M25.3334 22.5333C26.9536 22.2043 28.3938 21.2851 29.3743 19.954C30.3549 18.6229 30.8058 16.9749 30.6397 15.33C30.4735 13.6851 29.7021 12.1606 28.4752 11.0525C27.2483 9.94437 25.6533 9.33167 24.0001 9.33333H22.3201C21.8783 7.62308 21.0188 6.04931 19.8186 4.75331C18.6184 3.4573 17.1152 2.47963 15.4438 1.90808C13.7725 1.33652 11.9854 1.18897 10.2429 1.47867C8.50047 1.76837 6.85724 2.48626 5.46075 3.56787C4.06426 4.64949 2.95824 6.06097 2.24199 7.67561C1.52573 9.29024 1.22166 11.0575 1.35708 12.8186C1.4925 14.5798 2.06316 16.2798 3.01784 17.7659C3.97251 19.2521 5.28132 20.4779 6.82674 21.3333M17.3334 14.6667L12.0001 22.6667H20.0001L14.6667 30.6667" stroke="currentColor" stroke-width="3" stroke-linecap="round" stroke-linejoin="round"/>
</g>
<defs>
<clipPath id="clip0_12027_1095">
<rect width="32" height="32" fill="white"/>
</clipPath>
</defs>
</svg>
