<svg width="32" height="32" viewBox="0 0 32 32" fill="none" xmlns="http://www.w3.org/2000/svg">
<g clip-path="url(#clip0_12027_1134)">
<path d="M26.6669 23.4399C28.0685 22.8261 29.2164 21.7487 29.9177 20.3887C30.619 19.0286 30.831 17.4688 30.5183 15.9709C30.2056 14.473 29.3871 13.1282 28.2003 12.1624C27.0134 11.1966 25.5304 10.6684 24.0002 10.6666H22.3202C21.8976 9.02997 21.092 7.51721 19.97 6.25301C18.8479 4.98881 17.4415 4.00938 15.8666 3.39544C14.2917 2.7815 12.5934 2.55063 10.9118 2.72187C9.23015 2.8931 7.61329 3.46154 6.19447 4.38032C4.77565 5.2991 3.59549 6.54192 2.75128 8.00634C1.90707 9.47076 1.42297 11.1148 1.33889 12.8031C1.25481 14.4913 1.57315 16.1754 2.26768 17.7164C2.96221 19.2575 4.01303 20.6114 5.33354 21.6666M10.6669 21.3333H10.6802M10.6669 26.6666H10.6802M16.0002 23.9999H16.0135M16.0002 29.3333H16.0135M21.3335 21.3333H21.3469M21.3335 26.6666H21.3469" stroke="currentColor" stroke-width="3" stroke-linecap="round" stroke-linejoin="round"/>
</g>
<defs>
<clipPath id="clip0_12027_1134">
<rect width="32" height="32" fill="white"/>
</clipPath>
</defs>
</svg>
