<svg width="40" height="40" viewBox="0 0 40 40" fill="none" xmlns="http://www.w3.org/2000/svg">
<g clip-path="url(#clip0_12027_1097)">
<path d="M31.6669 28.1667C33.6921 27.7555 35.4923 26.6064 36.718 24.9425C37.9437 23.2786 38.5074 21.2187 38.2997 19.1626C38.092 17.1064 37.1278 15.2008 35.5941 13.8157C34.0604 12.4305 32.0668 11.6646 30.0002 11.6667H27.9002C27.348 9.52892 26.2736 7.5617 24.7734 5.9417C23.2732 4.32169 21.3941 3.0996 19.3049 2.38516C17.2157 1.67071 14.9818 1.48627 12.8038 1.8484C10.6257 2.21052 8.57167 3.10788 6.82606 4.4599C5.08045 5.81192 3.69793 7.57628 2.80261 9.59457C1.90729 11.6129 1.5272 13.8219 1.69647 16.0234C1.86574 18.2248 2.57907 20.3498 3.77242 22.2075C4.96576 24.0652 6.60177 25.5975 8.53355 26.6667M21.6669 18.3334L15.0002 28.3334H25.0002L18.3335 38.3334" stroke="currentColor" stroke-width="3.5" stroke-linecap="round" stroke-linejoin="round"/>
</g>
<defs>
<clipPath id="clip0_12027_1097">
<rect width="40" height="40" fill="white"/>
</clipPath>
</defs>
</svg>
