<svg width="48" height="48" viewBox="0 0 48 48" fill="none" xmlns="http://www.w3.org/2000/svg">
<g clip-path="url(#clip0_12027_1126)">
<path d="M40.0001 35.16C42.1026 34.2392 43.8243 32.6232 44.8762 30.5831C45.9282 28.5431 46.2463 26.2033 45.7773 23.9564C45.3082 21.7096 44.0805 19.6925 42.3002 18.2437C40.5199 16.795 38.2954 16.0027 36.0001 16H33.4801C32.8461 13.5451 31.6378 11.2759 29.9547 9.37964C28.2716 7.48334 26.1619 6.01419 23.7996 5.09328C21.4373 4.17237 18.8899 3.82607 16.3674 4.08292C13.845 4.33978 11.4197 5.19243 9.29146 6.5706C7.16322 7.94877 5.39299 9.813 4.12668 12.0096C2.86036 14.2063 2.13421 16.6724 2.00809 19.2047C1.88197 21.7371 2.35948 24.2632 3.40127 26.5747C4.44307 28.8863 6.0193 30.9172 8.00007 32.5M16.0001 32H16.0201M16.0001 40H16.0201M24.0001 36H24.0201M24.0001 44H24.0201M32.0001 32H32.0201M32.0001 40H32.0201" stroke="currentColor" stroke-width="4" stroke-linecap="round" stroke-linejoin="round"/>
</g>
<defs>
<clipPath id="clip0_12027_1126">
<rect width="48" height="48" fill="white"/>
</clipPath>
</defs>
</svg>
