<svg width="48" height="48" viewBox="0 0 48 48" fill="none" xmlns="http://www.w3.org/2000/svg">
<g clip-path="url(#clip0_12027_1087)">
<path d="M37.9999 33.8C40.4302 33.3065 42.5904 31.9276 44.0612 29.9309C45.5321 27.9343 46.2085 25.4623 45.9593 22.995C45.7101 20.5276 44.5529 18.2409 42.7125 16.5787C40.8721 14.9166 38.4798 13.9975 35.9999 14H33.4799C32.8173 11.4346 31.5279 9.07397 29.7277 7.12996C27.9274 5.18595 25.6725 3.71945 23.1655 2.86211C20.6585 2.00478 17.9778 1.78345 15.3641 2.218C12.7505 2.65256 10.2856 3.72938 8.19088 5.35181C6.09615 6.97423 4.43712 9.09146 3.36274 11.5134C2.28835 13.9354 1.83225 16.5862 2.03537 19.228C2.2385 21.8697 3.0945 24.4197 4.52651 26.6489C5.95853 28.8782 7.92173 30.7169 10.2399 32M25.9999 22L17.9999 34H29.9999L21.9999 46" stroke="currentColor" stroke-width="4" stroke-linecap="round" stroke-linejoin="round"/>
</g>
<defs>
<clipPath id="clip0_12027_1087">
<rect width="48" height="48" fill="white"/>
</clipPath>
</defs>
</svg>
