<svg width="20" height="20" viewBox="0 0 20 20" fill="none" xmlns="http://www.w3.org/2000/svg">
<g clip-path="url(#clip0_12027_1143)">
<path d="M15 8.33337H13.95C13.6382 7.12587 12.994 6.03003 12.0905 5.17037C11.1871 4.31071 10.0606 3.7217 8.83911 3.47027C7.61762 3.21884 6.35009 3.31507 5.18056 3.74803C4.01102 4.18099 2.98638 4.93332 2.22305 5.91953C1.45973 6.90573 0.988336 8.08627 0.862433 9.327C0.736531 10.5677 0.96117 11.8189 1.51082 12.9383C2.06048 14.0578 2.91311 15.0006 3.97183 15.6597C5.03055 16.3187 6.25291 16.6676 7.50001 16.6667H15C16.1051 16.6667 17.1649 16.2277 17.9463 15.4463C18.7277 14.6649 19.1667 13.6051 19.1667 12.5C19.1667 11.395 18.7277 10.3352 17.9463 9.55376C17.1649 8.77236 16.1051 8.33337 15 8.33337Z" stroke="currentColor" stroke-width="2" stroke-linecap="round" stroke-linejoin="round"/>
</g>
<defs>
<clipPath id="clip0_12027_1143">
<rect width="20" height="20" fill="white"/>
</clipPath>
</defs>
</svg>
