<svg width="20" height="20" viewBox="0 0 20 20" fill="none" xmlns="http://www.w3.org/2000/svg">
<g clip-path="url(#clip0_12027_1130)">
<path d="M16.6669 14.65C17.5429 14.2663 18.2603 13.5929 18.6986 12.7429C19.1369 11.8929 19.2695 10.918 19.074 9.98178C18.8786 9.0456 18.367 8.20514 17.6252 7.60149C16.8834 6.99785 15.9566 6.66776 15.0002 6.66663H13.9502C13.686 5.64373 13.1826 4.69825 12.4813 3.90813C11.78 3.11801 10.901 2.50586 9.91666 2.12215C8.93235 1.73844 7.87095 1.59415 6.81993 1.70117C5.7689 1.80819 4.75837 2.16346 3.8716 2.7377C2.98484 3.31194 2.24724 4.0887 1.71961 5.00396C1.19198 5.91922 0.889417 6.94678 0.836867 8.00192C0.784316 9.05707 0.983281 10.1096 1.41736 11.0728C1.85144 12.0359 2.50821 12.8821 3.33352 13.5416M6.66686 13.3333H6.67519M6.66686 16.6666H6.67519M10.0002 15H10.0085M10.0002 18.3333H10.0085M13.3335 13.3333H13.3419M13.3335 16.6666H13.3419" stroke="currentColor" stroke-width="2" stroke-linecap="round" stroke-linejoin="round"/>
</g>
<defs>
<clipPath id="clip0_12027_1130">
<rect width="20" height="20" fill="white"/>
</clipPath>
</defs>
</svg>
