<svg width="20" height="20" viewBox="0 0 20 20" fill="none" xmlns="http://www.w3.org/2000/svg">
<g clip-path="url(#clip0_12027_1104)">
<path d="M18.8418 14.125C19.1103 13.4911 19.2175 12.8006 19.1539 12.1151C19.0903 11.4296 18.8579 10.7706 18.4773 10.1969C18.0968 9.62317 17.58 9.1527 16.9733 8.82752C16.3665 8.50233 15.6886 8.33256 15.0002 8.33337H13.9502C13.61 6.99378 12.8619 5.79303 11.8094 4.89725C10.7568 4.00148 9.4519 3.45498 8.07516 3.33337M4.16682 4.16671C2.86522 4.88641 1.84166 6.02069 1.25898 7.38913C0.676295 8.75756 0.567949 10.2816 0.951178 11.7187C1.33441 13.1558 2.1872 14.4234 3.37389 15.32C4.56059 16.2166 6.01302 16.6907 7.50016 16.6667H15.0002C15.4833 16.6661 15.9627 16.5815 16.4168 16.4167M0.833489 0.833374L19.1668 19.1667" stroke="currentColor" stroke-width="2" stroke-linecap="round" stroke-linejoin="round"/>
</g>
<defs>
<clipPath id="clip0_12027_1104">
<rect width="20" height="20" fill="white"/>
</clipPath>
</defs>
</svg>
