<svg width="40" height="40" viewBox="0 0 40 40" fill="none" xmlns="http://www.w3.org/2000/svg">
<g clip-path="url(#clip0_12027_1084)">
<path d="M13.3332 31.6666V35M13.3332 21.6666V25M26.6666 31.6666V35M26.6666 21.6666V25M19.9999 35V38.3333M19.9999 25V28.3333M33.3332 27.6333C35.0853 26.866 36.5201 25.5192 37.3967 23.8192C38.2733 22.1192 38.5384 20.1693 38.1475 18.2969C37.7567 16.4246 36.7336 14.7437 35.25 13.5364C33.7664 12.3291 31.9126 11.6689 29.9999 11.6666H27.8999C27.3716 9.62084 26.3647 7.72988 24.9621 6.14964C23.5595 4.56939 21.8015 3.3451 19.8328 2.57767C17.8642 1.81025 15.7414 1.52166 13.6394 1.73571C11.5373 1.94975 9.51624 2.6603 7.74272 3.80877C5.96919 4.95725 4.494 6.51078 3.43873 8.3413C2.38347 10.1718 1.77835 12.2269 1.67325 14.3372C1.56814 16.4475 1.96607 18.5526 2.83423 20.4789C3.70239 22.4052 5.01592 24.0976 6.66656 25.4166" stroke="currentColor" stroke-width="3.5" stroke-linecap="round" stroke-linejoin="round"/>
</g>
<defs>
<clipPath id="clip0_12027_1084">
<rect width="40" height="40" fill="white"/>
</clipPath>
</defs>
</svg>
