<svg width="40" height="40" viewBox="0 0 40 40" fill="none" xmlns="http://www.w3.org/2000/svg">
<g clip-path="url(#clip0_12027_1110)">
<path d="M37.6832 28.25C38.2201 26.9821 38.4346 25.601 38.3074 24.23C38.1802 22.8591 37.7153 21.541 36.9542 20.3936C36.1931 19.2462 35.1596 18.3053 33.946 17.6549C32.7325 17.0045 31.3767 16.665 29.9998 16.6666H27.8998C27.2195 13.9874 25.7233 11.5859 23.6182 9.79439C21.5132 8.00285 18.9033 6.90985 16.1498 6.66663M8.33316 8.33329C5.72995 9.77269 3.68284 12.0413 2.51747 14.7781C1.3521 17.515 1.13541 20.563 1.90187 23.4372C2.66832 26.3114 4.37391 28.8468 6.74729 30.64C9.12068 32.4332 12.0256 33.3812 14.9998 33.3333H29.9998C30.9661 33.3322 31.9248 33.163 32.8332 32.8333M1.66649 1.66663L38.3332 38.3333" stroke="currentColor" stroke-width="3.5" stroke-linecap="round" stroke-linejoin="round"/>
</g>
<defs>
<clipPath id="clip0_12027_1110">
<rect width="40" height="40" fill="white"/>
</clipPath>
</defs>
</svg>
