<svg width="16" height="16" viewBox="0 0 16 16" fill="none" xmlns="http://www.w3.org/2000/svg">
<g clip-path="url(#clip0_12027_1102)">
<path d="M15.0732 11.3C15.288 10.7928 15.3737 10.2404 15.3229 9.69199C15.272 9.14361 15.086 8.61637 14.7816 8.15742C14.4772 7.69846 14.0637 7.32209 13.5783 7.06194C13.0929 6.80179 12.5506 6.66597 11.9998 6.66663H11.1598C10.8877 5.59495 10.2892 4.63435 9.44719 3.91773C8.60517 3.20111 7.56123 2.76391 6.45983 2.66663M3.33316 3.33329C2.29188 3.90905 1.47304 4.81648 1.00689 5.91123C0.540743 7.00598 0.454066 8.22517 0.760649 9.37485C1.06723 10.5245 1.74946 11.5387 2.69882 12.256C3.64818 12.9732 4.81013 13.3525 5.99983 13.3333H11.9998C12.3863 13.3328 12.7698 13.2652 13.1332 13.1333M0.666498 0.666626L15.3332 15.3333" stroke="currentColor" stroke-width="1.6" stroke-linecap="round" stroke-linejoin="round"/>
</g>
<defs>
<clipPath id="clip0_12027_1102">
<rect width="16" height="16" fill="white"/>
</clipPath>
</defs>
</svg>
