<svg width="32" height="32" viewBox="0 0 32 32" fill="none" xmlns="http://www.w3.org/2000/svg">
<g clip-path="url(#clip0_12027_1108)">
<path d="M30.1468 22.6C30.5764 21.5858 30.748 20.4809 30.6462 19.3841C30.5444 18.2873 30.1725 17.2329 29.5637 16.315C28.9548 15.397 28.128 14.6443 27.1571 14.124C26.1863 13.6037 25.1016 13.3321 24.0002 13.3334H22.3202C21.7759 11.19 20.5789 9.26882 18.8949 7.83558C17.2108 6.40235 15.1229 5.52795 12.9202 5.33337M6.66682 6.66671C4.58425 7.81823 2.94656 9.63309 2.01427 11.8226C1.08197 14.0121 0.908621 16.4505 1.52179 18.7498C2.13495 21.0492 3.49942 23.0775 5.39813 24.5121C7.29684 25.9466 9.62074 26.705 12.0002 26.6667H24.0002C24.7732 26.6658 25.5402 26.5304 26.2668 26.2667M1.33348 1.33337L30.6668 30.6667" stroke="currentColor" stroke-width="3" stroke-linecap="round" stroke-linejoin="round"/>
</g>
<defs>
<clipPath id="clip0_12027_1108">
<rect width="32" height="32" fill="white"/>
</clipPath>
</defs>
</svg>
