<svg width="16" height="16" viewBox="0 0 16 16" fill="none" xmlns="http://www.w3.org/2000/svg">
<g clip-path="url(#clip0_12027_1141)">
<path d="M12 6.66663H11.16C10.9106 5.70062 10.3952 4.82395 9.67246 4.13622C8.94969 3.44849 8.04851 2.97729 7.07131 2.77614C6.09412 2.575 5.0801 2.65199 4.14447 2.99835C3.20884 3.34472 2.38913 3.94658 1.77847 4.73555C1.16781 5.52451 0.790693 6.46894 0.689971 7.46153C0.589249 8.45411 0.76896 9.45505 1.20868 10.3506C1.64841 11.2462 2.33051 12.0004 3.17749 12.5277C4.02446 13.0549 5.00235 13.334 6.00003 13.3333H12C12.8841 13.3333 13.7319 12.9821 14.3571 12.357C14.9822 11.7319 15.3334 10.884 15.3334 9.99996C15.3334 9.1159 14.9822 8.26806 14.3571 7.64294C13.7319 7.01782 12.8841 6.66663 12 6.66663Z" stroke="currentColor" stroke-width="1.6" stroke-linecap="round" stroke-linejoin="round"/>
</g>
<defs>
<clipPath id="clip0_12027_1141">
<rect width="16" height="16" fill="white"/>
</clipPath>
</defs>
</svg>
