<svg width="40" height="40" viewBox="0 0 40 40" fill="none" xmlns="http://www.w3.org/2000/svg">
<g clip-path="url(#clip0_12027_1136)">
<path d="M33.3332 29.3C35.0853 28.5327 36.5201 27.186 37.3967 25.486C38.2733 23.7859 38.5384 21.8361 38.1475 19.9637C37.7567 18.0913 36.7336 16.4104 35.25 15.2031C33.7664 13.9958 31.9126 13.3356 29.9999 13.3334H27.8999C27.3716 11.2876 26.3647 9.39663 24.9621 7.81638C23.5595 6.23614 21.8015 5.01184 19.8328 4.24442C17.8642 3.477 15.7414 3.18841 13.6394 3.40246C11.5373 3.6165 9.51624 4.32705 7.74272 5.47552C5.96919 6.624 4.494 8.17752 3.43873 10.008C2.38347 11.8386 1.77835 13.8937 1.67325 16.004C1.56814 18.1143 1.96607 20.2193 2.83423 22.1456C3.70239 24.072 5.01592 25.7644 6.66656 27.0834M13.3332 26.6667H13.3499M13.3332 33.3334H13.3499M19.9999 30H20.0166M19.9999 36.6667H20.0166M26.6666 26.6667H26.6832M26.6666 33.3334H26.6832" stroke="currentColor" stroke-width="3.5" stroke-linecap="round" stroke-linejoin="round"/>
</g>
<defs>
<clipPath id="clip0_12027_1136">
<rect width="40" height="40" fill="white"/>
</clipPath>
</defs>
</svg>
