<svg width="32" height="32" viewBox="0 0 32 32" fill="none" xmlns="http://www.w3.org/2000/svg">
<g clip-path="url(#clip0_12027_1147)">
<path d="M24.0001 13.3334H22.3201C21.8212 11.4014 20.7905 9.64802 19.3449 8.27257C17.8994 6.89711 16.097 5.9547 14.1426 5.55241C12.1882 5.15012 10.1602 5.30409 8.28894 5.99683C6.41768 6.68957 4.77825 7.89329 3.55694 9.47122C2.33562 11.0491 1.58139 12.938 1.37994 14.9232C1.1785 16.9083 1.53792 18.9102 2.41737 20.7013C3.29681 22.4924 4.66102 24.0009 6.35497 25.0555C8.04893 26.11 10.0047 26.6682 12.0001 26.6667H24.0001C25.7682 26.6667 27.4639 25.9643 28.7141 24.7141C29.9644 23.4638 30.6667 21.7682 30.6667 20C30.6667 18.2319 29.9644 16.5362 28.7141 15.286C27.4639 14.0358 25.7682 13.3334 24.0001 13.3334Z" stroke="currentColor" stroke-width="3" stroke-linecap="round" stroke-linejoin="round"/>
</g>
<defs>
<clipPath id="clip0_12027_1147">
<rect width="32" height="32" fill="white"/>
</clipPath>
</defs>
</svg>
