<svg width="32" height="32" viewBox="0 0 32 32" fill="none" xmlns="http://www.w3.org/2000/svg">
<g clip-path="url(#clip0_12027_1082)">
<path d="M10.6669 25.3334V28M10.6669 17.3334V20M21.3335 25.3334V28M21.3335 17.3334V20M16.0002 28V30.6667M16.0002 20V22.6667M26.6669 22.1067C28.0685 21.4928 29.2164 20.4154 29.9177 19.0554C30.619 17.6954 30.831 16.1355 30.5183 14.6376C30.2056 13.1397 29.3871 11.795 28.2003 10.8291C27.0134 9.8633 25.5304 9.33516 24.0002 9.33336H22.3202C21.8976 7.69672 21.092 6.18396 19.97 4.91976C18.8479 3.65556 17.4415 2.67613 15.8666 2.06219C14.2917 1.44825 12.5934 1.21738 10.9118 1.38862C9.23015 1.55985 7.61329 2.12829 6.19447 3.04707C4.77565 3.96585 3.59549 5.20867 2.75128 6.67309C1.90707 8.1375 1.42297 9.78159 1.33889 11.4698C1.25481 13.1581 1.57315 14.8421 2.26768 16.3832C2.96221 17.9242 4.01303 19.2781 5.33354 20.3334" stroke="currentColor" stroke-width="3" stroke-linecap="round" stroke-linejoin="round"/>
</g>
<defs>
<clipPath id="clip0_12027_1082">
<rect width="32" height="32" fill="white"/>
</clipPath>
</defs>
</svg>
