<svg width="16" height="16" viewBox="0 0 16 16" fill="none" xmlns="http://www.w3.org/2000/svg">
<g clip-path="url(#clip0_12027_1193)">
<path d="M12.0002 5.33329H12.6668C13.3741 5.33329 14.0524 5.61424 14.5524 6.11434C15.0525 6.61444 15.3335 7.29272 15.3335 7.99996C15.3335 8.7072 15.0525 9.38548 14.5524 9.88558C14.0524 10.3857 13.3741 10.6666 12.6668 10.6666H12.0002M12.0002 5.33329H1.3335V11.3333C1.3335 12.0405 1.61445 12.7188 2.11454 13.2189C2.61464 13.719 3.29292 14 4.00016 14H9.3335C10.0407 14 10.719 13.719 11.2191 13.2189C11.7192 12.7188 12.0002 12.0405 12.0002 11.3333V5.33329ZM4.00016 0.666626V2.66663M6.66683 0.666626V2.66663M9.3335 0.666626V2.66663" stroke="currentColor" stroke-width="1.6" stroke-linecap="round" stroke-linejoin="round"/>
</g>
<defs>
<clipPath id="clip0_12027_1193">
<rect width="16" height="16" fill="white"/>
</clipPath>
</defs>
</svg>
