<svg width="20" height="20" viewBox="0 0 20 20" fill="none" xmlns="http://www.w3.org/2000/svg">
<g clip-path="url(#clip0_12027_1195)">
<path d="M14.9998 6.66671H15.8332C16.7172 6.66671 17.5651 7.0179 18.1902 7.64302C18.8153 8.26814 19.1665 9.11599 19.1665 10C19.1665 10.8841 18.8153 11.7319 18.1902 12.3571C17.5651 12.9822 16.7172 13.3334 15.8332 13.3334H14.9998M14.9998 6.66671H1.6665V14.1667C1.6665 15.0508 2.01769 15.8986 2.64281 16.5237C3.26794 17.1489 4.11578 17.5 4.99984 17.5H11.6665C12.5506 17.5 13.3984 17.1489 14.0235 16.5237C14.6486 15.8986 14.9998 15.0508 14.9998 14.1667V6.66671ZM4.99984 0.833374V3.33337M8.33317 0.833374V3.33337M11.6665 0.833374V3.33337" stroke="currentColor" stroke-width="2" stroke-linecap="round" stroke-linejoin="round"/>
</g>
<defs>
<clipPath id="clip0_12027_1195">
<rect width="20" height="20" fill="white"/>
</clipPath>
</defs>
</svg>
