<svg width="40" height="40" viewBox="0 0 40 40" fill="none" xmlns="http://www.w3.org/2000/svg">
<g clip-path="url(#clip0_12027_1201)">
<path d="M30.0002 13.3333H31.6668C33.4349 13.3333 35.1306 14.0357 36.3809 15.2859C37.6311 16.5362 38.3335 18.2319 38.3335 20C38.3335 21.7681 37.6311 23.4638 36.3809 24.714C35.1306 25.9642 33.4349 26.6666 31.6668 26.6666H30.0002M30.0002 13.3333H3.3335V28.3333C3.3335 30.1014 4.03588 31.7971 5.28612 33.0473C6.53636 34.2976 8.23205 35 10.0002 35H23.3335C25.1016 35 26.7973 34.2976 28.0475 33.0473C29.2978 31.7971 30.0002 30.1014 30.0002 28.3333V13.3333ZM10.0002 1.66663V6.66663M16.6668 1.66663V6.66663M23.3335 1.66663V6.66663" stroke="currentColor" stroke-width="3.5" stroke-linecap="round" stroke-linejoin="round"/>
</g>
<defs>
<clipPath id="clip0_12027_1201">
<rect width="40" height="40" fill="white"/>
</clipPath>
</defs>
</svg>
