<svg width="32" height="32" viewBox="0 0 32 32" fill="none" xmlns="http://www.w3.org/2000/svg">
<g clip-path="url(#clip0_12027_1199)">
<path d="M23.9998 10.6667H25.3332C26.7477 10.6667 28.1042 11.2286 29.1044 12.2288C30.1046 13.229 30.6665 14.5856 30.6665 16C30.6665 17.4145 30.1046 18.7711 29.1044 19.7713C28.1042 20.7715 26.7477 21.3334 25.3332 21.3334H23.9998M23.9998 10.6667H2.6665V22.6667C2.6665 24.0812 3.22841 25.4377 4.2286 26.4379C5.2288 27.4381 6.58535 28 7.99984 28H18.6665C20.081 28 21.4375 27.4381 22.4377 26.4379C23.4379 25.4377 23.9998 24.0812 23.9998 22.6667V10.6667ZM7.99984 1.33337V5.33337M13.3332 1.33337V5.33337M18.6665 1.33337V5.33337" stroke="currentColor" stroke-width="3" stroke-linecap="round" stroke-linejoin="round"/>
</g>
<defs>
<clipPath id="clip0_12027_1199">
<rect width="32" height="32" fill="white"/>
</clipPath>
</defs>
</svg>
