<svg width="32" height="32" viewBox="0 0 32 32" fill="none" xmlns="http://www.w3.org/2000/svg">
<g clip-path="url(#clip0_12027_1368)">
<path d="M12.0002 1.33337V5.33337M20.0002 1.33337V5.33337M12.0002 26.6667V30.6667M20.0002 26.6667V30.6667M26.6668 12H30.6668M26.6668 18.6667H30.6668M1.3335 12H5.3335M1.3335 18.6667H5.3335M8.00016 5.33337H24.0002C25.4729 5.33337 26.6668 6.52728 26.6668 8.00004V24C26.6668 25.4728 25.4729 26.6667 24.0002 26.6667H8.00016C6.5274 26.6667 5.3335 25.4728 5.3335 24V8.00004C5.3335 6.52728 6.5274 5.33337 8.00016 5.33337ZM12.0002 12H20.0002V20H12.0002V12Z" stroke="currentColor" stroke-width="3" stroke-linecap="round" stroke-linejoin="round"/>
</g>
<defs>
<clipPath id="clip0_12027_1368">
<rect width="32" height="32" fill="white"/>
</clipPath>
</defs>
</svg>
