<svg width="16" height="16" viewBox="0 0 16 16" fill="none" xmlns="http://www.w3.org/2000/svg">
<g clip-path="url(#clip0_12027_1362)">
<path d="M5.99984 0.666626V2.66663M9.99984 0.666626V2.66663M5.99984 13.3333V15.3333M9.99984 13.3333V15.3333M13.3332 5.99996H15.3332M13.3332 9.33329H15.3332M0.666504 5.99996H2.6665M0.666504 9.33329H2.6665M3.99984 2.66663H11.9998C12.7362 2.66663 13.3332 3.26358 13.3332 3.99996V12C13.3332 12.7363 12.7362 13.3333 11.9998 13.3333H3.99984C3.26346 13.3333 2.6665 12.7363 2.6665 12V3.99996C2.6665 3.26358 3.26346 2.66663 3.99984 2.66663ZM5.99984 5.99996H9.99984V9.99996H5.99984V5.99996Z" stroke="currentColor" stroke-width="1.6" stroke-linecap="round" stroke-linejoin="round"/>
</g>
<defs>
<clipPath id="clip0_12027_1362">
<rect width="16" height="16" fill="white"/>
</clipPath>
</defs>
</svg>
