<svg width="20" height="20" viewBox="0 0 20 20" fill="none" xmlns="http://www.w3.org/2000/svg">
<g clip-path="url(#clip0_12027_1364)">
<path d="M7.50016 0.833374V3.33337M12.5002 0.833374V3.33337M7.50016 16.6667V19.1667M12.5002 16.6667V19.1667M16.6668 7.50004H19.1668M16.6668 11.6667H19.1668M0.833496 7.50004H3.3335M0.833496 11.6667H3.3335M5.00016 3.33337H15.0002C15.9206 3.33337 16.6668 4.07957 16.6668 5.00004V15C16.6668 15.9205 15.9206 16.6667 15.0002 16.6667H5.00016C4.07969 16.6667 3.3335 15.9205 3.3335 15V5.00004C3.3335 4.07957 4.07969 3.33337 5.00016 3.33337ZM7.50016 7.50004H12.5002V12.5H7.50016V7.50004Z" stroke="currentColor" stroke-width="2" stroke-linecap="round" stroke-linejoin="round"/>
</g>
<defs>
<clipPath id="clip0_12027_1364">
<rect width="20" height="20" fill="white"/>
</clipPath>
</defs>
</svg>
