<svg width="40" height="40" viewBox="0 0 40 40" fill="none" xmlns="http://www.w3.org/2000/svg">
<g clip-path="url(#clip0_12027_1370)">
<path d="M14.9998 1.66663V6.66663M24.9998 1.66663V6.66663M14.9998 33.3333V38.3333M24.9998 33.3333V38.3333M33.3332 15H38.3332M33.3332 23.3333H38.3332M1.6665 15H6.6665M1.6665 23.3333H6.6665M9.99984 6.66663H29.9998C31.8408 6.66663 33.3332 8.15901 33.3332 9.99996V30C33.3332 31.8409 31.8408 33.3333 29.9998 33.3333H9.99984C8.15889 33.3333 6.6665 31.8409 6.6665 30V9.99996C6.6665 8.15901 8.15889 6.66663 9.99984 6.66663ZM14.9998 15H24.9998V25H14.9998V15Z" stroke="currentColor" stroke-width="3.5" stroke-linecap="round" stroke-linejoin="round"/>
</g>
<defs>
<clipPath id="clip0_12027_1370">
<rect width="40" height="40" fill="white"/>
</clipPath>
</defs>
</svg>
