<svg width="32" height="32" viewBox="0 0 32 32" fill="none" xmlns="http://www.w3.org/2000/svg">
<path d="M28 6.66675C28 8.87589 22.6274 10.6667 16 10.6667C9.37258 10.6667 4 8.87589 4 6.66675M28 6.66675C28 4.45761 22.6274 2.66675 16 2.66675C9.37258 2.66675 4 4.45761 4 6.66675M28 6.66675V25.3334C28 27.5467 22.6667 29.3334 16 29.3334C9.33333 29.3334 4 27.5467 4 25.3334V6.66675M28 16.0001C28 18.2134 22.6667 20.0001 16 20.0001C9.33333 20.0001 4 18.2134 4 16.0001" stroke="currentColor" stroke-width="3" stroke-linecap="round" stroke-linejoin="round"/>
</svg>
