<svg width="40" height="40" viewBox="0 0 40 40" fill="none" xmlns="http://www.w3.org/2000/svg">
<path d="M35 8.33325C35 11.0947 28.2843 13.3333 20 13.3333C11.7157 13.3333 5 11.0947 5 8.33325M35 8.33325C35 5.57183 28.2843 3.33325 20 3.33325C11.7157 3.33325 5 5.57183 5 8.33325M35 8.33325V31.6666C35 34.4333 28.3333 36.6666 20 36.6666C11.6667 36.6666 5 34.4333 5 31.6666V8.33325M35 19.9999C35 22.7666 28.3333 24.9999 20 24.9999C11.6667 24.9999 5 22.7666 5 19.9999" stroke="currentColor" stroke-width="3.5" stroke-linecap="round" stroke-linejoin="round"/>
</svg>
