<svg width="40" height="40" viewBox="0 0 40 40" fill="none" xmlns="http://www.w3.org/2000/svg">
<path d="M13.3335 19.9999H26.6668M21.6668 26.6666C21.6668 27.5871 20.9206 28.3333 20.0002 28.3333C19.0797 28.3333 18.3335 27.5871 18.3335 26.6666C18.3335 25.7461 19.0797 24.9999 20.0002 24.9999C20.9206 24.9999 21.6668 25.7461 21.6668 26.6666ZM21.6668 13.3333C21.6668 14.2537 20.9206 14.9999 20.0002 14.9999C19.0797 14.9999 18.3335 14.2537 18.3335 13.3333C18.3335 12.4128 19.0797 11.6666 20.0002 11.6666C20.9206 11.6666 21.6668 12.4128 21.6668 13.3333ZM36.6668 19.9999C36.6668 29.2047 29.2049 36.6666 20.0002 36.6666C10.7954 36.6666 3.3335 29.2047 3.3335 19.9999C3.3335 10.7952 10.7954 3.33325 20.0002 3.33325C29.2049 3.33325 36.6668 10.7952 36.6668 19.9999Z" stroke="currentColor" stroke-width="3.5" stroke-linecap="round" stroke-linejoin="round"/>
</svg>
