<svg width="40" height="40" viewBox="0 0 40 40" fill="none" xmlns="http://www.w3.org/2000/svg">
<path d="M13.3333 20H26.6667M8.33333 5H31.6667C33.5076 5 35 6.49238 35 8.33333V31.6667C35 33.5076 33.5076 35 31.6667 35H8.33333C6.49238 35 5 33.5076 5 31.6667V8.33333C5 6.49238 6.49238 5 8.33333 5ZM21.6667 26.6667C21.6667 27.5871 20.9205 28.3333 20 28.3333C19.0795 28.3333 18.3333 27.5871 18.3333 26.6667C18.3333 25.7462 19.0795 25 20 25C20.9205 25 21.6667 25.7462 21.6667 26.6667ZM21.6667 13.3333C21.6667 14.2538 20.9205 15 20 15C19.0795 15 18.3333 14.2538 18.3333 13.3333C18.3333 12.4129 19.0795 11.6667 20 11.6667C20.9205 11.6667 21.6667 12.4129 21.6667 13.3333Z" stroke="currentColor" stroke-width="3.5" stroke-linecap="round" stroke-linejoin="round"/>
</svg>
