<svg width="16" height="16" viewBox="0 0 16 16" fill="none" xmlns="http://www.w3.org/2000/svg">
<g clip-path="url(#clip0_12027_1453)">
<path d="M5.3335 7.99992H10.6668M8.66683 10.6666C8.66683 11.0348 8.36835 11.3333 8.00016 11.3333C7.63197 11.3333 7.3335 11.0348 7.3335 10.6666C7.3335 10.2984 7.63197 9.99992 8.00016 9.99992C8.36835 9.99992 8.66683 10.2984 8.66683 10.6666ZM8.66683 5.33325C8.66683 5.70144 8.36835 5.99992 8.00016 5.99992C7.63197 5.99992 7.3335 5.70144 7.3335 5.33325C7.3335 4.96506 7.63197 4.66659 8.00016 4.66659C8.36835 4.66659 8.66683 4.96506 8.66683 5.33325ZM14.6668 7.99992C14.6668 11.6818 11.6821 14.6666 8.00016 14.6666C4.31826 14.6666 1.3335 11.6818 1.3335 7.99992C1.3335 4.31802 4.31826 1.33325 8.00016 1.33325C11.6821 1.33325 14.6668 4.31802 14.6668 7.99992Z" stroke="currentColor" stroke-width="1.6" stroke-linecap="round" stroke-linejoin="round"/>
</g>
<defs>
<clipPath id="clip0_12027_1453">
<rect width="16" height="16" fill="white"/>
</clipPath>
</defs>
</svg>
