<svg width="32" height="32" viewBox="0 0 32 32" fill="none" xmlns="http://www.w3.org/2000/svg">
<path d="M10.6665 16.0001H21.3332M17.3332 21.3334C17.3332 22.0698 16.7362 22.6667 15.9998 22.6667C15.2635 22.6667 14.6665 22.0698 14.6665 21.3334C14.6665 20.597 15.2635 20.0001 15.9998 20.0001C16.7362 20.0001 17.3332 20.597 17.3332 21.3334ZM17.3332 10.6667C17.3332 11.4031 16.7362 12.0001 15.9998 12.0001C15.2635 12.0001 14.6665 11.4031 14.6665 10.6667C14.6665 9.93037 15.2635 9.33342 15.9998 9.33342C16.7362 9.33342 17.3332 9.93037 17.3332 10.6667ZM29.3332 16.0001C29.3332 23.3639 23.3636 29.3334 15.9998 29.3334C8.63604 29.3334 2.6665 23.3639 2.6665 16.0001C2.6665 8.63628 8.63604 2.66675 15.9998 2.66675C23.3636 2.66675 29.3332 8.63628 29.3332 16.0001Z" stroke="currentColor" stroke-width="3" stroke-linecap="round" stroke-linejoin="round"/>
</svg>
