<svg width="32" height="32" viewBox="0 0 32 32" fill="none" xmlns="http://www.w3.org/2000/svg">
<g clip-path="url(#clip0_12027_1498)">
<path d="M16 1.33325V30.6666M22.6667 6.66659H12.6667C11.429 6.66659 10.242 7.15825 9.36684 8.03342C8.49167 8.90859 8 10.0956 8 11.3333C8 12.5709 8.49167 13.7579 9.36684 14.6331C10.242 15.5083 11.429 15.9999 12.6667 15.9999H19.3333C20.571 15.9999 21.758 16.4916 22.6332 17.3668C23.5083 18.2419 24 19.4289 24 20.6666C24 21.9043 23.5083 23.0912 22.6332 23.9664C21.758 24.8416 20.571 25.3333 19.3333 25.3333H8" stroke="currentColor" stroke-width="3" stroke-linecap="round" stroke-linejoin="round"/>
</g>
<defs>
<clipPath id="clip0_12027_1498">
<rect width="32" height="32" fill="white"/>
</clipPath>
</defs>
</svg>
