<svg width="40" height="40" viewBox="0 0 40 40" fill="none" xmlns="http://www.w3.org/2000/svg">
<g clip-path="url(#clip0_12027_1500)">
<path d="M20 1.66675V38.3334M28.3333 8.33342H15.8333C14.2862 8.33342 12.8025 8.948 11.7085 10.042C10.6146 11.1359 10 12.6197 10 14.1667C10 15.7138 10.6146 17.1976 11.7085 18.2915C12.8025 19.3855 14.2862 20.0001 15.8333 20.0001H24.1667C25.7138 20.0001 27.1975 20.6147 28.2915 21.7086C29.3854 22.8026 30 24.2863 30 25.8334C30 27.3805 29.3854 28.8642 28.2915 29.9582C27.1975 31.0522 25.7138 31.6667 24.1667 31.6667H10" stroke="currentColor" stroke-width="3.5" stroke-linecap="round" stroke-linejoin="round"/>
</g>
<defs>
<clipPath id="clip0_12027_1500">
<rect width="40" height="40" fill="white"/>
</clipPath>
</defs>
</svg>
