<svg width="40" height="40" viewBox="0 0 40 40" fill="none" xmlns="http://www.w3.org/2000/svg">
<g clip-path="url(#clip0_12027_1513)">
<path d="M26.6666 28.3332L19.9999 34.9999L13.3332 28.3332M19.9999 34.9999V19.9999M34.7999 30.1499C36.2489 29.131 37.3355 27.6768 37.902 25.9985C38.4686 24.3201 38.4856 22.5049 37.9505 20.8163C37.4155 19.1276 36.3563 17.6534 34.9267 16.6075C33.497 15.5616 31.7713 14.9985 29.9999 14.9999H27.8999C27.3986 13.0463 26.4607 11.232 25.1568 9.69336C23.8528 8.15474 22.2168 6.93199 20.3719 6.11714C18.527 5.3023 16.5213 4.9166 14.5058 4.98908C12.4902 5.06156 10.5174 5.59034 8.73581 6.5356C6.95421 7.48086 5.41026 8.81797 4.2202 10.4463C3.03014 12.0746 2.22497 13.9516 1.86532 15.9361C1.50567 17.9206 1.60091 19.9609 2.14385 21.9033C2.6868 23.8456 3.66332 25.6395 4.99989 27.1499" stroke="currentColor" stroke-width="3.5" stroke-linecap="round" stroke-linejoin="round"/>
</g>
<defs>
<clipPath id="clip0_12027_1513">
<rect width="40" height="40" fill="white"/>
</clipPath>
</defs>
</svg>
