<svg width="48" height="48" viewBox="0 0 48 48" fill="none" xmlns="http://www.w3.org/2000/svg">
<g clip-path="url(#clip0_12027_1503)">
<path d="M32.0001 34.0001L24.0001 42.0001L16.0001 34.0001M24.0001 42.0001V24.0001M41.7601 36.1801C43.4989 34.9574 44.8028 33.2124 45.4827 31.1984C46.1625 29.1844 46.1829 27.0061 45.5409 24.9798C44.8989 22.9534 43.6278 21.1843 41.9123 19.9292C40.1967 18.6742 38.1258 17.9984 36.0001 18.0001H33.4801C32.8786 15.6559 31.7531 13.4786 30.1883 11.6323C28.6236 9.78594 26.6604 8.31863 24.4465 7.34082C22.2327 6.363 19.8258 5.90017 17.4072 5.98714C14.9885 6.07412 12.6211 6.70865 10.4832 7.84296C8.3453 8.97727 6.49256 10.5818 5.06449 12.5358C3.63641 14.4897 2.67021 16.7422 2.23863 19.1236C1.80705 21.505 1.92133 23.9533 2.57287 26.2842C3.22441 28.615 4.39623 30.7677 6.00011 32.5801" stroke="currentColor" stroke-width="4" stroke-linecap="round" stroke-linejoin="round"/>
</g>
<defs>
<clipPath id="clip0_12027_1503">
<rect width="48" height="48" fill="white"/>
</clipPath>
</defs>
</svg>
