<svg width="20" height="20" viewBox="0 0 20 20" fill="none" xmlns="http://www.w3.org/2000/svg">
<g clip-path="url(#clip0_12027_1533)">
<path d="M7.13341 2.29175C10.7751 7.31675 12.1501 10.1417 13.8251 17.0584M15.9417 4.24175C12.8417 7.86675 8.49175 8.95841 1.87508 9.11675M18.1251 10.7001C15.2084 9.92508 12.6001 10.0167 10.6751 10.7001C8.52508 11.4667 6.50008 13.0834 4.47508 15.9667M18.3334 10.0001C18.3334 14.6025 14.6025 18.3334 10.0001 18.3334C5.39771 18.3334 1.66675 14.6025 1.66675 10.0001C1.66675 5.39771 5.39771 1.66675 10.0001 1.66675C14.6025 1.66675 18.3334 5.39771 18.3334 10.0001Z" stroke="currentColor" stroke-width="2" stroke-linecap="round" stroke-linejoin="round"/>
</g>
<defs>
<clipPath id="clip0_12027_1533">
<rect width="20" height="20" fill="white"/>
</clipPath>
</defs>
</svg>
