<svg width="40" height="40" viewBox="0 0 40 40" fill="none" xmlns="http://www.w3.org/2000/svg">
<path d="M25.3335 8.0001C25.7712 7.56236 26.2909 7.21512 26.8628 6.97822C27.4348 6.74132 28.0478 6.61938 28.6668 6.61938C29.2859 6.61938 29.8989 6.74132 30.4708 6.97822C31.0427 7.21512 31.5624 7.56236 32.0002 8.0001C32.4379 8.43784 32.7851 8.95751 33.022 9.52944C33.2589 10.1014 33.3809 10.7144 33.3809 11.3334C33.3809 11.9525 33.2589 12.5655 33.022 13.1374C32.7851 13.7094 32.4379 14.229 32.0002 14.6668L15.5002 31.1668L6.3335 33.6668L8.8335 24.5001L25.3335 8.0001Z" stroke="currentColor" stroke-width="3.5" stroke-linecap="round" stroke-linejoin="round"/>
</svg>
