<svg width="32" height="32" viewBox="0 0 32 32" fill="none" xmlns="http://www.w3.org/2000/svg">
<path d="M20.6665 6.00008C21.0167 5.64989 21.4324 5.3721 21.89 5.18258C22.3475 4.99305 22.8379 4.89551 23.3332 4.89551C23.8284 4.89551 24.3188 4.99305 24.7764 5.18258C25.2339 5.3721 25.6496 5.64989 25.9998 6.00008C26.35 6.35027 26.6278 6.76601 26.8173 7.22355C27.0069 7.6811 27.1044 8.1715 27.1044 8.66674C27.1044 9.16199 27.0069 9.65239 26.8173 10.1099C26.6278 10.5675 26.35 10.9832 25.9998 11.3334L11.9998 25.3334L4.6665 27.3334L6.6665 20.0001L20.6665 6.00008Z" stroke="currentColor" stroke-width="3" stroke-linecap="round" stroke-linejoin="round"/>
</svg>
