<svg width="16" height="16" viewBox="0 0 16 16" fill="none" xmlns="http://www.w3.org/2000/svg">
<path d="M10.3335 3.00004C10.5086 2.82494 10.7165 2.68605 10.9452 2.59129C11.174 2.49653 11.4192 2.44775 11.6668 2.44775C11.9145 2.44775 12.1596 2.49653 12.3884 2.59129C12.6172 2.68605 12.8251 2.82494 13.0002 3.00004C13.1753 3.17513 13.3142 3.383 13.4089 3.61178C13.5037 3.84055 13.5524 4.08575 13.5524 4.33337C13.5524 4.58099 13.5037 4.82619 13.4089 5.05497C13.3142 5.28374 13.1753 5.49161 13.0002 5.66671L6.00016 12.6667L2.3335 13.6667L3.3335 10L10.3335 3.00004Z" stroke="currentColor" stroke-width="1.6" stroke-linecap="round" stroke-linejoin="round"/>
</svg>
