<svg width="20" height="20" viewBox="0 0 20 20" fill="none" xmlns="http://www.w3.org/2000/svg">
<path d="M12.1665 4.49993C12.3854 4.28106 12.6452 4.10744 12.9312 3.98899C13.2171 3.87054 13.5236 3.80957 13.8332 3.80957C14.1427 3.80957 14.4492 3.87054 14.7352 3.98899C15.0211 4.10744 15.281 4.28106 15.4998 4.49993C15.7187 4.7188 15.8923 4.97863 16.0108 5.2646C16.1292 5.55057 16.1902 5.85706 16.1902 6.16659C16.1902 6.47612 16.1292 6.78262 16.0108 7.06859C15.8923 7.35455 15.7187 7.61439 15.4998 7.83326L8.24984 15.0833L3.6665 16.3333L4.9165 11.7499L12.1665 4.49993Z" stroke="currentColor" stroke-width="2" stroke-linecap="round" stroke-linejoin="round"/>
</svg>
