<svg width="40" height="40" viewBox="0 0 40 40" fill="none" xmlns="http://www.w3.org/2000/svg">
<path d="M18.3335 6.66664H6.66683C5.78277 6.66664 4.93493 7.01783 4.30981 7.64295C3.68469 8.26807 3.3335 9.11592 3.3335 9.99997V33.3333C3.3335 34.2174 3.68469 35.0652 4.30981 35.6903C4.93493 36.3154 5.78277 36.6666 6.66683 36.6666H30.0002C30.8842 36.6666 31.7321 36.3154 32.3572 35.6903C32.9823 35.0652 33.3335 34.2174 33.3335 33.3333V21.6666M30.8335 4.16664C31.4965 3.5036 32.3958 3.1311 33.3335 3.1311C34.2712 3.1311 35.1705 3.5036 35.8335 4.16664C36.4965 4.82968 36.869 5.72896 36.869 6.66664C36.869 7.60432 36.4965 8.5036 35.8335 9.16664L20.0002 25L13.3335 26.6666L15.0002 20L30.8335 4.16664Z" stroke="currentColor" stroke-width="3.5" stroke-linecap="round" stroke-linejoin="round"/>
</svg>
