<svg width="32" height="32" viewBox="0 0 32 32" fill="none" xmlns="http://www.w3.org/2000/svg">
<g clip-path="url(#clip0_12027_1615)">
<path d="M23.9199 23.9199C21.6407 25.6573 18.8654 26.6197 15.9999 26.6666C6.66658 26.6666 1.33325 15.9999 1.33325 15.9999C2.99177 12.9091 5.2921 10.2087 8.07992 8.07992M13.1999 5.65325C14.1177 5.43842 15.0573 5.33104 15.9999 5.33325C25.3333 5.33325 30.6666 15.9999 30.6666 15.9999C29.8572 17.5141 28.892 18.9396 27.7866 20.2533M18.8266 18.8266C18.4604 19.2196 18.0188 19.5348 17.5281 19.7534C17.0375 19.972 16.5078 20.0896 15.9707 20.0991C15.4336 20.1085 14.9001 20.0098 14.4021 19.8086C13.904 19.6074 13.4515 19.308 13.0717 18.9281C12.6919 18.5483 12.3924 18.0958 12.1913 17.5978C11.9901 17.0997 11.8913 16.5662 11.9008 16.0291C11.9102 15.492 12.0278 14.9624 12.2464 14.4717C12.465 13.9811 12.7803 13.5394 13.1733 13.1733M1.33325 1.33325L30.6666 30.6666" stroke="currentColor" stroke-width="3" stroke-linecap="round" stroke-linejoin="round"/>
</g>
<defs>
<clipPath id="clip0_12027_1615">
<rect width="32" height="32" fill="white"/>
</clipPath>
</defs>
</svg>
