<svg width="16" height="16" viewBox="0 0 16 16" fill="none" xmlns="http://www.w3.org/2000/svg">
<g clip-path="url(#clip0_12027_1609)">
<path d="M11.96 11.9601C10.8204 12.8287 9.4327 13.31 7.99996 13.3334C3.33329 13.3334 0.666626 8.00008 0.666626 8.00008C1.49589 6.45468 2.64605 5.10449 4.03996 4.04008M6.59996 2.82675C7.05885 2.71933 7.52867 2.66564 7.99996 2.66675C12.6666 2.66675 15.3333 8.00008 15.3333 8.00008C14.9286 8.75715 14.446 9.4699 13.8933 10.1267M9.41329 9.41341C9.23019 9.60991 9.00939 9.76752 8.76406 9.87683C8.51873 9.98614 8.25389 10.0449 7.98535 10.0497C7.71681 10.0544 7.45007 10.005 7.20103 9.90441C6.952 9.80382 6.72577 9.6541 6.53586 9.46418C6.34594 9.27427 6.19622 9.04804 6.09563 8.79901C5.99504 8.54997 5.94564 8.28323 5.95038 8.01469C5.95512 7.74615 6.0139 7.48131 6.12321 7.23598C6.23252 6.99065 6.39013 6.76985 6.58663 6.58675M0.666626 0.666748L15.3333 15.3334" stroke="currentColor" stroke-width="1.6" stroke-linecap="round" stroke-linejoin="round"/>
</g>
<defs>
<clipPath id="clip0_12027_1609">
<rect width="16" height="16" fill="white"/>
</clipPath>
</defs>
</svg>
