<svg width="40" height="40" viewBox="0 0 40 40" fill="none" xmlns="http://www.w3.org/2000/svg">
<g clip-path="url(#clip0_12027_1617)">
<path d="M29.9001 29.9001C27.0511 32.0718 23.5819 33.2749 20.0001 33.3334C8.33341 33.3334 1.66675 20.0001 1.66675 20.0001C3.7399 16.1366 6.61531 12.7611 10.1001 10.1001M16.5001 7.06675C17.6473 6.79821 18.8219 6.66398 20.0001 6.66675C31.6667 6.66675 38.3334 20.0001 38.3334 20.0001C37.3217 21.8928 36.1152 23.6746 34.7334 25.3167M23.5334 23.5334C23.0757 24.0247 22.5237 24.4187 21.9103 24.692C21.297 24.9652 20.6349 25.1122 19.9636 25.124C19.2922 25.1359 18.6254 25.0124 18.0028 24.7609C17.3802 24.5094 16.8146 24.1351 16.3398 23.6603C15.865 23.1855 15.4907 22.62 15.2393 21.9974C14.9878 21.3748 14.8643 20.7079 14.8761 20.0366C14.888 19.3652 15.0349 18.7032 15.3082 18.0898C15.5815 17.4765 15.9755 16.9245 16.4667 16.4667M1.66675 1.66675L38.3334 38.3334" stroke="currentColor" stroke-width="3.5" stroke-linecap="round" stroke-linejoin="round"/>
</g>
<defs>
<clipPath id="clip0_12027_1617">
<rect width="40" height="40" fill="white"/>
</clipPath>
</defs>
</svg>
