<svg width="20" height="20" viewBox="0 0 20 20" fill="none" xmlns="http://www.w3.org/2000/svg">
<g clip-path="url(#clip0_12027_1676)">
<path d="M9.99984 1.66675H7.08317C6.30962 1.66675 5.56776 1.97404 5.02078 2.52102C4.47379 3.068 4.1665 3.80987 4.1665 4.58341C4.1665 5.35696 4.47379 6.09883 5.02078 6.64581C5.56776 7.19279 6.30962 7.50008 7.08317 7.50008M9.99984 1.66675V7.50008M9.99984 1.66675H12.9165C13.2995 1.66675 13.6788 1.74219 14.0327 1.88877C14.3865 2.03534 14.7081 2.25018 14.9789 2.52102C15.2497 2.79186 15.4646 3.11339 15.6112 3.46725C15.7577 3.82112 15.8332 4.20039 15.8332 4.58341C15.8332 4.96644 15.7577 5.34571 15.6112 5.69957C15.4646 6.05344 15.2497 6.37497 14.9789 6.64581C14.7081 6.91665 14.3865 7.13149 14.0327 7.27806C13.6788 7.42464 13.2995 7.50008 12.9165 7.50008M9.99984 7.50008H7.08317M9.99984 7.50008H12.9165M9.99984 7.50008V13.3334M7.08317 7.50008C6.30962 7.50008 5.56776 7.80737 5.02078 8.35435C4.47379 8.90133 4.1665 9.6432 4.1665 10.4167C4.1665 11.1903 4.47379 11.9322 5.02078 12.4791C5.56776 13.0261 6.30962 13.3334 7.08317 13.3334M12.9165 7.50008C12.5335 7.50008 12.1542 7.57552 11.8003 7.7221C11.4465 7.86868 11.1249 8.08352 10.8541 8.35435C10.5833 8.62519 10.3684 8.94672 10.2219 9.30059C10.0753 9.65445 9.99984 10.0337 9.99984 10.4167C9.99984 10.7998 10.0753 11.179 10.2219 11.5329C10.3684 11.8868 10.5833 12.2083 10.8541 12.4791C11.1249 12.75 11.4465 12.9648 11.8003 13.1114C12.1542 13.258 12.5335 13.3334 12.9165 13.3334C13.2995 13.3334 13.6788 13.258 14.0327 13.1114C14.3865 12.9648 14.7081 12.75 14.9789 12.4791C15.2497 12.2083 15.4646 11.8868 15.6112 11.5329C15.7577 11.179 15.8332 10.7998 15.8332 10.4167C15.8332 10.0337 15.7577 9.65445 15.6112 9.30059C15.4646 8.94672 15.2497 8.62519 14.9789 8.35435C14.7081 8.08352 14.3865 7.86868 14.0327 7.7221C13.6788 7.57552 13.2995 7.50008 12.9165 7.50008ZM7.08317 13.3334C6.30962 13.3334 5.56776 13.6407 5.02078 14.1877C4.47379 14.7347 4.1665 15.4765 4.1665 16.2501C4.1665 17.0236 4.47379 17.7655 5.02078 18.3125C5.56776 18.8595 6.30962 19.1667 7.08317 19.1667C7.85672 19.1667 8.59858 18.8595 9.14557 18.3125C9.69255 17.7655 9.99984 17.0236 9.99984 16.2501V13.3334M7.08317 13.3334H9.99984" stroke="currentColor" stroke-width="2" stroke-linecap="round" stroke-linejoin="round"/>
</g>
<defs>
<clipPath id="clip0_12027_1676">
<rect width="20" height="20" fill="white"/>
</clipPath>
</defs>
</svg>
