<svg width="32" height="32" viewBox="0 0 32 32" fill="none" xmlns="http://www.w3.org/2000/svg">
<g clip-path="url(#clip0_12027_1680)">
<path d="M15.9998 2.66675H11.3332C10.0955 2.66675 8.90851 3.15841 8.03334 4.03358C7.15817 4.90875 6.6665 6.09574 6.6665 7.33342C6.6665 8.57109 7.15817 9.75808 8.03334 10.6332C8.90851 11.5084 10.0955 12.0001 11.3332 12.0001M15.9998 2.66675V12.0001M15.9998 2.66675H20.6665C21.2793 2.66675 21.8862 2.78745 22.4524 3.02198C23.0185 3.2565 23.533 3.60024 23.9663 4.03358C24.3997 4.46692 24.7434 4.98137 24.9779 5.54756C25.2125 6.11374 25.3332 6.72058 25.3332 7.33342C25.3332 7.94625 25.2125 8.55309 24.9779 9.11927C24.7434 9.68546 24.3997 10.1999 23.9663 10.6332C23.533 11.0666 23.0185 11.4103 22.4524 11.6449C21.8862 11.8794 21.2793 12.0001 20.6665 12.0001M15.9998 12.0001H11.3332M15.9998 12.0001H20.6665M15.9998 12.0001V21.3334M11.3332 12.0001C10.0955 12.0001 8.90851 12.4917 8.03334 13.3669C7.15817 14.2421 6.6665 15.4291 6.6665 16.6667C6.6665 17.9044 7.15817 19.0914 8.03334 19.9666C8.90851 20.8417 10.0955 21.3334 11.3332 21.3334M20.6665 12.0001C20.0537 12.0001 19.4468 12.1208 18.8806 12.3553C18.3145 12.5898 17.8 12.9336 17.3667 13.3669C16.9333 13.8003 16.5896 14.3147 16.3551 14.8809C16.1205 15.4471 15.9998 16.0539 15.9998 16.6667C15.9998 17.2796 16.1205 17.8864 16.3551 18.4526C16.5896 19.0188 16.9333 19.5332 17.3667 19.9666C17.8 20.3999 18.3145 20.7437 18.8806 20.9782C19.4468 21.2127 20.0537 21.3334 20.6665 21.3334C21.2793 21.3334 21.8862 21.2127 22.4524 20.9782C23.0185 20.7437 23.533 20.3999 23.9663 19.9666C24.3997 19.5332 24.7434 19.0188 24.9779 18.4526C25.2125 17.8864 25.3332 17.2796 25.3332 16.6667C25.3332 16.0539 25.2125 15.4471 24.9779 14.8809C24.7434 14.3147 24.3997 13.8003 23.9663 13.3669C23.533 12.9336 23.0185 12.5898 22.4524 12.3553C21.8862 12.1208 21.2793 12.0001 20.6665 12.0001ZM11.3332 21.3334C10.0955 21.3334 8.90851 21.8251 8.03334 22.7003C7.15817 23.5754 6.6665 24.7624 6.6665 26.0001C6.6665 27.2378 7.15817 28.4247 8.03334 29.2999C8.90851 30.1751 10.0955 30.6667 11.3332 30.6667C12.5708 30.6667 13.7578 30.1751 14.633 29.2999C15.5082 28.4247 15.9998 27.2378 15.9998 26.0001V21.3334M11.3332 21.3334H15.9998" stroke="currentColor" stroke-width="3" stroke-linecap="round" stroke-linejoin="round"/>
</g>
<defs>
<clipPath id="clip0_12027_1680">
<rect width="32" height="32" fill="white"/>
</clipPath>
</defs>
</svg>
