<svg width="16" height="16" viewBox="0 0 16 16" fill="none" xmlns="http://www.w3.org/2000/svg">
<g clip-path="url(#clip0_12027_1674)">
<path d="M8.00016 1.33325H5.66683C5.04799 1.33325 4.4545 1.57908 4.01691 2.01667C3.57933 2.45425 3.3335 3.04775 3.3335 3.66659C3.3335 4.28542 3.57933 4.87892 4.01691 5.3165C4.4545 5.75409 5.04799 5.99992 5.66683 5.99992M8.00016 1.33325V5.99992M8.00016 1.33325H10.3335C10.6399 1.33325 10.9433 1.39361 11.2264 1.51087C11.5095 1.62813 11.7667 1.8 11.9834 2.01667C12.2001 2.23334 12.372 2.49056 12.4892 2.77366C12.6065 3.05675 12.6668 3.36017 12.6668 3.66659C12.6668 3.973 12.6065 4.27642 12.4892 4.55951C12.372 4.84261 12.2001 5.09983 11.9834 5.3165C11.7667 5.53317 11.5095 5.70504 11.2264 5.8223C10.9433 5.93957 10.6399 5.99992 10.3335 5.99992M8.00016 5.99992H5.66683M8.00016 5.99992H10.3335M8.00016 5.99992V10.6666M5.66683 5.99992C5.04799 5.99992 4.4545 6.24575 4.01691 6.68334C3.57933 7.12092 3.3335 7.71441 3.3335 8.33325C3.3335 8.95209 3.57933 9.54558 4.01691 9.98317C4.4545 10.4208 5.04799 10.6666 5.66683 10.6666M10.3335 5.99992C10.0271 5.99992 9.72366 6.06027 9.44057 6.17753C9.15748 6.29479 8.90025 6.46667 8.68358 6.68334C8.46691 6.90001 8.29504 7.15723 8.17778 7.44032C8.06052 7.72342 8.00016 8.02683 8.00016 8.33325C8.00016 8.63967 8.06052 8.94309 8.17778 9.22618C8.29504 9.50927 8.46691 9.7665 8.68358 9.98317C8.90025 10.1998 9.15748 10.3717 9.44057 10.489C9.72366 10.6062 10.0271 10.6666 10.3335 10.6666C10.6399 10.6666 10.9433 10.6062 11.2264 10.489C11.5095 10.3717 11.7667 10.1998 11.9834 9.98317C12.2001 9.7665 12.372 9.50927 12.4892 9.22618C12.6065 8.94309 12.6668 8.63967 12.6668 8.33325C12.6668 8.02683 12.6065 7.72342 12.4892 7.44032C12.372 7.15723 12.2001 6.90001 11.9834 6.68334C11.7667 6.46667 11.5095 6.29479 11.2264 6.17753C10.9433 6.06027 10.6399 5.99992 10.3335 5.99992ZM5.66683 10.6666C5.04799 10.6666 4.4545 10.9124 4.01691 11.35C3.57933 11.7876 3.3335 12.3811 3.3335 12.9999C3.3335 13.6188 3.57933 14.2123 4.01691 14.6498C4.4545 15.0874 5.04799 15.3333 5.66683 15.3333C6.28567 15.3333 6.87916 15.0874 7.31675 14.6498C7.75433 14.2123 8.00016 13.6188 8.00016 12.9999V10.6666M5.66683 10.6666H8.00016" stroke="currentColor" stroke-width="1.6" stroke-linecap="round" stroke-linejoin="round"/>
</g>
<defs>
<clipPath id="clip0_12027_1674">
<rect width="16" height="16" fill="white"/>
</clipPath>
</defs>
</svg>
