<svg width="40" height="40" viewBox="0 0 40 40" fill="none" xmlns="http://www.w3.org/2000/svg">
<g clip-path="url(#clip0_12027_1682)">
<path d="M20.0002 3.33325H14.1668C12.6197 3.33325 11.136 3.94783 10.042 5.0418C8.94808 6.13576 8.3335 7.61949 8.3335 9.16658C8.3335 10.7137 8.94808 12.1974 10.042 13.2914C11.136 14.3853 12.6197 14.9999 14.1668 14.9999M20.0002 3.33325V14.9999M20.0002 3.33325H25.8335C26.5995 3.33325 27.3581 3.48414 28.0658 3.77729C28.7735 4.07044 29.4166 4.50012 29.9583 5.0418C30.5 5.58347 30.9296 6.22653 31.2228 6.93426C31.5159 7.642 31.6668 8.40054 31.6668 9.16658C31.6668 9.93263 31.5159 10.6912 31.2228 11.3989C30.9296 12.1066 30.5 12.7497 29.9583 13.2914C29.4166 13.833 28.7735 14.2627 28.0658 14.5559C27.3581 14.849 26.5995 14.9999 25.8335 14.9999M20.0002 14.9999H14.1668M20.0002 14.9999H25.8335M20.0002 14.9999V26.6666M14.1668 14.9999C12.6197 14.9999 11.136 15.6145 10.042 16.7085C8.94808 17.8024 8.3335 19.2862 8.3335 20.8333C8.3335 22.3803 8.94808 23.8641 10.042 24.958C11.136 26.052 12.6197 26.6666 14.1668 26.6666M25.8335 14.9999C25.0675 14.9999 24.3089 15.1508 23.6012 15.444C22.8934 15.7371 22.2504 16.1668 21.7087 16.7085C21.167 17.2501 20.7374 17.8932 20.4442 18.6009C20.151 19.3087 20.0002 20.0672 20.0002 20.8333C20.0002 21.5993 20.151 22.3578 20.4442 23.0656C20.7374 23.7733 21.167 24.4164 21.7087 24.958C22.2504 25.4997 22.8934 25.9294 23.6012 26.2225C24.3089 26.5157 25.0675 26.6666 25.8335 26.6666C26.5995 26.6666 27.3581 26.5157 28.0658 26.2225C28.7735 25.9294 29.4166 25.4997 29.9583 24.958C30.5 24.4164 30.9296 23.7733 31.2228 23.0656C31.5159 22.3578 31.6668 21.5993 31.6668 20.8333C31.6668 20.0672 31.5159 19.3087 31.2228 18.6009C30.9296 17.8932 30.5 17.2501 29.9583 16.7085C29.4166 16.1668 28.7735 15.7371 28.0658 15.444C27.3581 15.1508 26.5995 14.9999 25.8335 14.9999ZM14.1668 26.6666C12.6197 26.6666 11.136 27.2812 10.042 28.3751C8.94808 29.4691 8.3335 30.9528 8.3335 32.4999C8.3335 34.047 8.94808 35.5307 10.042 36.6247C11.136 37.7187 12.6197 38.3333 14.1668 38.3333C15.7139 38.3333 17.1977 37.7187 18.2916 36.6247C19.3856 35.5307 20.0002 34.047 20.0002 32.4999V26.6666M14.1668 26.6666H20.0002" stroke="currentColor" stroke-width="3.5" stroke-linecap="round" stroke-linejoin="round"/>
</g>
<defs>
<clipPath id="clip0_12027_1682">
<rect width="40" height="40" fill="white"/>
</clipPath>
</defs>
</svg>
