<svg width="32" height="32" viewBox="0 0 32 32" fill="none" xmlns="http://www.w3.org/2000/svg">
<path d="M26.6667 16.0001V29.3334H5.33341V16.0001M16.0001 29.3334V9.33342M16.0001 9.33342H10.0001C9.11603 9.33342 8.26818 8.98223 7.64306 8.3571C7.01794 7.73198 6.66675 6.88414 6.66675 6.00008C6.66675 5.11603 7.01794 4.26818 7.64306 3.64306C8.26818 3.01794 9.11603 2.66675 10.0001 2.66675C14.6667 2.66675 16.0001 9.33342 16.0001 9.33342ZM16.0001 9.33342H22.0001C22.8841 9.33342 23.732 8.98223 24.3571 8.3571C24.9822 7.73198 25.3334 6.88414 25.3334 6.00008C25.3334 5.11603 24.9822 4.26818 24.3571 3.64306C23.732 3.01794 22.8841 2.66675 22.0001 2.66675C17.3334 2.66675 16.0001 9.33342 16.0001 9.33342ZM2.66675 9.33342H29.3334V16.0001H2.66675V9.33342Z" stroke="currentColor" stroke-width="3" stroke-linecap="round" stroke-linejoin="round"/>
</svg>
