<svg width="40" height="40" viewBox="0 0 40 40" fill="none" xmlns="http://www.w3.org/2000/svg">
<path d="M33.3333 19.9999V36.6666H6.66659V19.9999M19.9999 36.6666V11.6666M19.9999 11.6666H12.4999C11.3949 11.6666 10.335 11.2276 9.55364 10.4462C8.77224 9.66479 8.33325 8.60499 8.33325 7.49992C8.33325 6.39485 8.77224 5.33504 9.55364 4.55364C10.335 3.77224 11.3949 3.33325 12.4999 3.33325C18.3333 3.33325 19.9999 11.6666 19.9999 11.6666ZM19.9999 11.6666H27.4999C28.605 11.6666 29.6648 11.2276 30.4462 10.4462C31.2276 9.66479 31.6666 8.60499 31.6666 7.49992C31.6666 6.39485 31.2276 5.33504 30.4462 4.55364C29.6648 3.77224 28.605 3.33325 27.4999 3.33325C21.6666 3.33325 19.9999 11.6666 19.9999 11.6666ZM3.33325 11.6666H36.6666V19.9999H3.33325V11.6666Z" stroke="currentColor" stroke-width="3.5" stroke-linecap="round" stroke-linejoin="round"/>
</svg>
