<svg width="48" height="48" viewBox="0 0 48 48" fill="none" xmlns="http://www.w3.org/2000/svg">
<g clip-path="url(#clip0_12027_1919)">
<path d="M45.2998 28.7799L23.9998 44.2599L2.6998 28.7799C2.41425 28.5699 2.20244 28.275 2.09467 27.9373C1.9869 27.5996 1.9887 27.2365 2.0998 26.8999L4.5398 19.3399L9.4198 4.31992C9.46713 4.19754 9.54248 4.08794 9.6398 3.99992C9.79828 3.85517 10.0052 3.7749 10.2198 3.7749C10.4344 3.7749 10.6413 3.85517 10.7998 3.99992C10.9026 4.09925 10.9783 4.22316 11.0198 4.35992L15.8998 19.3399H32.0998L36.9798 4.31992C37.0271 4.19754 37.1025 4.08794 37.1998 3.99992C37.3583 3.85517 37.5652 3.7749 37.7798 3.7749C37.9944 3.7749 38.2013 3.85517 38.3598 3.99992C38.4626 4.09925 38.5383 4.22316 38.5798 4.35992L43.4598 19.3799L45.9998 26.8999C46.1008 27.2469 46.0873 27.6172 45.9612 27.9559C45.8351 28.2945 45.6032 28.5835 45.2998 28.7799Z" stroke="currentColor" stroke-width="4" stroke-linecap="round" stroke-linejoin="round"/>
</g>
<defs>
<clipPath id="clip0_12027_1919">
<rect width="48" height="48" fill="white"/>
</clipPath>
</defs>
</svg>
