<svg width="20" height="20" viewBox="0 0 20 20" fill="none" xmlns="http://www.w3.org/2000/svg">
<g clip-path="url(#clip0_12027_1923)">
<path d="M18.8751 11.9918L10.0001 18.4418L1.12512 11.9918C1.00614 11.9043 0.917886 11.7814 0.872982 11.6407C0.828079 11.5 0.828827 11.3487 0.87512 11.2084L1.89179 8.05842L3.92512 1.80009C3.94484 1.7491 3.97624 1.70343 4.01679 1.66676C4.08282 1.60644 4.16902 1.573 4.25845 1.573C4.34789 1.573 4.43409 1.60644 4.50012 1.66676C4.54294 1.70814 4.57449 1.75977 4.59179 1.81676L6.62512 8.05842H13.3751L15.4085 1.80009C15.4282 1.7491 15.4596 1.70343 15.5001 1.66676C15.5662 1.60644 15.6524 1.573 15.7418 1.573C15.8312 1.573 15.9174 1.60644 15.9835 1.66676C16.0263 1.70814 16.0578 1.75977 16.0751 1.81676L18.1085 8.07509L19.1668 11.2084C19.2089 11.353 19.2032 11.5073 19.1507 11.6484C19.0982 11.7895 19.0015 11.9099 18.8751 11.9918Z" stroke="currentColor" stroke-width="2" stroke-linecap="round" stroke-linejoin="round"/>
</g>
<defs>
<clipPath id="clip0_12027_1923">
<rect width="20" height="20" fill="white"/>
</clipPath>
</defs>
</svg>
