<svg width="40" height="40" viewBox="0 0 40 40" fill="none" xmlns="http://www.w3.org/2000/svg">
<g clip-path="url(#clip0_12027_1929)">
<path d="M37.7502 23.9833L20.0002 36.8833L2.25024 23.9833C2.01228 23.8083 1.83577 23.5625 1.74596 23.2811C1.65616 22.9997 1.65765 22.6971 1.75024 22.4166L3.78357 16.1166L7.85024 3.59994C7.88968 3.49795 7.95247 3.40662 8.03357 3.33327C8.16564 3.21264 8.33804 3.14575 8.51691 3.14575C8.69577 3.14575 8.86818 3.21264 9.00024 3.33327C9.08588 3.41604 9.14898 3.5193 9.18357 3.63327L13.2502 16.1166H26.7502L30.8169 3.59994C30.8564 3.49795 30.9191 3.40662 31.0002 3.33327C31.1323 3.21264 31.3047 3.14575 31.4836 3.14575C31.6624 3.14575 31.8348 3.21264 31.9669 3.33327C32.0525 3.41604 32.1156 3.5193 32.1502 3.63327L36.2169 16.1499L38.3336 22.4166C38.4178 22.7057 38.4065 23.0143 38.3014 23.2966C38.1963 23.5788 38.003 23.8196 37.7502 23.9833Z" stroke="currentColor" stroke-width="3.5" stroke-linecap="round" stroke-linejoin="round"/>
</g>
<defs>
<clipPath id="clip0_12027_1929">
<rect width="40" height="40" fill="white"/>
</clipPath>
</defs>
</svg>
