<svg width="16" height="16" viewBox="0 0 16 16" fill="none" xmlns="http://www.w3.org/2000/svg">
<g clip-path="url(#clip0_12027_1934)">
<path d="M14.6668 7.99992C14.6668 11.6818 11.6821 14.6666 8.00016 14.6666M14.6668 7.99992C14.6668 4.31802 11.6821 1.33325 8.00016 1.33325M14.6668 7.99992H1.3335M8.00016 14.6666C4.31826 14.6666 1.3335 11.6818 1.3335 7.99992M8.00016 14.6666C9.66768 12.841 10.6153 10.4719 10.6668 7.99992C10.6153 5.52794 9.66768 3.15882 8.00016 1.33325M8.00016 14.6666C6.33264 12.841 5.38499 10.4719 5.3335 7.99992C5.38499 5.52794 6.33264 3.15882 8.00016 1.33325M1.3335 7.99992C1.3335 4.31802 4.31826 1.33325 8.00016 1.33325" stroke="currentColor" stroke-width="1.6" stroke-linecap="round" stroke-linejoin="round"/>
</g>
<defs>
<clipPath id="clip0_12027_1934">
<rect width="16" height="16" fill="white"/>
</clipPath>
</defs>
</svg>
