<svg width="40" height="40" viewBox="0 0 40 40" fill="none" xmlns="http://www.w3.org/2000/svg">
<path d="M36.6668 19.9999C36.6668 29.2047 29.2049 36.6666 20.0002 36.6666M36.6668 19.9999C36.6668 10.7952 29.2049 3.33325 20.0002 3.33325M36.6668 19.9999H3.3335M20.0002 36.6666C10.7954 36.6666 3.3335 29.2047 3.3335 19.9999M20.0002 36.6666C24.169 32.1027 26.5381 26.1799 26.6668 19.9999C26.5381 13.82 24.169 7.89717 20.0002 3.33325M20.0002 36.6666C15.8314 32.1027 13.4622 26.1799 13.3335 19.9999C13.4622 13.82 15.8314 7.89717 20.0002 3.33325M3.3335 19.9999C3.3335 10.7952 10.7954 3.33325 20.0002 3.33325" stroke="currentColor" stroke-width="3.5" stroke-linecap="round" stroke-linejoin="round"/>
</svg>
