<svg width="32" height="32" viewBox="0 0 32 32" fill="none" xmlns="http://www.w3.org/2000/svg">
<path d="M29.3332 16.0001C29.3332 23.3639 23.3636 29.3334 15.9998 29.3334M29.3332 16.0001C29.3332 8.63628 23.3636 2.66675 15.9998 2.66675M29.3332 16.0001H2.6665M15.9998 29.3334C8.63604 29.3334 2.6665 23.3639 2.6665 16.0001M15.9998 29.3334C19.3349 25.6823 21.2302 20.944 21.3332 16.0001C21.2302 11.0561 19.3349 6.31789 15.9998 2.66675M15.9998 29.3334C12.6648 25.6823 10.7695 20.944 10.6665 16.0001C10.7695 11.0561 12.6648 6.31789 15.9998 2.66675M2.6665 16.0001C2.6665 8.63628 8.63604 2.66675 15.9998 2.66675" stroke="currentColor" stroke-width="3" stroke-linecap="round" stroke-linejoin="round"/>
</svg>
