<svg width="20" height="20" viewBox="0 0 20 20" fill="none" xmlns="http://www.w3.org/2000/svg">
<path d="M18.3334 9.99992H1.66675M1.66675 9.99992L4.54175 4.25825C4.67973 3.98057 4.89244 3.74689 5.15595 3.58348C5.41947 3.42008 5.72334 3.33342 6.03341 3.33325H13.9667C14.2768 3.33342 14.5807 3.42008 14.8442 3.58348C15.1077 3.74689 15.3204 3.98057 15.4584 4.25825L18.3334 9.99992V14.9999C18.3334 15.4419 18.1578 15.8659 17.8453 16.1784C17.5327 16.491 17.1088 16.6666 16.6667 16.6666H3.33341C2.89139 16.6666 2.46746 16.491 2.1549 16.1784C1.84234 15.8659 1.66675 15.4419 1.66675 14.9999V9.99992ZM5.00008 13.3333H5.00841M8.33341 13.3333H8.34175" stroke="currentColor" stroke-width="2" stroke-linecap="round" stroke-linejoin="round"/>
</svg>
