<svg width="32" height="32" viewBox="0 0 32 32" fill="none" xmlns="http://www.w3.org/2000/svg">
<path d="M29.3334 15.9999H2.66675M2.66675 15.9999L7.26675 6.81325C7.48752 6.36897 7.82785 5.99508 8.24947 5.73362C8.6711 5.47217 9.1573 5.33352 9.65341 5.33325H22.3467C22.8429 5.33352 23.3291 5.47217 23.7507 5.73362C24.1723 5.99508 24.5126 6.36897 24.7334 6.81325L29.3334 15.9999V23.9999C29.3334 24.7072 29.0525 25.3854 28.5524 25.8855C28.0523 26.3856 27.374 26.6666 26.6667 26.6666H5.33341C4.62617 26.6666 3.94789 26.3856 3.4478 25.8855C2.9477 25.3854 2.66675 24.7072 2.66675 23.9999V15.9999ZM8.00008 21.3333H8.01342M13.3334 21.3333H13.3467" stroke="currentColor" stroke-width="3" stroke-linecap="round" stroke-linejoin="round"/>
</svg>
