<svg width="40" height="40" viewBox="0 0 40 40" fill="none" xmlns="http://www.w3.org/2000/svg">
<path d="M36.6666 20.0001H3.33325M3.33325 20.0001L9.08325 8.51675C9.35921 7.96139 9.78463 7.49403 10.3117 7.16721C10.8387 6.8404 11.4464 6.66708 12.0666 6.66675H27.9333C28.5534 6.66708 29.1611 6.8404 29.6882 7.16721C30.2152 7.49403 30.6406 7.96139 30.9166 8.51675L36.6666 20.0001V30.0001C36.6666 30.8841 36.3154 31.732 35.6903 32.3571C35.0652 32.9822 34.2173 33.3334 33.3333 33.3334H6.66659C5.78253 33.3334 4.93468 32.9822 4.30956 32.3571C3.68444 31.732 3.33325 30.8841 3.33325 30.0001V20.0001ZM9.99992 26.6667H10.0166M16.6666 26.6667H16.6833" stroke="currentColor" stroke-width="3.5" stroke-linecap="round" stroke-linejoin="round"/>
</svg>
