<svg width="16" height="16" viewBox="0 0 16 16" fill="none" xmlns="http://www.w3.org/2000/svg">
<path d="M14.6667 8.00008H1.33337M1.33337 8.00008L3.63337 3.40675C3.74376 3.18461 3.91392 2.99766 4.12474 2.86693C4.33555 2.73621 4.57865 2.66688 4.82671 2.66675H11.1734C11.4214 2.66688 11.6645 2.73621 11.8753 2.86693C12.0862 2.99766 12.2563 3.18461 12.3667 3.40675L14.6667 8.00008V12.0001C14.6667 12.3537 14.5262 12.6928 14.2762 12.9429C14.0261 13.1929 13.687 13.3334 13.3334 13.3334H2.66671C2.31309 13.3334 1.97395 13.1929 1.7239 12.9429C1.47385 12.6928 1.33337 12.3537 1.33337 12.0001V8.00008ZM4.00004 10.6667H4.00671M6.66671 10.6667H6.67337" stroke="currentColor" stroke-width="1.6" stroke-linecap="round" stroke-linejoin="round"/>
</svg>
