<svg width="40" height="40" viewBox="0 0 40 40" fill="none" xmlns="http://www.w3.org/2000/svg">
<path d="M34.7335 7.68345C33.8822 6.83179 32.8715 6.15619 31.759 5.69525C30.6466 5.23432 29.4543 4.99707 28.2501 4.99707C27.046 4.99707 25.8536 5.23432 24.7412 5.69525C23.6288 6.15619 22.618 6.83179 21.7668 7.68345L20.0001 9.45011L18.2335 7.68345C16.514 5.96396 14.1818 4.99796 11.7501 4.99796C9.3184 4.99796 6.98627 5.96396 5.26678 7.68345C3.5473 9.40293 2.5813 11.7351 2.5813 14.1668C2.5813 16.5985 3.5473 18.9306 5.26678 20.6501L20.0001 35.3834L34.7335 20.6501C35.5851 19.7989 36.2607 18.7881 36.7216 17.6757C37.1826 16.5633 37.4198 15.3709 37.4198 14.1668C37.4198 12.9626 37.1826 11.7703 36.7216 10.6579C36.2607 9.54542 35.5851 8.53471 34.7335 7.68345Z" stroke="currentColor" stroke-width="3.5" stroke-linecap="round" stroke-linejoin="round"/>
</svg>
