<svg width="40" height="40" viewBox="0 0 40 40" fill="none" xmlns="http://www.w3.org/2000/svg">
<path d="M15.1502 14.9999C15.542 13.886 16.3154 12.9468 17.3334 12.3485C18.3514 11.7502 19.5483 11.5315 20.7121 11.7311C21.8759 11.9307 22.9315 12.5358 23.692 13.4391C24.4524 14.3425 24.8686 15.4858 24.8668 16.6666C24.8668 19.9999 19.8668 21.6666 19.8668 21.6666M20.0002 28.3333H20.0168M36.6668 19.9999C36.6668 29.2047 29.2049 36.6666 20.0002 36.6666C10.7954 36.6666 3.3335 29.2047 3.3335 19.9999C3.3335 10.7952 10.7954 3.33325 20.0002 3.33325C29.2049 3.33325 36.6668 10.7952 36.6668 19.9999Z" stroke="currentColor" stroke-width="3.5" stroke-linecap="round" stroke-linejoin="round"/>
</svg>
