<svg width="32" height="32" viewBox="0 0 32 32" fill="none" xmlns="http://www.w3.org/2000/svg">
<path d="M29.3332 15.9999H21.3332L18.6665 19.9999H13.3332L10.6665 15.9999H2.6665M2.6665 15.9999L7.2665 6.81325C7.48727 6.36897 7.8276 5.99508 8.24923 5.73362C8.67086 5.47217 9.15706 5.33352 9.65317 5.33325H22.3465C22.8426 5.33352 23.3288 5.47217 23.7504 5.73362C24.1721 5.99508 24.5124 6.36897 24.7332 6.81325L29.3332 15.9999V23.9999C29.3332 24.7072 29.0522 25.3854 28.5521 25.8855C28.052 26.3856 27.3737 26.6666 26.6665 26.6666H5.33317C4.62593 26.6666 3.94765 26.3856 3.44755 25.8855C2.94746 25.3854 2.6665 24.7072 2.6665 23.9999V15.9999Z" stroke="currentColor" stroke-width="3" stroke-linecap="round" stroke-linejoin="round"/>
</svg>
