<svg width="16" height="16" viewBox="0 0 16 16" fill="none" xmlns="http://www.w3.org/2000/svg">
<path d="M14.6668 8.00008H10.6668L9.3335 10.0001H6.66683L5.3335 8.00008H1.3335M1.3335 8.00008L3.6335 3.40675C3.74388 3.18461 3.91405 2.99766 4.12486 2.86693C4.33567 2.73621 4.57877 2.66688 4.82683 2.66675H11.1735C11.4216 2.66688 11.6647 2.73621 11.8755 2.86693C12.0863 2.99766 12.2564 3.18461 12.3668 3.40675L14.6668 8.00008V12.0001C14.6668 12.3537 14.5264 12.6928 14.2763 12.9429C14.0263 13.1929 13.6871 13.3334 13.3335 13.3334H2.66683C2.31321 13.3334 1.97407 13.1929 1.72402 12.9429C1.47397 12.6928 1.3335 12.3537 1.3335 12.0001V8.00008Z" stroke="currentColor" stroke-width="1.6" stroke-linecap="round" stroke-linejoin="round"/>
</svg>
