<svg width="20" height="20" viewBox="0 0 20 20" fill="none" xmlns="http://www.w3.org/2000/svg">
<path d="M18.3332 9.99992H13.3332L11.6665 12.4999H8.33317L6.6665 9.99992H1.6665M1.6665 9.99992L4.5415 4.25825C4.67948 3.98057 4.89219 3.74689 5.15571 3.58348C5.41922 3.42008 5.7231 3.33342 6.03317 3.33325H13.9665C14.2766 3.33342 14.5805 3.42008 14.844 3.58348C15.1075 3.74689 15.3202 3.98057 15.4582 4.25825L18.3332 9.99992V14.9999C18.3332 15.4419 18.1576 15.8659 17.845 16.1784C17.5325 16.491 17.1085 16.6666 16.6665 16.6666H3.33317C2.89114 16.6666 2.46722 16.491 2.15466 16.1784C1.8421 15.8659 1.6665 15.4419 1.6665 14.9999V9.99992Z" stroke="currentColor" stroke-width="2" stroke-linecap="round" stroke-linejoin="round"/>
</svg>
