<svg width="40" height="40" viewBox="0 0 40 40" fill="none" xmlns="http://www.w3.org/2000/svg">
<path d="M36.6668 20.0001H26.6668L23.3335 25.0001H16.6668L13.3335 20.0001H3.3335M3.3335 20.0001L9.0835 8.51675C9.35946 7.96139 9.78487 7.49403 10.3119 7.16721C10.8389 6.8404 11.4467 6.66708 12.0668 6.66675H27.9335C28.5536 6.66708 29.1614 6.8404 29.6884 7.16721C30.2155 7.49403 30.6409 7.96139 30.9168 8.51675L36.6668 20.0001V30.0001C36.6668 30.8841 36.3156 31.732 35.6905 32.3571C35.0654 32.9822 34.2176 33.3334 33.3335 33.3334H6.66683C5.78277 33.3334 4.93493 32.9822 4.30981 32.3571C3.68469 31.732 3.3335 30.8841 3.3335 30.0001V20.0001Z" stroke="currentColor" stroke-width="3.5" stroke-linecap="round" stroke-linejoin="round"/>
</svg>
