<svg width="20" height="20" viewBox="0 0 20 20" fill="none" xmlns="http://www.w3.org/2000/svg">
<g clip-path="url(#clip0_12027_2092)">
<path d="M14.5834 5.41675H14.5917M5.83341 1.66675H14.1667C16.4679 1.66675 18.3334 3.53223 18.3334 5.83341V14.1667C18.3334 16.4679 16.4679 18.3334 14.1667 18.3334H5.83341C3.53223 18.3334 1.66675 16.4679 1.66675 14.1667V5.83341C1.66675 3.53223 3.53223 1.66675 5.83341 1.66675ZM13.3334 9.47508C13.4363 10.1686 13.3178 10.8769 12.9949 11.4993C12.672 12.1216 12.161 12.6263 11.5348 12.9415C10.9085 13.2567 10.1988 13.3664 9.50657 13.255C8.81435 13.1436 8.17488 12.8168 7.67911 12.321C7.18335 11.8253 6.85652 11.1858 6.74514 10.4936C6.63375 9.80138 6.74347 9.09166 7.05869 8.46539C7.3739 7.83913 7.87857 7.3282 8.5009 7.00528C9.12323 6.68237 9.83154 6.56391 10.5251 6.66675C11.2325 6.77165 11.8875 7.1013 12.3932 7.607C12.8989 8.11271 13.2285 8.76765 13.3334 9.47508Z" stroke="currentColor" stroke-width="2" stroke-linecap="round" stroke-linejoin="round"/>
</g>
<defs>
<clipPath id="clip0_12027_2092">
<rect width="20" height="20" fill="white"/>
</clipPath>
</defs>
</svg>
