<svg width="48" height="48" viewBox="0 0 48 48" fill="none" xmlns="http://www.w3.org/2000/svg">
<path d="M42.0001 4L38.0001 8M38.0001 8L44.0001 14L37.0001 21L31.0001 15M38.0001 8L31.0001 15M22.7801 23.22C23.8127 24.2389 24.6337 25.4521 25.1956 26.7896C25.7575 28.1271 26.0493 29.5625 26.0541 31.0133C26.059 32.464 25.7768 33.9014 25.2239 35.2426C24.671 36.5838 23.8582 37.8025 22.8324 38.8283C21.8065 39.8541 20.5879 40.6669 19.2467 41.2198C17.9054 41.7728 16.4681 42.0549 15.0173 42.0501C13.5666 42.0452 12.1311 41.7534 10.7936 41.1915C9.45614 40.6296 8.24299 39.8087 7.22406 38.776C5.22032 36.7014 4.11158 33.9228 4.13665 31.0386C4.16171 28.1544 5.31857 25.3955 7.35806 23.356C9.39755 21.3165 12.1565 20.1596 15.0406 20.1346C17.9248 20.1095 20.7034 21.2183 22.7781 23.222L22.7801 23.22ZM22.7801 23.22L31.0001 15" stroke="currentColor" stroke-width="4" stroke-linecap="round" stroke-linejoin="round"/>
</svg>
