<svg width="32" height="32" viewBox="0 0 32 32" fill="none" xmlns="http://www.w3.org/2000/svg">
<path d="M27.9999 2.66675L25.3332 5.33341M25.3332 5.33341L29.3332 9.33342L24.6665 14.0001L20.6665 10.0001M25.3332 5.33341L20.6665 10.0001M15.1865 15.4801C15.875 16.1594 16.4223 16.9681 16.7969 17.8598C17.1715 18.7515 17.366 19.7084 17.3692 20.6756C17.3725 21.6427 17.1844 22.601 16.8158 23.4952C16.4471 24.3893 15.9053 25.2017 15.2214 25.8856C14.5375 26.5695 13.7251 27.1113 12.8309 27.48C11.9368 27.8486 10.9785 28.0367 10.0114 28.0335C9.04423 28.0302 8.08727 27.8357 7.1956 27.4611C6.30393 27.0865 5.49517 26.5392 4.81588 25.8507C3.48005 24.4677 2.74089 22.6153 2.7576 20.6925C2.77431 18.7697 3.54555 16.9304 4.90521 15.5707C6.26487 14.2111 8.10416 13.4398 10.0269 13.4231C11.9497 13.4064 13.8021 14.1456 15.1852 15.4814L15.1865 15.4801ZM15.1865 15.4801L20.6665 10.0001" stroke="currentColor" stroke-width="3" stroke-linecap="round" stroke-linejoin="round"/>
</svg>
