<svg width="20" height="20" viewBox="0 0 20 20" fill="none" xmlns="http://www.w3.org/2000/svg">
<g clip-path="url(#clip0_12027_2157)">
<path d="M4.10817 4.10841L7.6415 7.64175M12.3582 12.3584L15.8915 15.8917M15.8915 4.10841L12.3582 7.64175L15.2998 4.70008M4.10817 15.8917L7.6415 12.3584M18.3332 10.0001C18.3332 14.6025 14.6022 18.3334 9.99984 18.3334C5.39746 18.3334 1.6665 14.6025 1.6665 10.0001C1.6665 5.39771 5.39746 1.66675 9.99984 1.66675C14.6022 1.66675 18.3332 5.39771 18.3332 10.0001ZM13.3332 10.0001C13.3332 11.841 11.8408 13.3334 9.99984 13.3334C8.15889 13.3334 6.6665 11.841 6.6665 10.0001C6.6665 8.15913 8.15889 6.66675 9.99984 6.66675C11.8408 6.66675 13.3332 8.15913 13.3332 10.0001Z" stroke="currentColor" stroke-width="2" stroke-linecap="round" stroke-linejoin="round"/>
</g>
<defs>
<clipPath id="clip0_12027_2157">
<rect width="20" height="20" fill="white"/>
</clipPath>
</defs>
</svg>
