<svg width="16" height="16" viewBox="0 0 16 16" fill="none" xmlns="http://www.w3.org/2000/svg">
<g clip-path="url(#clip0_12027_2155)">
<path d="M3.28683 3.28658L6.1135 6.11325M9.88683 9.88659L12.7135 12.7133M12.7135 3.28658L9.88683 6.11325L12.2402 3.75992M3.28683 12.7133L6.1135 9.88659M14.6668 7.99992C14.6668 11.6818 11.6821 14.6666 8.00016 14.6666C4.31826 14.6666 1.3335 11.6818 1.3335 7.99992C1.3335 4.31802 4.31826 1.33325 8.00016 1.33325C11.6821 1.33325 14.6668 4.31802 14.6668 7.99992ZM10.6668 7.99992C10.6668 9.47268 9.47292 10.6666 8.00016 10.6666C6.5274 10.6666 5.3335 9.47268 5.3335 7.99992C5.3335 6.52716 6.5274 5.33325 8.00016 5.33325C9.47292 5.33325 10.6668 6.52716 10.6668 7.99992Z" stroke="currentColor" stroke-width="1.6" stroke-linecap="round" stroke-linejoin="round"/>
</g>
<defs>
<clipPath id="clip0_12027_2155">
<rect width="16" height="16" fill="white"/>
</clipPath>
</defs>
</svg>
