<svg width="32" height="32" viewBox="0 0 32 32" fill="none" xmlns="http://www.w3.org/2000/svg">
<path d="M6.57317 6.57341L12.2265 12.2267M19.7732 19.7734L25.4265 25.4267M25.4265 6.57341L19.7732 12.2267L24.4798 7.52008M6.57317 25.4267L12.2265 19.7734M29.3332 16.0001C29.3332 23.3639 23.3636 29.3334 15.9998 29.3334C8.63604 29.3334 2.6665 23.3639 2.6665 16.0001C2.6665 8.63628 8.63604 2.66675 15.9998 2.66675C23.3636 2.66675 29.3332 8.63628 29.3332 16.0001ZM21.3332 16.0001C21.3332 18.9456 18.9454 21.3334 15.9998 21.3334C13.0543 21.3334 10.6665 18.9456 10.6665 16.0001C10.6665 13.0546 13.0543 10.6667 15.9998 10.6667C18.9454 10.6667 21.3332 13.0546 21.3332 16.0001Z" stroke="currentColor" stroke-width="3" stroke-linecap="round" stroke-linejoin="round"/>
</svg>
