<svg width="20" height="20" viewBox="0 0 20 20" fill="none" xmlns="http://www.w3.org/2000/svg">
<path d="M13.3334 6.66675C14.6595 6.66675 15.9313 7.19353 16.8689 8.13121C17.8066 9.0689 18.3334 10.3407 18.3334 11.6667V17.5001H15.0001V11.6667C15.0001 11.2247 14.8245 10.8008 14.5119 10.4882C14.1994 10.1757 13.7754 10.0001 13.3334 10.0001C12.8914 10.0001 12.4675 10.1757 12.1549 10.4882C11.8423 10.8008 11.6667 11.2247 11.6667 11.6667V17.5001H8.33341V11.6667C8.33341 10.3407 8.8602 9.0689 9.79788 8.13121C10.7356 7.19353 12.0073 6.66675 13.3334 6.66675Z" stroke="currentColor" stroke-width="2" stroke-linecap="round" stroke-linejoin="round"/>
<path d="M5.00008 7.50008H1.66675V17.5001H5.00008V7.50008Z" stroke="currentColor" stroke-width="2" stroke-linecap="round" stroke-linejoin="round"/>
<path d="M3.33341 5.00008C4.25389 5.00008 5.00008 4.25389 5.00008 3.33341C5.00008 2.41294 4.25389 1.66675 3.33341 1.66675C2.41294 1.66675 1.66675 2.41294 1.66675 3.33341C1.66675 4.25389 2.41294 5.00008 3.33341 5.00008Z" stroke="currentColor" stroke-width="2" stroke-linecap="round" stroke-linejoin="round"/>
</svg>
