<svg width="32" height="32" viewBox="0 0 32 32" fill="none" xmlns="http://www.w3.org/2000/svg">
<path d="M13.3331 17.3335C13.9057 18.099 14.6363 18.7324 15.4752 19.1907C16.3141 19.649 17.2418 19.9216 18.1953 19.9899C19.1488 20.0582 20.1059 19.9206 21.0016 19.5865C21.8972 19.2524 22.7106 18.7295 23.3864 18.0535L27.3864 14.0535C28.6008 12.7961 29.2728 11.1121 29.2576 9.36411C29.2424 7.61613 28.5413 5.94405 27.3052 4.70799C26.0692 3.47194 24.3971 2.77081 22.6491 2.75562C20.9011 2.74043 19.2171 3.4124 17.9598 4.62678L15.6664 6.90678M18.6664 14.6668C18.0938 13.9013 17.3633 13.2679 16.5244 12.8095C15.6855 12.3512 14.7578 12.0786 13.8042 12.0103C12.8507 11.942 11.8937 12.0796 10.998 12.4137C10.1023 12.7479 9.28896 13.2707 8.61311 13.9468L4.61311 17.9468C3.39872 19.2041 2.72676 20.8881 2.74195 22.6361C2.75714 24.3841 3.45827 26.0562 4.69432 27.2922C5.93038 28.5283 7.60246 29.2294 9.35044 29.2446C11.0984 29.2598 12.7824 28.5878 14.0398 27.3735L16.3198 25.0935" stroke="currentColor" stroke-width="3" stroke-linecap="round" stroke-linejoin="round"/>
</svg>
