<svg width="40" height="40" viewBox="0 0 40 40" fill="none" xmlns="http://www.w3.org/2000/svg">
<path d="M26.6666 13.3333C29.3187 13.3333 31.8623 14.3868 33.7377 16.2622C35.613 18.1375 36.6666 20.6811 36.6666 23.3333V34.9999H29.9999V23.3333C29.9999 22.4492 29.6487 21.6014 29.0236 20.9762C28.3985 20.3511 27.5506 19.9999 26.6666 19.9999C25.7825 19.9999 24.9347 20.3511 24.3096 20.9762C23.6844 21.6014 23.3333 22.4492 23.3333 23.3333V34.9999H16.6666V23.3333C16.6666 20.6811 17.7202 18.1375 19.5955 16.2622C21.4709 14.3868 24.0144 13.3333 26.6666 13.3333Z" stroke="currentColor" stroke-width="3.5" stroke-linecap="round" stroke-linejoin="round"/>
<path d="M9.99992 14.9999H3.33325V34.9999H9.99992V14.9999Z" stroke="currentColor" stroke-width="3.5" stroke-linecap="round" stroke-linejoin="round"/>
<path d="M6.66659 9.99992C8.50753 9.99992 9.99992 8.50753 9.99992 6.66659C9.99992 4.82564 8.50753 3.33325 6.66659 3.33325C4.82564 3.33325 3.33325 4.82564 3.33325 6.66659C3.33325 8.50753 4.82564 9.99992 6.66659 9.99992Z" stroke="currentColor" stroke-width="3.5" stroke-linecap="round" stroke-linejoin="round"/>
</svg>
