<svg width="32" height="32" viewBox="0 0 32 32" fill="none" xmlns="http://www.w3.org/2000/svg">
<g clip-path="url(#clip0_12027_2174)">
<path d="M20.0002 9.33325H24.0002C24.8756 9.33325 25.7426 9.50569 26.5514 9.84072C27.3602 10.1758 28.0952 10.6668 28.7142 11.2859C29.3333 11.9049 29.8243 12.6399 30.1594 13.4487C30.4944 14.2575 30.6668 15.1244 30.6668 15.9999C30.6668 16.8754 30.4944 17.7423 30.1594 18.5511C29.8243 19.36 29.3333 20.0949 28.7142 20.714C28.0952 21.333 27.3602 21.8241 26.5514 22.1591C25.7426 22.4941 24.8756 22.6666 24.0002 22.6666H20.0002M12.0002 22.6666H8.00016C7.12468 22.6666 6.25778 22.4941 5.44894 22.1591C4.6401 21.8241 3.90517 21.333 3.28612 20.714C2.03587 19.4637 1.3335 17.768 1.3335 15.9999C1.3335 14.2318 2.03587 12.5361 3.28612 11.2859C4.53636 10.0356 6.23205 9.33325 8.00016 9.33325H12.0002M10.6668 15.9999H21.3335" stroke="currentColor" stroke-width="3" stroke-linecap="round" stroke-linejoin="round"/>
</g>
<defs>
<clipPath id="clip0_12027_2174">
<rect width="32" height="32" fill="white"/>
</clipPath>
</defs>
</svg>
