<svg width="48" height="48" viewBox="0 0 48 48" fill="none" xmlns="http://www.w3.org/2000/svg">
<path d="M19.9999 25.9999C20.8588 27.1482 21.9546 28.0983 23.213 28.7858C24.4714 29.4733 25.8629 29.8822 27.2932 29.9846C28.7235 30.087 30.1591 29.8807 31.5026 29.3795C32.8461 28.8783 34.0661 28.0941 35.0799 27.0799L41.0799 21.0799C42.9015 19.1939 43.9094 16.6679 43.8867 14.0459C43.8639 11.424 42.8122 8.91583 40.9581 7.06175C39.104 5.20766 36.5959 4.15597 33.9739 4.13319C31.352 4.11041 28.8259 5.11835 26.9399 6.93993L23.4999 10.3599M27.9999 21.9999C27.141 20.8517 26.0452 19.9016 24.7868 19.2141C23.5284 18.5265 22.1369 18.1177 20.7066 18.0153C19.2763 17.9128 17.8407 18.1192 16.4972 18.6204C15.1537 19.1215 13.9337 19.9058 12.9199 20.9199L6.91991 26.9199C5.09833 28.806 4.09039 31.332 4.11317 33.9539C4.13596 36.5759 5.18764 39.084 7.04173 40.9381C8.89581 42.7922 11.4039 43.8439 14.0259 43.8667C16.6479 43.8895 19.1739 42.8815 21.0599 41.0599L24.4799 37.6399" stroke="currentColor" stroke-width="4" stroke-linecap="round" stroke-linejoin="round"/>
</svg>
