<svg width="40" height="40" viewBox="0 0 40 40" fill="none" xmlns="http://www.w3.org/2000/svg">
<g clip-path="url(#clip0_12027_2176)">
<path d="M24.9998 11.6667H29.9998C31.0942 11.6667 32.1778 11.8823 33.1889 12.3011C34.1999 12.7199 35.1186 13.3337 35.8924 14.1075C36.6662 14.8813 37.28 15.8 37.6988 16.8111C38.1176 17.8221 38.3332 18.9057 38.3332 20.0001C38.3332 21.0944 38.1176 22.1781 37.6988 23.1891C37.28 24.2002 36.6662 25.1188 35.8924 25.8926C35.1186 26.6665 34.1999 27.2803 33.1889 27.6991C32.1778 28.1179 31.0942 28.3334 29.9998 28.3334H24.9998M14.9998 28.3334H9.99984C8.90549 28.3334 7.82185 28.1179 6.81081 27.6991C5.79976 27.2803 4.8811 26.6665 4.10728 25.8926C2.54448 24.3298 1.6665 22.2102 1.6665 20.0001C1.6665 17.7899 2.54448 15.6703 4.10728 14.1075C5.67008 12.5447 7.7897 11.6667 9.99984 11.6667H14.9998M13.3332 20.0001H26.6665" stroke="currentColor" stroke-width="3.5" stroke-linecap="round" stroke-linejoin="round"/>
</g>
<defs>
<clipPath id="clip0_12027_2176">
<rect width="40" height="40" fill="white"/>
</clipPath>
</defs>
</svg>
