<svg width="40" height="40" viewBox="0 0 40 40" fill="none" xmlns="http://www.w3.org/2000/svg">
<path d="M16.6665 21.6667C17.3823 22.6236 18.2954 23.4153 19.3441 23.9883C20.3927 24.5612 21.5524 24.9019 22.7443 24.9872C23.9362 25.0726 25.1325 24.9006 26.2521 24.483C27.3717 24.0653 28.3884 23.4118 29.2332 22.5667L34.2332 17.5667C35.7512 15.995 36.5911 13.89 36.5721 11.705C36.5531 9.52004 35.6767 7.42994 34.1317 5.88487C32.5866 4.3398 30.4965 3.46339 28.3115 3.44441C26.1265 3.42542 24.0215 4.26537 22.4498 5.78336L19.5832 8.63336M23.3332 18.3334C22.6174 17.3765 21.7042 16.5847 20.6556 16.0118C19.6069 15.4389 18.4473 15.0982 17.2554 15.0128C16.0635 14.9274 14.8672 15.0994 13.7476 15.5171C12.628 15.9347 11.6113 16.5882 10.7665 17.4334L5.76651 22.4334C4.24853 24.005 3.40857 26.1101 3.42756 28.295C3.44655 30.48 4.32296 32.5701 5.86802 34.1152C7.41309 35.6602 9.5032 36.5367 11.6882 36.5556C13.8731 36.5746 15.9782 35.7347 17.5498 34.2167L20.3998 31.3667" stroke="currentColor" stroke-width="3.5" stroke-linecap="round" stroke-linejoin="round"/>
</svg>
