<svg width="32" height="32" viewBox="0 0 32 32" fill="none" xmlns="http://www.w3.org/2000/svg">
<path d="M9.33333 14.6667V9.33342C9.33333 7.5653 10.0357 5.86961 11.286 4.61937C12.5362 3.36913 14.2319 2.66675 16 2.66675C17.7681 2.66675 19.4638 3.36913 20.714 4.61937C21.9643 5.86961 22.6667 7.5653 22.6667 9.33342V14.6667M6.66667 14.6667H25.3333C26.8061 14.6667 28 15.8607 28 17.3334V26.6667C28 28.1395 26.8061 29.3334 25.3333 29.3334H6.66667C5.19391 29.3334 4 28.1395 4 26.6667V17.3334C4 15.8607 5.19391 14.6667 6.66667 14.6667Z" stroke="currentColor" stroke-width="3" stroke-linecap="round" stroke-linejoin="round"/>
</svg>
