<svg width="24" height="24" viewBox="0 0 24 24" fill="none" xmlns="http://www.w3.org/2000/svg">
<path d="M20 10.2222C20 16.4444 12 21.7777 12 21.7777C12 21.7777 4 16.4444 4 10.2222C4 8.10044 4.84285 6.0656 6.34315 4.56531C7.84344 3.06502 9.87827 2.22217 12 2.22217C14.1217 2.22217 16.1566 3.06502 17.6569 4.56531C19.1571 6.0656 20 8.10044 20 10.2222Z" stroke="currentColor" stroke-width="2.5" stroke-linecap="round" stroke-linejoin="round"/>
<path d="M12 12.8888C13.4728 12.8888 14.6667 11.6949 14.6667 10.2222C14.6667 8.74941 13.4728 7.5555 12 7.5555C10.5272 7.5555 9.33333 8.74941 9.33333 10.2222C9.33333 11.6949 10.5272 12.8888 12 12.8888Z" stroke="currentColor" stroke-width="2.5" stroke-linecap="round" stroke-linejoin="round"/>
</svg>
