<svg width="20" height="20" viewBox="0 0 20 20" fill="none" xmlns="http://www.w3.org/2000/svg">
<path d="M17 8.44434C17 13.8888 10 18.5554 10 18.5554C10 18.5554 3 13.8888 3 8.44434C3 6.58782 3.7375 4.80734 5.05025 3.49459C6.36301 2.18183 8.14348 1.44434 10 1.44434C11.8565 1.44434 13.637 2.18183 14.9497 3.49459C16.2625 4.80734 17 6.58782 17 8.44434Z" stroke="currentColor" stroke-width="2" stroke-linecap="round" stroke-linejoin="round"/>
<path d="M10 10.7777C11.2887 10.7777 12.3333 9.733 12.3333 8.44434C12.3333 7.15567 11.2887 6.111 10 6.111C8.71134 6.111 7.66667 7.15567 7.66667 8.44434C7.66667 9.733 8.71134 10.7777 10 10.7777Z" stroke="currentColor" stroke-width="2" stroke-linecap="round" stroke-linejoin="round"/>
</svg>
