<svg width="32" height="32" viewBox="0 0 32 32" fill="none" xmlns="http://www.w3.org/2000/svg">
<path d="M26 13.7778C26 21.5556 16 28.2223 16 28.2223C16 28.2223 6 21.5556 6 13.7778C6 11.1257 7.05357 8.58213 8.92893 6.70676C10.8043 4.8314 13.3478 3.77783 16 3.77783C18.6522 3.77783 21.1957 4.8314 23.0711 6.70676C24.9464 8.58213 26 11.1257 26 13.7778Z" stroke="currentColor" stroke-width="3" stroke-linecap="round" stroke-linejoin="round"/>
<path d="M16 17.1112C17.8409 17.1112 19.3333 15.6188 19.3333 13.7778C19.3333 11.9369 17.8409 10.4445 16 10.4445C14.1591 10.4445 12.6667 11.9369 12.6667 13.7778C12.6667 15.6188 14.1591 17.1112 16 17.1112Z" stroke="currentColor" stroke-width="3" stroke-linecap="round" stroke-linejoin="round"/>
</svg>
