<svg width="16" height="16" viewBox="0 0 16 16" fill="none" xmlns="http://www.w3.org/2000/svg">
<path d="M13 6.88892C13 10.7778 8 14.1111 8 14.1111C8 14.1111 3 10.7778 3 6.88892C3 5.56283 3.52678 4.29106 4.46447 3.35338C5.40215 2.4157 6.67392 1.88892 8 1.88892C9.32608 1.88892 10.5979 2.4157 11.5355 3.35338C12.4732 4.29106 13 5.56283 13 6.88892Z" stroke="currentColor" stroke-width="1.6" stroke-linecap="round" stroke-linejoin="round"/>
<path d="M8 8.55558C8.92047 8.55558 9.66667 7.80939 9.66667 6.88892C9.66667 5.96844 8.92047 5.22225 8 5.22225C7.07953 5.22225 6.33333 5.96844 6.33333 6.88892C6.33333 7.80939 7.07953 8.55558 8 8.55558Z" stroke="currentColor" stroke-width="1.6" stroke-linecap="round" stroke-linejoin="round"/>
</svg>
