<svg width="40" height="40" viewBox="0 0 40 40" fill="none" xmlns="http://www.w3.org/2000/svg">
<path d="M32 17.3333C32 26.6666 20 34.6666 20 34.6666C20 34.6666 8 26.6666 8 17.3333C8 14.1507 9.26428 11.0984 11.5147 8.84797C13.7652 6.59753 16.8174 5.33325 20 5.33325C23.1826 5.33325 26.2348 6.59753 28.4853 8.84797C30.7357 11.0984 32 14.1507 32 17.3333Z" stroke="currentColor" stroke-width="3.5" stroke-linecap="round" stroke-linejoin="round"/>
<path d="M20 21.3333C22.2091 21.3333 24 19.5424 24 17.3333C24 15.1241 22.2091 13.3333 20 13.3333C17.7909 13.3333 16 15.1241 16 17.3333C16 19.5424 17.7909 21.3333 20 21.3333Z" stroke="currentColor" stroke-width="3.5" stroke-linecap="round" stroke-linejoin="round"/>
</svg>
