<svg width="48" height="48" viewBox="0 0 48 48" fill="none" xmlns="http://www.w3.org/2000/svg">
<path d="M40 20.4443C40 32.8888 24 43.5554 24 43.5554C24 43.5554 8 32.8888 8 20.4443C8 16.2009 9.68571 12.1312 12.6863 9.13063C15.6869 6.13005 19.7565 4.44434 24 4.44434C28.2435 4.44434 32.3131 6.13005 35.3137 9.13063C38.3143 12.1312 40 16.2009 40 20.4443Z" stroke="currentColor" stroke-width="4" stroke-linecap="round" stroke-linejoin="round"/>
<path d="M24 25.7777C26.9455 25.7777 29.3333 23.3899 29.3333 20.4443C29.3333 17.4988 26.9455 15.111 24 15.111C21.0545 15.111 18.6667 17.4988 18.6667 20.4443C18.6667 23.3899 21.0545 25.7777 24 25.7777Z" stroke="currentColor" stroke-width="4" stroke-linecap="round" stroke-linejoin="round"/>
</svg>
