<svg width="16" height="16" viewBox="0 0 16 16" fill="none" xmlns="http://www.w3.org/2000/svg">
<g clip-path="url(#clip0_12027_2389)">
<path d="M0.666504 0.666565L15.3332 15.3332M5.99984 5.9999V7.9999C6.00018 8.39521 6.11767 8.78154 6.33746 9.11012C6.55724 9.43869 6.86947 9.69477 7.23471 9.846C7.59994 9.99723 8.0018 10.0368 8.38953 9.95981C8.77726 9.88278 9.13347 9.69258 9.41317 9.41323M9.99984 6.22657V2.66657C10.0003 2.17058 9.81652 1.69211 9.48409 1.32403C9.15165 0.955952 8.69431 0.724526 8.20084 0.674681C7.70737 0.624835 7.21298 0.760127 6.81365 1.05429C6.41432 1.34845 6.13854 1.7805 6.03984 2.26657M11.3332 11.2999C10.6824 11.9642 9.84792 12.4189 8.93691 12.6056C8.0259 12.7924 7.07986 12.7027 6.22017 12.3481C5.36048 11.9935 4.62634 11.3901 4.11195 10.6153C3.59756 9.84059 3.32637 8.92983 3.33317 7.9999V6.66657M12.6665 6.66657V7.9999C12.6663 8.27486 12.6417 8.54926 12.5932 8.8199M7.99984 12.6666V15.3332M5.33317 15.3332H10.6665" stroke="currentColor" stroke-width="1.6" stroke-linecap="round" stroke-linejoin="round"/>
</g>
<defs>
<clipPath id="clip0_12027_2389">
<rect width="16" height="16" fill="white"/>
</clipPath>
</defs>
</svg>
