<svg width="40" height="40" viewBox="0 0 40 40" fill="none" xmlns="http://www.w3.org/2000/svg">
<g clip-path="url(#clip0_12027_2410)">
<path d="M8.3335 16.6665V19.9998C8.3335 23.094 9.56266 26.0615 11.7506 28.2494C13.9385 30.4373 16.906 31.6665 20.0002 31.6665C23.0944 31.6665 26.0618 30.4373 28.2497 28.2494C30.4377 26.0615 31.6668 23.094 31.6668 19.9998V16.6665M20.0002 31.6665V38.3332M13.3335 38.3332H26.6668M20.0002 1.6665C18.6741 1.6665 17.4023 2.19329 16.4646 3.13097C15.5269 4.06865 15.0002 5.34042 15.0002 6.6665V19.9998C15.0002 21.3259 15.5269 22.5977 16.4646 23.5354C17.4023 24.4731 18.6741 24.9998 20.0002 24.9998C21.3262 24.9998 22.598 24.4731 23.5357 23.5354C24.4734 22.5977 25.0002 21.3259 25.0002 19.9998V6.6665C25.0002 5.34042 24.4734 4.06865 23.5357 3.13097C22.598 2.19329 21.3262 1.6665 20.0002 1.6665Z" stroke="currentColor" stroke-width="3.5" stroke-linecap="round" stroke-linejoin="round"/>
</g>
<defs>
<clipPath id="clip0_12027_2410">
<rect width="40" height="40" fill="white"/>
</clipPath>
</defs>
</svg>
