<svg width="32" height="32" viewBox="0 0 32 32" fill="none" xmlns="http://www.w3.org/2000/svg">
<g clip-path="url(#clip0_12027_2395)">
<path d="M1.3335 1.33313L30.6668 30.6665M12.0002 11.9998V15.9998C12.0009 16.7904 12.2358 17.5631 12.6754 18.2202C13.115 18.8774 13.7394 19.3895 14.4699 19.692C15.2004 19.9945 16.0041 20.0737 16.7796 19.9196C17.555 19.7656 18.2674 19.3852 18.8268 18.8265M20.0002 12.4531V5.33313C20.0012 4.34117 19.6335 3.38422 18.9687 2.64806C18.3038 1.9119 17.3891 1.44905 16.4022 1.34936C15.4152 1.24967 14.4264 1.52025 13.6278 2.10858C12.8291 2.69691 12.2776 3.56101 12.0802 4.53313M22.6668 22.5998C21.3652 23.9284 19.6963 24.8377 17.8743 25.2113C16.0523 25.5848 14.1602 25.4054 12.4408 24.6962C10.7214 23.9869 9.25318 22.7802 8.22439 21.2307C7.1956 19.6812 6.65322 17.8597 6.66683 15.9998V13.3331M25.3335 13.3331V15.9998C25.333 16.5497 25.2839 17.0985 25.1868 17.6398M16.0002 25.3331V30.6665M10.6668 30.6665H21.3335" stroke="currentColor" stroke-width="3" stroke-linecap="round" stroke-linejoin="round"/>
</g>
<defs>
<clipPath id="clip0_12027_2395">
<rect width="32" height="32" fill="white"/>
</clipPath>
</defs>
</svg>
