<svg width="32" height="32" viewBox="0 0 32 32" fill="none" xmlns="http://www.w3.org/2000/svg">
<g clip-path="url(#clip0_12027_2408)">
<path d="M6.6665 13.3335V16.0002C6.6665 18.4755 7.64983 20.8495 9.40017 22.5998C11.1505 24.3502 13.5245 25.3335 15.9998 25.3335C18.4752 25.3335 20.8492 24.3502 22.5995 22.5998C24.3498 20.8495 25.3332 18.4755 25.3332 16.0002V13.3335M15.9998 25.3335V30.6668M10.6665 30.6668H21.3332M15.9998 1.3335C14.939 1.3335 13.9216 1.75492 13.1714 2.50507C12.4213 3.25521 11.9998 4.27263 11.9998 5.3335V16.0002C11.9998 17.061 12.4213 18.0784 13.1714 18.8286C13.9216 19.5787 14.939 20.0002 15.9998 20.0002C17.0607 20.0002 18.0781 19.5787 18.8283 18.8286C19.5784 18.0784 19.9998 17.061 19.9998 16.0002V5.3335C19.9998 4.27263 19.5784 3.25521 18.8283 2.50507C18.0781 1.75492 17.0607 1.3335 15.9998 1.3335Z" stroke="currentColor" stroke-width="3" stroke-linecap="round" stroke-linejoin="round"/>
</g>
<defs>
<clipPath id="clip0_12027_2408">
<rect width="32" height="32" fill="white"/>
</clipPath>
</defs>
</svg>
