<svg width="20" height="20" viewBox="0 0 20 20" fill="none" xmlns="http://www.w3.org/2000/svg">
<g clip-path="url(#clip0_12027_2404)">
<path d="M4.1665 8.3335V10.0002C4.1665 11.5473 4.78109 13.031 5.87505 14.125C6.96901 15.2189 8.45274 15.8335 9.99984 15.8335C11.5469 15.8335 13.0307 15.2189 14.1246 14.125C15.2186 13.031 15.8332 11.5473 15.8332 10.0002V8.3335M9.99984 15.8335V19.1668M6.6665 19.1668H13.3332M9.99984 0.833496C9.3368 0.833496 8.70091 1.09689 8.23207 1.56573C7.76323 2.03457 7.49984 2.67045 7.49984 3.3335V10.0002C7.49984 10.6632 7.76323 11.2991 8.23207 11.7679C8.70091 12.2368 9.3368 12.5002 9.99984 12.5002C10.6629 12.5002 11.2988 12.2368 11.7676 11.7679C12.2364 11.2991 12.4998 10.6632 12.4998 10.0002V3.3335C12.4998 2.67045 12.2364 2.03457 11.7676 1.56573C11.2988 1.09689 10.6629 0.833496 9.99984 0.833496Z" stroke="currentColor" stroke-width="2" stroke-linecap="round" stroke-linejoin="round"/>
</g>
<defs>
<clipPath id="clip0_12027_2404">
<rect width="20" height="20" fill="white"/>
</clipPath>
</defs>
</svg>
