<svg width="40" height="40" viewBox="0 0 40 40" fill="none" xmlns="http://www.w3.org/2000/svg">
<g clip-path="url(#clip0_12027_2397)">
<path d="M1.6665 1.66666L38.3332 38.3333M14.9998 15V20C15.0007 20.9883 15.2944 21.9541 15.8439 22.7755C16.3934 23.597 17.1739 24.2372 18.087 24.6152C19.0001 24.9933 20.0048 25.0923 20.9741 24.8998C21.9434 24.7072 22.8339 24.2317 23.5332 23.5333M24.9998 15.5667V6.66666C25.0011 5.42671 24.5416 4.23052 23.7105 3.31032C22.8794 2.39012 21.736 1.81156 20.5023 1.68695C19.2687 1.56233 18.0327 1.90056 17.0344 2.63597C16.036 3.37138 15.3466 4.4515 15.0998 5.66666M28.3332 28.25C26.7061 29.9107 24.6201 31.0474 22.3425 31.5143C20.065 31.9812 17.6999 31.757 15.5507 30.8705C13.4014 29.9839 11.5661 28.4754 10.2801 26.5386C8.99414 24.6017 8.31616 22.3248 8.33317 20V16.6667M31.6665 16.6667V20C31.6659 20.6874 31.6046 21.3734 31.4832 22.05M19.9998 31.6667V38.3333M13.3332 38.3333H26.6665" stroke="currentColor" stroke-width="3.5" stroke-linecap="round" stroke-linejoin="round"/>
</g>
<defs>
<clipPath id="clip0_12027_2397">
<rect width="40" height="40" fill="white"/>
</clipPath>
</defs>
</svg>
