<svg width="20" height="20" viewBox="0 0 20 20" fill="none" xmlns="http://www.w3.org/2000/svg">
<g clip-path="url(#clip0_12027_2391)">
<path d="M0.833496 0.833573L19.1668 19.1669M7.50016 7.50024V10.0002C7.5006 10.4944 7.64746 10.9773 7.92219 11.388C8.19692 11.7987 8.58721 12.1188 9.04375 12.3079C9.5003 12.4969 10.0026 12.5464 10.4873 12.4501C10.9719 12.3538 11.4172 12.1161 11.7668 11.7669M12.5002 7.78357V3.33357C12.5008 2.7136 12.271 2.11551 11.8555 1.65541C11.4399 1.19531 10.8682 0.906024 10.2514 0.843717C9.63457 0.781411 9.01659 0.950525 8.51743 1.31823C8.01826 1.68593 7.67353 2.226 7.55016 2.83357M14.1668 14.1252C13.3533 14.9556 12.3103 15.524 11.1715 15.7574C10.0327 15.9909 8.85019 15.8788 7.77558 15.4355C6.70096 14.9922 5.7833 14.238 5.1403 13.2695C4.49731 12.3011 4.15832 11.1627 4.16683 10.0002V8.33357M15.8335 8.33357V10.0002C15.8332 10.3439 15.8025 10.6869 15.7418 11.0252M10.0002 15.8336V19.1669M6.66683 19.1669H13.3335" stroke="currentColor" stroke-width="2" stroke-linecap="round" stroke-linejoin="round"/>
</g>
<defs>
<clipPath id="clip0_12027_2391">
<rect width="20" height="20" fill="white"/>
</clipPath>
</defs>
</svg>
