<svg width="16" height="16" viewBox="0 0 16 16" fill="none" xmlns="http://www.w3.org/2000/svg">
<g clip-path="url(#clip0_12027_2402)">
<path d="M3.3335 6.6665V7.99984C3.3335 9.23751 3.82516 10.4245 4.70033 11.2997C5.5755 12.1748 6.76249 12.6665 8.00016 12.6665C9.23784 12.6665 10.4248 12.1748 11.3 11.2997C12.1752 10.4245 12.6668 9.23751 12.6668 7.99984V6.6665M8.00016 12.6665V15.3332M5.3335 15.3332H10.6668M8.00016 0.666504C7.46973 0.666504 6.96102 0.877218 6.58595 1.25229C6.21088 1.62736 6.00016 2.13607 6.00016 2.6665V7.99984C6.00016 8.53027 6.21088 9.03898 6.58595 9.41405C6.96102 9.78912 7.46973 9.99984 8.00016 9.99984C8.5306 9.99984 9.0393 9.78912 9.41438 9.41405C9.78945 9.03898 10.0002 8.53027 10.0002 7.99984V2.6665C10.0002 2.13607 9.78945 1.62736 9.41438 1.25229C9.0393 0.877218 8.5306 0.666504 8.00016 0.666504Z" stroke="currentColor" stroke-width="1.6" stroke-linecap="round" stroke-linejoin="round"/>
</g>
<defs>
<clipPath id="clip0_12027_2402">
<rect width="16" height="16" fill="white"/>
</clipPath>
</defs>
</svg>
