<svg width="40" height="40" viewBox="0 0 40 40" fill="none" xmlns="http://www.w3.org/2000/svg">
<path d="M19.9998 21.6668C20.9203 21.6668 21.6665 20.9206 21.6665 20.0002C21.6665 19.0797 20.9203 18.3335 19.9998 18.3335C19.0794 18.3335 18.3332 19.0797 18.3332 20.0002C18.3332 20.9206 19.0794 21.6668 19.9998 21.6668Z" stroke="currentColor" stroke-width="3.5" stroke-linecap="round" stroke-linejoin="round"/>
<path d="M31.6665 21.6668C32.587 21.6668 33.3332 20.9206 33.3332 20.0002C33.3332 19.0797 32.587 18.3335 31.6665 18.3335C30.746 18.3335 29.9998 19.0797 29.9998 20.0002C29.9998 20.9206 30.746 21.6668 31.6665 21.6668Z" stroke="currentColor" stroke-width="3.5" stroke-linecap="round" stroke-linejoin="round"/>
<path d="M8.33317 21.6668C9.25365 21.6668 9.99984 20.9206 9.99984 20.0002C9.99984 19.0797 9.25365 18.3335 8.33317 18.3335C7.4127 18.3335 6.6665 19.0797 6.6665 20.0002C6.6665 20.9206 7.4127 21.6668 8.33317 21.6668Z" stroke="currentColor" stroke-width="3.5" stroke-linecap="round" stroke-linejoin="round"/>
</svg>
