<svg width="32" height="32" viewBox="0 0 32 32" fill="none" xmlns="http://www.w3.org/2000/svg">
<path d="M16.0002 17.3332C16.7365 17.3332 17.3335 16.7362 17.3335 15.9998C17.3335 15.2635 16.7365 14.6665 16.0002 14.6665C15.2638 14.6665 14.6668 15.2635 14.6668 15.9998C14.6668 16.7362 15.2638 17.3332 16.0002 17.3332Z" stroke="currentColor" stroke-width="3" stroke-linecap="round" stroke-linejoin="round"/>
<path d="M25.3335 17.3332C26.0699 17.3332 26.6668 16.7362 26.6668 15.9998C26.6668 15.2635 26.0699 14.6665 25.3335 14.6665C24.5971 14.6665 24.0002 15.2635 24.0002 15.9998C24.0002 16.7362 24.5971 17.3332 25.3335 17.3332Z" stroke="currentColor" stroke-width="3" stroke-linecap="round" stroke-linejoin="round"/>
<path d="M6.66683 17.3332C7.40321 17.3332 8.00016 16.7362 8.00016 15.9998C8.00016 15.2635 7.40321 14.6665 6.66683 14.6665C5.93045 14.6665 5.3335 15.2635 5.3335 15.9998C5.3335 16.7362 5.93045 17.3332 6.66683 17.3332Z" stroke="currentColor" stroke-width="3" stroke-linecap="round" stroke-linejoin="round"/>
</svg>
