<svg width="40" height="40" viewBox="0 0 40 40" fill="none" xmlns="http://www.w3.org/2000/svg">
<path d="M20.0002 21.6665C20.9206 21.6665 21.6668 20.9203 21.6668 19.9998C21.6668 19.0794 20.9206 18.3332 20.0002 18.3332C19.0797 18.3332 18.3335 19.0794 18.3335 19.9998C18.3335 20.9203 19.0797 21.6665 20.0002 21.6665Z" stroke="currentColor" stroke-width="3.5" stroke-linecap="round" stroke-linejoin="round"/>
<path d="M20.0002 9.99984C20.9206 9.99984 21.6668 9.25365 21.6668 8.33317C21.6668 7.4127 20.9206 6.6665 20.0002 6.6665C19.0797 6.6665 18.3335 7.4127 18.3335 8.33317C18.3335 9.25365 19.0797 9.99984 20.0002 9.99984Z" stroke="currentColor" stroke-width="3.5" stroke-linecap="round" stroke-linejoin="round"/>
<path d="M20.0002 33.3332C20.9206 33.3332 21.6668 32.587 21.6668 31.6665C21.6668 30.746 20.9206 29.9998 20.0002 29.9998C19.0797 29.9998 18.3335 30.746 18.3335 31.6665C18.3335 32.587 19.0797 33.3332 20.0002 33.3332Z" stroke="currentColor" stroke-width="3.5" stroke-linecap="round" stroke-linejoin="round"/>
</svg>
