<svg width="32" height="32" viewBox="0 0 32 32" fill="none" xmlns="http://www.w3.org/2000/svg">
<path d="M15.9998 17.3335C16.7362 17.3335 17.3332 16.7365 17.3332 16.0002C17.3332 15.2638 16.7362 14.6668 15.9998 14.6668C15.2635 14.6668 14.6665 15.2638 14.6665 16.0002C14.6665 16.7365 15.2635 17.3335 15.9998 17.3335Z" stroke="currentColor" stroke-width="3" stroke-linecap="round" stroke-linejoin="round"/>
<path d="M15.9998 8.00016C16.7362 8.00016 17.3332 7.40321 17.3332 6.66683C17.3332 5.93045 16.7362 5.3335 15.9998 5.3335C15.2635 5.3335 14.6665 5.93045 14.6665 6.66683C14.6665 7.40321 15.2635 8.00016 15.9998 8.00016Z" stroke="currentColor" stroke-width="3" stroke-linecap="round" stroke-linejoin="round"/>
<path d="M15.9998 26.6668C16.7362 26.6668 17.3332 26.0699 17.3332 25.3335C17.3332 24.5971 16.7362 24.0002 15.9998 24.0002C15.2635 24.0002 14.6665 24.5971 14.6665 25.3335C14.6665 26.0699 15.2635 26.6668 15.9998 26.6668Z" stroke="currentColor" stroke-width="3" stroke-linecap="round" stroke-linejoin="round"/>
</svg>
