<svg width="40" height="40" viewBox="0 0 40 40" fill="none" xmlns="http://www.w3.org/2000/svg">
<path d="M15 30V8.33333L35 5V26.6667M15 30C15 32.7614 12.7614 35 10 35C7.23858 35 5 32.7614 5 30C5 27.2386 7.23858 25 10 25C12.7614 25 15 27.2386 15 30ZM35 26.6667C35 29.4281 32.7614 31.6667 30 31.6667C27.2386 31.6667 25 29.4281 25 26.6667C25 23.9052 27.2386 21.6667 30 21.6667C32.7614 21.6667 35 23.9052 35 26.6667Z" stroke="currentColor" stroke-width="3.5" stroke-linecap="round" stroke-linejoin="round"/>
</svg>
