<svg width="48" height="48" viewBox="0 0 48 48" fill="none" xmlns="http://www.w3.org/2000/svg">
<path d="M42.8801 22.0998L24.5001 40.4798C22.2484 42.7315 19.1945 43.9965 16.0101 43.9965C12.8257 43.9965 9.77178 42.7315 7.52009 40.4798C5.2684 38.2282 4.00342 35.1742 4.00342 31.9898C4.00342 28.8055 5.2684 25.7515 7.52009 23.4998L25.9001 5.11984C27.4012 3.61871 29.4372 2.77539 31.5601 2.77539C33.683 2.77539 35.719 3.61871 37.2201 5.11984C38.7212 6.62096 39.5645 8.65693 39.5645 10.7798C39.5645 12.9028 38.7212 14.9387 37.2201 16.4398L18.8201 34.8198C18.0695 35.5704 17.0515 35.9921 15.9901 35.9921C14.9286 35.9921 13.9107 35.5704 13.1601 34.8198C12.4095 34.0693 11.9879 33.0513 11.9879 31.9898C11.9879 30.9284 12.4095 29.9104 13.1601 29.1598L30.1401 12.1998" stroke="currentColor" stroke-width="4" stroke-linecap="round" stroke-linejoin="round"/>
</svg>
