<svg width="40" height="40" viewBox="0 0 40 40" fill="none" xmlns="http://www.w3.org/2000/svg">
<path d="M35.7332 18.4167L20.4165 33.7334C18.5401 35.6098 15.9951 36.6639 13.3415 36.6639C10.6879 36.6639 8.1429 35.6098 6.2665 33.7334C4.39009 31.857 3.33594 29.312 3.33594 26.6584C3.33594 24.0047 4.39009 21.4598 6.2665 19.5834L21.5832 4.2667C22.8341 3.01576 24.5307 2.31299 26.2998 2.31299C28.0689 2.31299 29.7656 3.01576 31.0165 4.2667C32.2674 5.51763 32.9702 7.21427 32.9702 8.98336C32.9702 10.7525 32.2674 12.4491 31.0165 13.7L15.6832 29.0167C15.0577 29.6422 14.2094 29.9935 13.3248 29.9935C12.4403 29.9935 11.592 29.6422 10.9665 29.0167C10.341 28.3912 9.98965 27.5429 9.98965 26.6584C9.98965 25.7738 10.341 24.9255 10.9665 24.3L25.1165 10.1667" stroke="currentColor" stroke-width="3.5" stroke-linecap="round" stroke-linejoin="round"/>
</svg>
