<svg width="16" height="16" viewBox="0 0 16 16" fill="none" xmlns="http://www.w3.org/2000/svg">
<g clip-path="url(#clip0_12027_2740)">
<path d="M7.11984 8.87317C7.79641 9.55034 8.56105 10.1333 9.39317 10.6065L10.2398 9.75984C10.4211 9.5806 10.6499 9.45707 10.8993 9.4039C11.1486 9.35073 11.4079 9.37014 11.6465 9.45984C12.2514 9.68554 12.8798 9.84209 13.5198 9.9265C13.8402 9.97179 14.1332 10.132 14.3441 10.3773C14.5551 10.6226 14.6697 10.9363 14.6665 11.2598V13.2598C14.6673 13.4455 14.6292 13.6293 14.5548 13.7994C14.4805 13.9695 14.3714 14.1222 14.2346 14.2477C14.0977 14.3733 13.9362 14.4688 13.7603 14.5283C13.5845 14.5878 13.3981 14.6099 13.2132 14.5932C11.1617 14.3703 9.19117 13.6693 7.45984 12.5465C6.65668 12.0365 5.91219 11.4396 5.23984 10.7665M3.45984 8.53984C2.33707 6.8085 1.63608 4.83795 1.41317 2.7865C1.39651 2.60215 1.41842 2.41634 1.4775 2.24092C1.53659 2.0655 1.63155 1.9043 1.75635 1.76758C1.88114 1.63087 2.03304 1.52164 2.20236 1.44685C2.37169 1.37206 2.55473 1.33334 2.73984 1.33317H4.73984C5.06337 1.32999 5.37703 1.44456 5.62235 1.65553C5.86766 1.8665 6.02789 2.15947 6.07317 2.47984C6.15759 3.11988 6.31414 3.74832 6.53984 4.35317C6.62953 4.59179 6.64895 4.85111 6.59577 5.10042C6.5426 5.34973 6.41908 5.57858 6.23984 5.75984L5.39317 6.6065M15.3332 0.666504L0.666504 15.3332" stroke="currentColor" stroke-width="1.6" stroke-linecap="round" stroke-linejoin="round"/>
</g>
<defs>
<clipPath id="clip0_12027_2740">
<rect width="16" height="16" fill="white"/>
</clipPath>
</defs>
</svg>
