<svg width="32" height="32" viewBox="0 0 32 32" fill="none" xmlns="http://www.w3.org/2000/svg">
<g clip-path="url(#clip0_12027_2746)">
<path d="M14.2402 17.7468C15.5933 19.1012 17.1226 20.2672 18.7868 21.2135L20.4802 19.5202C20.8427 19.1617 21.3004 18.9146 21.799 18.8083C22.2976 18.7019 22.8163 18.7408 23.2935 18.9202C24.5032 19.3716 25.7601 19.6847 27.0402 19.8535C27.6809 19.9441 28.2668 20.2645 28.6888 20.7551C29.1107 21.2458 29.3399 21.8731 29.3335 22.5202V26.5202C29.335 26.8915 29.2589 27.2591 29.1102 27.5993C28.9614 27.9395 28.7432 28.2449 28.4696 28.496C28.196 28.747 27.8729 28.9381 27.5212 29.0571C27.1694 29.1761 26.7967 29.2203 26.4268 29.1868C22.3239 28.741 18.3828 27.339 14.9202 25.0935C13.3139 24.0736 11.8249 22.8797 10.4802 21.5335M6.92016 17.0802C4.67464 13.6175 3.27264 9.67638 2.82683 5.5735C2.79351 5.20479 2.83733 4.83318 2.9555 4.48233C3.07366 4.13148 3.26359 3.80908 3.51318 3.53566C3.76278 3.26223 4.06657 3.04378 4.40522 2.89419C4.74387 2.74461 5.10995 2.66718 5.48016 2.66683H9.48016C10.1272 2.66046 10.7546 2.8896 11.2452 3.31154C11.7358 3.73348 12.0563 4.31943 12.1468 4.96016C12.3157 6.24025 12.6288 7.49713 13.0802 8.70683C13.2596 9.18406 13.2984 9.70272 13.192 10.2013C13.0857 10.7 12.8386 11.1576 12.4802 11.5202L10.7868 13.2135M30.6668 1.3335L1.3335 30.6668" stroke="currentColor" stroke-width="3" stroke-linecap="round" stroke-linejoin="round"/>
</g>
<defs>
<clipPath id="clip0_12027_2746">
<rect width="32" height="32" fill="white"/>
</clipPath>
</defs>
</svg>
