<svg width="40" height="40" viewBox="0 0 40 40" fill="none" xmlns="http://www.w3.org/2000/svg">
<g clip-path="url(#clip0_12027_2748)">
<path d="M17.7998 22.1832C19.4913 23.8761 21.4029 25.3336 23.4832 26.5165L25.5998 24.3998C26.053 23.9517 26.6251 23.6429 27.2484 23.51C27.8716 23.3771 28.52 23.4256 29.1165 23.6498C30.6286 24.2141 32.1997 24.6055 33.7998 24.8165C34.6008 24.9297 35.3332 25.3303 35.8606 25.9436C36.388 26.5569 36.6745 27.341 36.6665 28.1498V33.1498C36.6684 33.614 36.5733 34.0735 36.3874 34.4987C36.2014 34.924 35.9287 35.3058 35.5866 35.6196C35.2446 35.9334 34.8408 36.1723 34.4011 36.321C33.9614 36.4697 33.4955 36.5249 33.0332 36.4832C27.9046 35.9259 22.9782 34.1734 18.6498 31.3665C16.642 30.0916 14.7807 28.5993 13.0998 26.9165M8.64984 21.3498C5.84293 17.0215 4.09044 12.0951 3.53317 6.9665C3.49152 6.50562 3.5463 6.0411 3.694 5.60254C3.84171 5.16399 4.07912 4.76099 4.39111 4.41921C4.70311 4.07743 5.08285 3.80435 5.50616 3.61737C5.92947 3.43039 6.38707 3.33361 6.84984 3.33317H11.8498C12.6587 3.32521 13.4428 3.61163 14.0561 4.13906C14.6694 4.66648 15.07 5.39891 15.1832 6.19984C15.3942 7.79995 15.7856 9.37105 16.3498 10.8832C16.5741 11.4797 16.6226 12.128 16.4897 12.7513C16.3568 13.3746 16.0479 13.9467 15.5998 14.3998L13.4832 16.5165M38.3332 1.6665L1.6665 38.3332" stroke="currentColor" stroke-width="3.5" stroke-linecap="round" stroke-linejoin="round"/>
</g>
<defs>
<clipPath id="clip0_12027_2748">
<rect width="40" height="40" fill="white"/>
</clipPath>
</defs>
</svg>
