<svg width="40" height="40" viewBox="0 0 40 40" fill="none" xmlns="http://www.w3.org/2000/svg">
<g clip-path="url(#clip0_12027_2735)">
<path d="M38.3335 1.6665L28.3335 11.6665M28.3335 1.6665L38.3335 11.6665M36.6669 28.1998V33.1998C36.6688 33.664 36.5737 34.1235 36.3877 34.5487C36.2018 34.974 35.929 35.3558 35.587 35.6696C35.245 35.9834 34.8412 36.2223 34.4015 36.371C33.9618 36.5197 33.4958 36.5749 33.0335 36.5332C27.9049 35.9759 22.9785 34.2234 18.6502 31.4165C14.6233 28.8576 11.2091 25.4435 8.65021 21.4165C5.83351 17.0685 4.08062 12.1182 3.53355 6.9665C3.4919 6.50562 3.54667 6.0411 3.69438 5.60254C3.84209 5.16399 4.0795 4.76099 4.39149 4.41921C4.70348 4.07743 5.08322 3.80435 5.50653 3.61737C5.92984 3.43039 6.38745 3.33361 6.85021 3.33317H11.8502C12.6591 3.32521 13.4432 3.61163 14.0565 4.13906C14.6698 4.66648 15.0703 5.39891 15.1835 6.19984C15.3946 7.79995 15.786 9.37105 16.3502 10.8832C16.5745 11.4797 16.623 12.128 16.4901 12.7513C16.3571 13.3746 16.0483 13.9467 15.6002 14.3998L13.4835 16.5165C15.8561 20.6891 19.311 24.1439 23.4835 26.5165L25.6002 24.3998C26.0534 23.9517 26.6255 23.6429 27.2487 23.51C27.872 23.3771 28.5203 23.4256 29.1169 23.6498C30.629 24.2141 32.2001 24.6055 33.8002 24.8165C34.6098 24.9307 35.3492 25.3385 35.8778 25.9623C36.4063 26.5861 36.6872 27.3825 36.6669 28.1998Z" stroke="currentColor" stroke-width="3.5" stroke-linecap="round" stroke-linejoin="round"/>
</g>
<defs>
<clipPath id="clip0_12027_2735">
<rect width="40" height="40" fill="white"/>
</clipPath>
</defs>
</svg>
