<svg width="20" height="20" viewBox="0 0 20 20" fill="none" xmlns="http://www.w3.org/2000/svg">
<g clip-path="url(#clip0_12027_2742)">
<path d="M8.90016 11.0918C9.74587 11.9383 10.7017 12.6671 11.7418 13.2585L12.8002 12.2002C13.0267 11.9761 13.3128 11.8217 13.6244 11.7552C13.9361 11.6888 14.2602 11.713 14.5585 11.8252C15.3146 12.1073 16.1001 12.303 16.9002 12.4085C17.3006 12.4651 17.6668 12.6654 17.9306 12.972C18.1943 13.2787 18.3375 13.6707 18.3335 14.0752V16.5752C18.3344 16.8072 18.2869 17.037 18.1939 17.2496C18.1009 17.4623 17.9646 17.6532 17.7936 17.81C17.6225 17.9669 17.4206 18.0864 17.2008 18.1608C16.9809 18.2351 16.748 18.2627 16.5168 18.2418C13.9525 17.9632 11.4893 17.0869 9.32516 15.6835C8.32122 15.046 7.3906 14.2999 6.55016 13.4585M4.32516 10.6752C2.92171 8.511 2.04546 6.0478 1.76683 3.4835C1.746 3.25305 1.77339 3.0208 1.84725 2.80152C1.9211 2.58224 2.0398 2.38074 2.1958 2.20985C2.3518 2.03896 2.54167 1.90242 2.75332 1.80893C2.96498 1.71544 3.19378 1.66705 3.42516 1.66683H5.92516C6.32958 1.66285 6.72166 1.80606 7.0283 2.06977C7.33494 2.33349 7.53523 2.6997 7.59183 3.10016C7.69735 3.90022 7.89304 4.68577 8.17516 5.44183C8.28728 5.7401 8.31155 6.06426 8.24508 6.3759C8.17862 6.68753 8.02422 6.97359 7.80016 7.20016L6.74183 8.2585M19.1668 0.833496L0.833496 19.1668" stroke="currentColor" stroke-width="2" stroke-linecap="round" stroke-linejoin="round"/>
</g>
<defs>
<clipPath id="clip0_12027_2742">
<rect width="20" height="20" fill="white"/>
</clipPath>
</defs>
</svg>
