<svg width="32" height="32" viewBox="0 0 32 32" fill="none" xmlns="http://www.w3.org/2000/svg">
<path d="M28.2799 21.1865C27.4316 23.1925 26.1049 24.9601 24.4157 26.3349C22.7265 27.7097 20.7262 28.6497 18.5898 29.0729C16.4534 29.496 14.2458 29.3894 12.1601 28.7622C10.0744 28.1351 8.17405 27.0066 6.62525 25.4754C5.07644 23.9442 3.92631 22.0568 3.2754 19.9784C2.62449 17.9 2.49264 15.6938 2.89135 13.5527C3.29007 11.4115 4.20721 9.40067 5.56261 7.69588C6.91801 5.99108 8.6704 4.64426 10.6666 3.77317M29.3332 15.9998C29.3332 14.2489 28.9883 12.5151 28.3183 10.8974C27.6482 9.27972 26.6661 7.80986 25.428 6.57175C24.1899 5.33363 22.72 4.35151 21.1023 3.68144C19.4847 3.01138 17.7508 2.6665 15.9999 2.6665V15.9998H29.3332Z" stroke="currentColor" stroke-width="3" stroke-linecap="round" stroke-linejoin="round"/>
</svg>
