<svg width="40" height="40" viewBox="0 0 40 40" fill="none" xmlns="http://www.w3.org/2000/svg">
<path d="M35.3501 26.4835C34.2898 28.991 32.6314 31.2005 30.5199 32.919C28.4084 34.6375 25.9081 35.8125 23.2375 36.3415C20.5669 36.8704 17.8075 36.7371 15.2003 35.9532C12.5932 35.1692 10.2178 33.7586 8.2818 31.8446C6.34579 29.9306 4.90813 27.5714 4.09449 24.9734C3.28086 22.3754 3.11604 19.6176 3.61443 16.9412C4.11283 14.2648 5.25926 11.7512 6.95351 9.62021C8.64776 7.48921 10.8382 5.80569 13.3334 4.71683M36.6668 20.0002C36.6668 17.8115 36.2357 15.6442 35.3981 13.6221C34.5605 11.6 33.3329 9.76269 31.7852 8.21505C30.2376 6.66741 28.4003 5.43975 26.3782 4.60217C24.3561 3.76459 22.1888 3.3335 20.0001 3.3335V20.0002H36.6668Z" stroke="currentColor" stroke-width="3.5" stroke-linecap="round" stroke-linejoin="round"/>
</svg>
