<svg width="40" height="40" viewBox="0 0 40 40" fill="none" xmlns="http://www.w3.org/2000/svg">
<path d="M13.3335 16.6667L20.0002 23.3333L26.6668 16.6667M6.66683 5H33.3335C34.2176 5 35.0654 5.35119 35.6905 5.97631C36.3156 6.60143 36.6668 7.44928 36.6668 8.33333V18.3333C36.6668 22.7536 34.9109 26.9928 31.7853 30.1184C28.6597 33.2441 24.4204 35 20.0002 35C17.8115 35 15.6442 34.5689 13.6221 33.7313C11.6 32.8937 9.76269 31.6661 8.21505 30.1184C5.08944 26.9928 3.3335 22.7536 3.3335 18.3333V8.33333C3.3335 7.44928 3.68469 6.60143 4.30981 5.97631C4.93493 5.35119 5.78277 5 6.66683 5Z" stroke="currentColor" stroke-width="3.5" stroke-linecap="round" stroke-linejoin="round"/>
</svg>
