<svg width="16" height="16" viewBox="0 0 16 16" fill="none" xmlns="http://www.w3.org/2000/svg">
<path d="M5.3335 6.66667L8.00016 9.33333L10.6668 6.66667M2.66683 2H13.3335C13.6871 2 14.0263 2.14048 14.2763 2.39052C14.5264 2.64057 14.6668 2.97971 14.6668 3.33333V7.33333C14.6668 9.10144 13.9645 10.7971 12.7142 12.0474C11.464 13.2976 9.76827 14 8.00016 14C7.12468 14 6.25778 13.8276 5.44894 13.4925C4.6401 13.1575 3.90517 12.6664 3.28612 12.0474C2.03588 10.7971 1.3335 9.10144 1.3335 7.33333V3.33333C1.3335 2.97971 1.47397 2.64057 1.72402 2.39052C1.97407 2.14048 2.31321 2 2.66683 2Z" stroke="currentColor" stroke-width="1.6" stroke-linecap="round" stroke-linejoin="round"/>
</svg>
