<svg width="32" height="32" viewBox="0 0 32 32" fill="none" xmlns="http://www.w3.org/2000/svg">
<path d="M10.6665 13.3333L15.9998 18.6667L21.3332 13.3333M5.33317 4H26.6665C27.3737 4 28.052 4.28095 28.5521 4.78105C29.0522 5.28115 29.3332 5.95942 29.3332 6.66667V14.6667C29.3332 18.2029 27.9284 21.5943 25.4279 24.0948C22.9274 26.5952 19.5361 28 15.9998 28C14.2489 28 12.5151 27.6551 10.8974 26.9851C9.27972 26.315 7.80986 25.3329 6.57175 24.0948C4.07126 21.5943 2.6665 18.2029 2.6665 14.6667V6.66667C2.6665 5.95942 2.94746 5.28115 3.44755 4.78105C3.94765 4.28095 4.62593 4 5.33317 4Z" stroke="currentColor" stroke-width="3" stroke-linecap="round" stroke-linejoin="round"/>
</svg>
