<svg width="16" height="16" viewBox="0 0 16 16" fill="none" xmlns="http://www.w3.org/2000/svg">
<g clip-path="url(#clip0_12027_2883)">
<path d="M4.00016 6.00016V1.3335H12.0002V6.00016M4.00016 12.0002H2.66683C2.31321 12.0002 1.97407 11.8597 1.72402 11.6096C1.47397 11.3596 1.3335 11.0205 1.3335 10.6668V7.3335C1.3335 6.97987 1.47397 6.64074 1.72402 6.39069C1.97407 6.14064 2.31321 6.00016 2.66683 6.00016H13.3335C13.6871 6.00016 14.0263 6.14064 14.2763 6.39069C14.5264 6.64074 14.6668 6.97987 14.6668 7.3335V10.6668C14.6668 11.0205 14.5264 11.3596 14.2763 11.6096C14.0263 11.8597 13.6871 12.0002 13.3335 12.0002H12.0002M4.00016 9.3335H12.0002V14.6668H4.00016V9.3335Z" stroke="currentColor" stroke-width="1.6" stroke-linecap="round" stroke-linejoin="round"/>
</g>
<defs>
<clipPath id="clip0_12027_2883">
<rect width="16" height="16" fill="white"/>
</clipPath>
</defs>
</svg>
