<svg width="32" height="32" viewBox="0 0 32 32" fill="none" xmlns="http://www.w3.org/2000/svg">
<path d="M7.99984 11.9998V2.6665H23.9998V11.9998M7.99984 23.9998H5.33317C4.62593 23.9998 3.94765 23.7189 3.44755 23.2188C2.94746 22.7187 2.6665 22.0404 2.6665 21.3332V14.6665C2.6665 13.9593 2.94746 13.281 3.44755 12.7809C3.94765 12.2808 4.62593 11.9998 5.33317 11.9998H26.6665C27.3737 11.9998 28.052 12.2808 28.5521 12.7809C29.0522 13.281 29.3332 13.9593 29.3332 14.6665V21.3332C29.3332 22.0404 29.0522 22.7187 28.5521 23.2188C28.052 23.7189 27.3737 23.9998 26.6665 23.9998H23.9998M7.99984 18.6665H23.9998V29.3332H7.99984V18.6665Z" stroke="currentColor" stroke-width="3" stroke-linecap="round" stroke-linejoin="round"/>
</svg>
