<svg width="20" height="20" viewBox="0 0 20 20" fill="none" xmlns="http://www.w3.org/2000/svg">
<g clip-path="url(#clip0_12027_2885)">
<path d="M4.99984 7.49984V1.6665H14.9998V7.49984M4.99984 14.9998H3.33317C2.89114 14.9998 2.46722 14.8242 2.15466 14.5117C1.8421 14.1991 1.6665 13.7752 1.6665 13.3332V9.1665C1.6665 8.72448 1.8421 8.30055 2.15466 7.98799C2.46722 7.67543 2.89114 7.49984 3.33317 7.49984H16.6665C17.1085 7.49984 17.5325 7.67543 17.845 7.98799C18.1576 8.30055 18.3332 8.72448 18.3332 9.1665V13.3332C18.3332 13.7752 18.1576 14.1991 17.845 14.5117C17.5325 14.8242 17.1085 14.9998 16.6665 14.9998H14.9998M4.99984 11.6665H14.9998V18.3332H4.99984V11.6665Z" stroke="currentColor" stroke-width="2" stroke-linecap="round" stroke-linejoin="round"/>
</g>
<defs>
<clipPath id="clip0_12027_2885">
<rect width="20" height="20" fill="white"/>
</clipPath>
</defs>
</svg>
