<svg width="40" height="40" viewBox="0 0 40 40" fill="none" xmlns="http://www.w3.org/2000/svg">
<path d="M10.0002 15.0002V3.3335H30.0002V15.0002M10.0002 30.0002H6.66683C5.78277 30.0002 4.93493 29.649 4.30981 29.0239C3.68469 28.3987 3.3335 27.5509 3.3335 26.6668V18.3335C3.3335 17.4494 3.68469 16.6016 4.30981 15.9765C4.93493 15.3514 5.78277 15.0002 6.66683 15.0002H33.3335C34.2176 15.0002 35.0654 15.3514 35.6905 15.9765C36.3156 16.6016 36.6668 17.4494 36.6668 18.3335V26.6668C36.6668 27.5509 36.3156 28.3987 35.6905 29.0239C35.0654 29.649 34.2176 30.0002 33.3335 30.0002H30.0002M10.0002 23.3335H30.0002V36.6668H10.0002V23.3335Z" stroke="currentColor" stroke-width="3.5" stroke-linecap="round" stroke-linejoin="round"/>
</svg>
