<svg width="40" height="40" viewBox="0 0 40 40" fill="none" xmlns="http://www.w3.org/2000/svg">
<path d="M27.0667 12.9335C27.9965 13.8622 28.734 14.9651 29.2373 16.1791C29.7405 17.393 29.9996 18.6943 29.9996 20.0085C29.9996 21.3226 29.7405 22.6239 29.2373 23.8379C28.734 25.0518 27.9965 26.1547 27.0667 27.0835M12.9334 27.0668C12.0036 26.1381 11.266 25.0352 10.7628 23.8212C10.2595 22.6072 10.0005 21.306 10.0005 19.9918C10.0005 18.6776 10.2595 17.3764 10.7628 16.1624C11.266 14.9484 12.0036 13.8455 12.9334 12.9168M31.7833 8.2168C34.9079 11.3423 36.6631 15.5807 36.6631 20.0001C36.6631 24.4195 34.9079 28.658 31.7833 31.7835M8.21669 31.7835C5.09217 28.658 3.33691 24.4195 3.33691 20.0001C3.33691 15.5807 5.09217 11.3423 8.21669 8.2168M23.3334 20.0001C23.3334 21.8411 21.841 23.3335 20 23.3335C18.1591 23.3335 16.6667 21.8411 16.6667 20.0001C16.6667 18.1592 18.1591 16.6668 20 16.6668C21.841 16.6668 23.3334 18.1592 23.3334 20.0001Z" stroke="currentColor" stroke-width="3.5" stroke-linecap="round" stroke-linejoin="round"/>
</svg>
