<svg width="48" height="48" viewBox="0 0 48 48" fill="none" xmlns="http://www.w3.org/2000/svg">
<path d="M32.48 15.5199C33.5957 16.6343 34.4808 17.9578 35.0847 19.4146C35.6886 20.8714 35.9994 22.4329 35.9994 24.0099C35.9994 25.5868 35.6886 27.1484 35.0847 28.6051C34.4808 30.0619 33.5957 31.3854 32.48 32.4999M15.52 32.4799C14.4043 31.3654 13.5192 30.0419 12.9153 28.5851C12.3114 27.1284 12.0006 25.5668 12.0006 23.9899C12.0006 22.4129 12.3114 20.8514 12.9153 19.3946C13.5192 17.9378 14.4043 16.6143 15.52 15.4999M38.14 9.85986C41.8894 13.6104 43.9957 18.6966 43.9957 23.9999C43.9957 29.3031 41.8894 34.3893 38.14 38.1399M9.86 38.1399C6.11058 34.3893 4.00427 29.3031 4.00427 23.9999C4.00427 18.6966 6.11058 13.6104 9.86 9.85986M28 23.9999C28 26.209 26.2091 27.9999 24 27.9999C21.7909 27.9999 20 26.209 20 23.9999C20 21.7907 21.7909 19.9999 24 19.9999C26.2091 19.9999 28 21.7907 28 23.9999Z" stroke="currentColor" stroke-width="4" stroke-linecap="round" stroke-linejoin="round"/>
</svg>
