<svg width="32" height="32" viewBox="0 0 32 32" fill="none" xmlns="http://www.w3.org/2000/svg">
<g clip-path="url(#clip0_12027_2915)">
<path d="M9.33325 13.3331H1.33325V5.33311M1.33325 13.3331L7.51992 7.51978C8.95292 6.08606 10.7258 5.03872 12.673 4.47547C14.6202 3.91223 16.6784 3.85144 18.6555 4.29879C20.6326 4.74613 22.4642 5.68702 23.9793 7.03367C25.4944 8.38031 26.6437 10.0888 27.3199 11.9998M22.6666 18.6664H30.6666V26.6664M30.6666 18.6664L24.4799 24.4798C23.0469 25.9135 21.2741 26.9608 19.3268 27.5241C17.3796 28.0873 15.3214 28.1481 13.3443 27.7008C11.3672 27.2534 9.53565 26.3125 8.02054 24.9659C6.50543 23.6192 5.35614 21.9107 4.67992 19.9998" stroke="currentColor" stroke-width="3" stroke-linecap="round" stroke-linejoin="round"/>
</g>
<defs>
<clipPath id="clip0_12027_2915">
<rect width="32" height="32" fill="white"/>
</clipPath>
</defs>
</svg>
