<svg width="40" height="40" viewBox="0 0 40 40" fill="none" xmlns="http://www.w3.org/2000/svg">
<g clip-path="url(#clip0_12027_2917)">
<path d="M11.6667 16.6666H1.66675V6.66663M1.66675 16.6666L9.40008 9.39996C11.1913 7.60782 13.4074 6.29864 15.8414 5.59459C18.2755 4.89053 20.8482 4.81455 23.3196 5.37373C25.791 5.93291 28.0804 7.10902 29.9743 8.79233C31.8682 10.4756 33.3048 12.6113 34.1501 15M28.3334 23.3333H38.3334V33.3333M38.3334 23.3333L30.6001 30.6C28.8088 32.3921 26.5928 33.7013 24.1587 34.4053C21.7247 35.1094 19.1519 35.1854 16.6806 34.6262C14.2092 34.067 11.9197 32.8909 10.0259 31.2076C8.13197 29.5243 6.69536 27.3887 5.85008 25" stroke="currentColor" stroke-width="3.5" stroke-linecap="round" stroke-linejoin="round"/>
</g>
<defs>
<clipPath id="clip0_12027_2917">
<rect width="40" height="40" fill="white"/>
</clipPath>
</defs>
</svg>
