<svg width="32" height="32" viewBox="0 0 32 32" fill="none" xmlns="http://www.w3.org/2000/svg">
<g clip-path="url(#clip0_12027_2928)">
<path d="M22.6666 13.3331H30.6666V5.33311M30.6666 13.3331L24.4799 7.51978C23.0469 6.08606 21.2741 5.03872 19.3268 4.47547C17.3796 3.91223 15.3214 3.85144 13.3443 4.29879C11.3672 4.74613 9.53565 5.68702 8.02054 7.03367C6.50543 8.38031 5.35614 10.0888 4.67992 11.9998M9.33325 18.6664H1.33325V26.6664M1.33325 18.6664L7.51992 24.4798C8.95292 25.9135 10.7258 26.9608 12.673 27.5241C14.6202 28.0873 16.6784 28.1481 18.6555 27.7008C20.6326 27.2534 22.4642 26.3125 23.9793 24.9659C25.4944 23.6192 26.6437 21.9107 27.3199 19.9998" stroke="currentColor" stroke-width="3" stroke-linecap="round" stroke-linejoin="round"/>
</g>
<defs>
<clipPath id="clip0_12027_2928">
<rect width="32" height="32" fill="white"/>
</clipPath>
</defs>
</svg>
