<svg width="40" height="40" viewBox="0 0 40 40" fill="none" xmlns="http://www.w3.org/2000/svg">
<g clip-path="url(#clip0_12027_2930)">
<path d="M28.3334 16.6666H38.3334V6.66663M38.3334 16.6666L30.6001 9.39996C28.8088 7.60782 26.5928 6.29864 24.1587 5.59459C21.7247 4.89053 19.1519 4.81455 16.6806 5.37373C14.2092 5.93291 11.9197 7.10902 10.0259 8.79233C8.13197 10.4756 6.69536 12.6113 5.85008 15M11.6667 23.3333H1.66675V33.3333M1.66675 23.3333L9.40008 30.6C11.1913 32.3921 13.4074 33.7013 15.8414 34.4053C18.2755 35.1094 20.8482 35.1854 23.3196 34.6262C25.791 34.067 28.0804 32.8909 29.9743 31.2076C31.8682 29.5243 33.3048 27.3887 34.1501 25" stroke="currentColor" stroke-width="3.5" stroke-linecap="round" stroke-linejoin="round"/>
</g>
<defs>
<clipPath id="clip0_12027_2930">
<rect width="40" height="40" fill="white"/>
</clipPath>
</defs>
</svg>
