<svg width="20" height="20" viewBox="0 0 20 20" fill="none" xmlns="http://www.w3.org/2000/svg">
<g clip-path="url(#clip0_12027_2976)">
<path d="M14.1667 8.33318H19.1667V3.33318M19.1667 8.33318L15.3084 4.69985C14.1589 3.54963 12.6667 2.80417 11.0567 2.5758C9.44667 2.34743 7.80604 2.64853 6.38202 3.43371C4.95801 4.2189 3.82777 5.44564 3.16161 6.92907C2.49546 8.4125 2.32949 10.0723 2.6887 11.6582C3.04792 13.2442 3.91286 14.6705 5.15319 15.7221C6.39352 16.7737 7.94205 17.3937 9.56541 17.4887C11.1888 17.5836 12.799 17.1484 14.1535 16.2486C15.508 15.3488 16.5334 14.0331 17.0751 12.4998" stroke="currentColor" stroke-width="2" stroke-linecap="round" stroke-linejoin="round"/>
</g>
<defs>
<clipPath id="clip0_12027_2976">
<rect width="20" height="20" fill="white"/>
</clipPath>
</defs>
</svg>
