<svg width="16" height="16" viewBox="0 0 16 16" fill="none" xmlns="http://www.w3.org/2000/svg">
<g clip-path="url(#clip0_12027_2961)">
<path d="M4.6665 6.6668H0.666504V2.6668M0.666504 6.6668L3.75984 3.76013C4.68045 2.84108 5.8748 2.24611 7.16296 2.06487C8.45111 1.88364 9.76327 2.12595 10.9017 2.7553C12.0402 3.38466 12.9433 4.36696 13.4749 5.5542C14.0066 6.74143 14.138 8.06929 13.8493 9.3377C13.5607 10.6061 12.8676 11.7464 11.8746 12.5866C10.8816 13.4269 9.64234 13.9217 8.34365 13.9964C7.04496 14.0712 5.75716 13.7218 4.67427 13.001C3.59139 12.2802 2.7721 11.227 2.33984 10.0001" stroke="currentColor" stroke-width="1.6" stroke-linecap="round" stroke-linejoin="round"/>
</g>
<defs>
<clipPath id="clip0_12027_2961">
<rect width="16" height="16" fill="white"/>
</clipPath>
</defs>
</svg>
