<svg width="32" height="32" viewBox="0 0 32 32" fill="none" xmlns="http://www.w3.org/2000/svg">
<g clip-path="url(#clip0_12027_2967)">
<path d="M9.3335 13.3331H1.3335V5.3331M1.3335 13.3331L7.52016 7.51977C9.36138 5.68166 11.7501 4.49173 14.3264 4.12926C16.9027 3.76679 19.527 4.25141 21.8039 5.51012C24.0809 6.76883 25.887 8.73343 26.9503 11.1079C28.0136 13.4824 28.2764 16.1381 27.6991 18.6749C27.1218 21.2117 25.7357 23.4922 23.7497 25.1728C21.7636 26.8533 19.2852 27.8429 16.6878 27.9924C14.0904 28.1419 11.5148 27.4432 9.34904 26.0016C7.18328 24.56 5.54469 22.4536 4.68016 19.9998" stroke="currentColor" stroke-width="3" stroke-linecap="round" stroke-linejoin="round"/>
</g>
<defs>
<clipPath id="clip0_12027_2967">
<rect width="32" height="32" fill="white"/>
</clipPath>
</defs>
</svg>
