<svg width="32" height="32" viewBox="0 0 32 32" fill="none" xmlns="http://www.w3.org/2000/svg">
<g clip-path="url(#clip0_12027_2980)">
<path d="M22.6667 13.3332H30.6667V5.33319M30.6667 13.3332L24.4933 7.51986C22.6542 5.67951 20.2667 4.48677 17.6906 4.12138C15.1146 3.75599 12.4896 4.23774 10.2111 5.49404C7.93272 6.75034 6.12433 8.71312 5.05849 11.0866C3.99264 13.4601 3.72708 16.1157 4.30182 18.6533C4.87657 21.1908 6.26048 23.4728 8.24501 25.1554C10.2295 26.838 12.7072 27.83 15.3046 27.982C17.9019 28.1339 20.4784 27.4376 22.6455 25.9979C24.8127 24.5582 26.4533 22.4531 27.32 19.9999" stroke="currentColor" stroke-width="3" stroke-linecap="round" stroke-linejoin="round"/>
</g>
<defs>
<clipPath id="clip0_12027_2980">
<rect width="32" height="32" fill="white"/>
</clipPath>
</defs>
</svg>
