<svg width="40" height="40" viewBox="0 0 40 40" fill="none" xmlns="http://www.w3.org/2000/svg">
<g clip-path="url(#clip0_12027_2969)">
<path d="M11.6665 16.6667H1.6665V6.66674M1.6665 16.6667L9.39984 9.40008C11.7014 7.10245 14.6873 5.61503 17.9076 5.16194C21.128 4.70885 24.4084 5.31463 27.2546 6.88802C30.1007 8.4614 32.3584 10.9171 33.6875 13.8852C35.0167 16.8533 35.3452 20.173 34.6235 23.344C33.9019 26.515 32.1693 29.3656 29.6867 31.4663C27.2041 33.567 24.1061 34.804 20.8594 34.9909C17.6126 35.1777 14.3931 34.3044 11.6859 32.5024C8.97873 30.7004 6.93049 28.0674 5.84984 25.0001" stroke="currentColor" stroke-width="3.5" stroke-linecap="round" stroke-linejoin="round"/>
</g>
<defs>
<clipPath id="clip0_12027_2969">
<rect width="40" height="40" fill="white"/>
</clipPath>
</defs>
</svg>
