<svg width="40" height="40" viewBox="0 0 40 40" fill="none" xmlns="http://www.w3.org/2000/svg">
<g clip-path="url(#clip0_12027_2982)">
<path d="M28.3335 16.6669H38.3335V6.66685M38.3335 16.6669L30.6168 9.40019C28.3178 7.09975 25.3334 5.60883 22.1134 5.15209C18.8933 4.69535 15.6121 5.29754 12.764 6.86792C9.91602 8.43829 7.65554 10.8918 6.32323 13.8586C4.99092 16.8255 4.65897 20.145 5.3774 23.3169C6.09583 26.4889 7.82572 29.3414 10.3064 31.4446C12.787 33.5479 15.8841 34.7879 19.1308 34.9778C22.3776 35.1678 25.5981 34.2973 28.3071 32.4977C31.016 30.6981 33.0667 28.0667 34.1501 25.0002" stroke="currentColor" stroke-width="3.5" stroke-linecap="round" stroke-linejoin="round"/>
</g>
<defs>
<clipPath id="clip0_12027_2982">
<rect width="40" height="40" fill="white"/>
</clipPath>
</defs>
</svg>
