<svg width="16" height="16" viewBox="0 0 16 16" fill="none" xmlns="http://www.w3.org/2000/svg">
<g clip-path="url(#clip0_12027_2974)">
<path d="M11.3331 6.66684H15.3331V2.66684M15.3331 6.66684L12.2464 3.76017C11.3268 2.84 10.1331 2.24363 8.84506 2.06093C7.55704 1.87824 6.24454 2.11912 5.10533 2.74726C3.96612 3.37541 3.06192 4.35681 2.529 5.54355C1.99608 6.7303 1.8633 8.0581 2.15067 9.32688C2.43804 10.5957 3.12999 11.7367 4.12226 12.578C5.11453 13.4192 6.35335 13.9153 7.65204 13.9912C8.95073 14.0672 10.2389 13.719 11.3225 12.9992C12.4061 12.2793 13.2264 11.2268 13.6598 10.0002" stroke="currentColor" stroke-width="1.6" stroke-linecap="round" stroke-linejoin="round"/>
</g>
<defs>
<clipPath id="clip0_12027_2974">
<rect width="16" height="16" fill="white"/>
</clipPath>
</defs>
</svg>
