<svg width="40" height="40" viewBox="0 0 40 40" fill="none" xmlns="http://www.w3.org/2000/svg">
<path d="M33.3333 6.66667L13.5333 26.4667M24.1167 24.1333L33.3333 33.3333M13.5333 13.5333L20 20M15 10C15 12.7614 12.7614 15 10 15C7.23858 15 5 12.7614 5 10C5 7.23858 7.23858 5 10 5C12.7614 5 15 7.23858 15 10ZM15 30C15 32.7614 12.7614 35 10 35C7.23858 35 5 32.7614 5 30C5 27.2386 7.23858 25 10 25C12.7614 25 15 27.2386 15 30Z" stroke="currentColor" stroke-width="3.5" stroke-linecap="round" stroke-linejoin="round"/>
</svg>
