<svg width="40" height="40" viewBox="0 0 40 40" fill="none" xmlns="http://www.w3.org/2000/svg">
<path d="M9.99992 10.0002H10.0166M9.99992 30.0002H10.0166M6.66659 3.3335H33.3333C35.1742 3.3335 36.6666 4.82588 36.6666 6.66683V13.3335C36.6666 15.1744 35.1742 16.6668 33.3333 16.6668H6.66659C4.82564 16.6668 3.33325 15.1744 3.33325 13.3335V6.66683C3.33325 4.82588 4.82564 3.3335 6.66659 3.3335ZM6.66659 23.3335H33.3333C35.1742 23.3335 36.6666 24.8259 36.6666 26.6668V33.3335C36.6666 35.1744 35.1742 36.6668 33.3333 36.6668H6.66659C4.82564 36.6668 3.33325 35.1744 3.33325 33.3335V26.6668C3.33325 24.8259 4.82564 23.3335 6.66659 23.3335Z" stroke="currentColor" stroke-width="3.5" stroke-linecap="round" stroke-linejoin="round"/>
</svg>
