<svg width="32" height="32" viewBox="0 0 32 32" fill="none" xmlns="http://www.w3.org/2000/svg">
<path d="M8.00008 7.99984H8.01342M8.00008 23.9998H8.01342M5.33341 2.6665H26.6667C28.1395 2.6665 29.3334 3.86041 29.3334 5.33317V10.6665C29.3334 12.1393 28.1395 13.3332 26.6667 13.3332H5.33341C3.86066 13.3332 2.66675 12.1393 2.66675 10.6665V5.33317C2.66675 3.86041 3.86066 2.6665 5.33341 2.6665ZM5.33341 18.6665H26.6667C28.1395 18.6665 29.3334 19.8604 29.3334 21.3332V26.6665C29.3334 28.1393 28.1395 29.3332 26.6667 29.3332H5.33341C3.86066 29.3332 2.66675 28.1393 2.66675 26.6665V21.3332C2.66675 19.8604 3.86066 18.6665 5.33341 18.6665Z" stroke="currentColor" stroke-width="3" stroke-linecap="round" stroke-linejoin="round"/>
</svg>
