<svg width="20" height="20" viewBox="0 0 20 20" fill="none" xmlns="http://www.w3.org/2000/svg">
<g clip-path="url(#clip0_12027_3054)">
<path d="M5.00008 4.99984H5.00841M5.00008 14.9998H5.00841M3.33341 1.6665H16.6667C17.5872 1.6665 18.3334 2.4127 18.3334 3.33317V6.6665C18.3334 7.58698 17.5872 8.33317 16.6667 8.33317H3.33341C2.41294 8.33317 1.66675 7.58698 1.66675 6.6665V3.33317C1.66675 2.4127 2.41294 1.6665 3.33341 1.6665ZM3.33341 11.6665H16.6667C17.5872 11.6665 18.3334 12.4127 18.3334 13.3332V16.6665C18.3334 17.587 17.5872 18.3332 16.6667 18.3332H3.33341C2.41294 18.3332 1.66675 17.587 1.66675 16.6665V13.3332C1.66675 12.4127 2.41294 11.6665 3.33341 11.6665Z" stroke="currentColor" stroke-width="2" stroke-linecap="round" stroke-linejoin="round"/>
</g>
<defs>
<clipPath id="clip0_12027_3054">
<rect width="20" height="20" fill="white"/>
</clipPath>
</defs>
</svg>
