<svg width="40" height="40" viewBox="0 0 40 40" fill="none" xmlns="http://www.w3.org/2000/svg">
<g clip-path="url(#clip0_12027_3151)">
<path d="M1.66675 1.6665H8.33341L12.8001 23.9832C12.9525 24.7505 13.3699 25.4398 13.9793 25.9303C14.5887 26.4209 15.3512 26.6815 16.1334 26.6665H32.3334C33.1156 26.6815 33.8781 26.4209 34.4875 25.9303C35.0969 25.4398 35.5143 24.7505 35.6667 23.9832L38.3334 9.99984H10.0001M16.6667 34.9998C16.6667 35.9203 15.9206 36.6665 15.0001 36.6665C14.0796 36.6665 13.3334 35.9203 13.3334 34.9998C13.3334 34.0794 14.0796 33.3332 15.0001 33.3332C15.9206 33.3332 16.6667 34.0794 16.6667 34.9998ZM35.0001 34.9998C35.0001 35.9203 34.2539 36.6665 33.3334 36.6665C32.4129 36.6665 31.6667 35.9203 31.6667 34.9998C31.6667 34.0794 32.4129 33.3332 33.3334 33.3332C34.2539 33.3332 35.0001 34.0794 35.0001 34.9998Z" stroke="currentColor" stroke-width="3.5" stroke-linecap="round" stroke-linejoin="round"/>
</g>
<defs>
<clipPath id="clip0_12027_3151">
<rect width="40" height="40" fill="white"/>
</clipPath>
</defs>
</svg>
