<svg width="32" height="32" viewBox="0 0 32 32" fill="none" xmlns="http://www.w3.org/2000/svg">
<path d="M28 7.99984V26.6665C28 27.3737 27.719 28.052 27.219 28.5521C26.7189 29.0522 26.0406 29.3332 25.3333 29.3332H6.66667C5.95942 29.3332 5.28115 29.0522 4.78105 28.5521C4.28095 28.052 4 27.3737 4 26.6665V7.99984L8 2.6665H24L28 7.99984ZM4 7.99984H28M21.3333 13.3332C21.3333 14.7477 20.7714 16.1042 19.7712 17.1044C18.771 18.1046 17.4145 18.6665 16 18.6665C14.5855 18.6665 13.229 18.1046 12.2288 17.1044C11.2286 16.1042 10.6667 14.7477 10.6667 13.3332" stroke="currentColor" stroke-width="3" stroke-linecap="round" stroke-linejoin="round"/>
</svg>
