<svg width="40" height="40" viewBox="0 0 40 40" fill="none" xmlns="http://www.w3.org/2000/svg">
<path d="M35 10.0002V33.3335C35 34.2176 34.6488 35.0654 34.0237 35.6905C33.3986 36.3156 32.5507 36.6668 31.6667 36.6668H8.33333C7.44928 36.6668 6.60143 36.3156 5.97631 35.6905C5.35119 35.0654 5 34.2176 5 33.3335V10.0002L10 3.3335H30L35 10.0002ZM5 10.0002H35M26.6667 16.6668C26.6667 18.4349 25.9643 20.1306 24.714 21.3809C23.4638 22.6311 21.7681 23.3335 20 23.3335C18.2319 23.3335 16.5362 22.6311 15.286 21.3809C14.0357 20.1306 13.3333 18.4349 13.3333 16.6668" stroke="currentColor" stroke-width="3.5" stroke-linecap="round" stroke-linejoin="round"/>
</svg>
