<svg width="32" height="32" viewBox="0 0 32 32" fill="none" xmlns="http://www.w3.org/2000/svg">
<g clip-path="url(#clip0_12027_3149)">
<path d="M1.33325 1.3335H6.66659L10.2399 19.1868C10.3618 19.8007 10.6958 20.3521 11.1833 20.7446C11.6708 21.137 12.2808 21.3455 12.9066 21.3335H25.8666C26.4923 21.3455 27.1023 21.137 27.5899 20.7446C28.0774 20.3521 28.4113 19.8007 28.5333 19.1868L30.6666 8.00016H7.99992M13.3333 28.0002C13.3333 28.7365 12.7363 29.3335 11.9999 29.3335C11.2635 29.3335 10.6666 28.7365 10.6666 28.0002C10.6666 27.2638 11.2635 26.6668 11.9999 26.6668C12.7363 26.6668 13.3333 27.2638 13.3333 28.0002ZM27.9999 28.0002C27.9999 28.7365 27.403 29.3335 26.6666 29.3335C25.9302 29.3335 25.3333 28.7365 25.3333 28.0002C25.3333 27.2638 25.9302 26.6668 26.6666 26.6668C27.403 26.6668 27.9999 27.2638 27.9999 28.0002Z" stroke="currentColor" stroke-width="3" stroke-linecap="round" stroke-linejoin="round"/>
</g>
<defs>
<clipPath id="clip0_12027_3149">
<rect width="32" height="32" fill="white"/>
</clipPath>
</defs>
</svg>
