<svg width="16" height="16" viewBox="0 0 16 16" fill="none" xmlns="http://www.w3.org/2000/svg">
<g clip-path="url(#clip0_12027_3208)">
<path d="M9.66683 6.66683C9.1135 6.66683 8.66683 6.22016 8.66683 5.66683V2.3335C8.66683 1.78016 9.1135 1.3335 9.66683 1.3335C10.2202 1.3335 10.6668 1.78016 10.6668 2.3335V5.66683C10.6668 6.22016 10.2202 6.66683 9.66683 6.66683Z" stroke="currentColor" stroke-width="1.6" stroke-linecap="round" stroke-linejoin="round"/>
<path d="M13.6668 6.66683H12.6668V5.66683C12.6668 5.1135 13.1135 4.66683 13.6668 4.66683C14.2202 4.66683 14.6668 5.1135 14.6668 5.66683C14.6668 6.22016 14.2202 6.66683 13.6668 6.66683Z" stroke="currentColor" stroke-width="1.6" stroke-linecap="round" stroke-linejoin="round"/>
<path d="M6.3335 9.3335C6.88683 9.3335 7.3335 9.78016 7.3335 10.3335V13.6668C7.3335 14.2202 6.88683 14.6668 6.3335 14.6668C5.78016 14.6668 5.3335 14.2202 5.3335 13.6668V10.3335C5.3335 9.78016 5.78016 9.3335 6.3335 9.3335Z" stroke="currentColor" stroke-width="1.6" stroke-linecap="round" stroke-linejoin="round"/>
<path d="M2.3335 9.3335H3.3335V10.3335C3.3335 10.8868 2.88683 11.3335 2.3335 11.3335C1.78016 11.3335 1.3335 10.8868 1.3335 10.3335C1.3335 9.78016 1.78016 9.3335 2.3335 9.3335Z" stroke="currentColor" stroke-width="1.6" stroke-linecap="round" stroke-linejoin="round"/>
<path d="M9.3335 9.66683C9.3335 9.1135 9.78016 8.66683 10.3335 8.66683H13.6668C14.2202 8.66683 14.6668 9.1135 14.6668 9.66683C14.6668 10.2202 14.2202 10.6668 13.6668 10.6668H10.3335C9.78016 10.6668 9.3335 10.2202 9.3335 9.66683Z" stroke="currentColor" stroke-width="1.6" stroke-linecap="round" stroke-linejoin="round"/>
<path d="M10.3335 12.6668H9.3335V13.6668C9.3335 14.2202 9.78016 14.6668 10.3335 14.6668C10.8868 14.6668 11.3335 14.2202 11.3335 13.6668C11.3335 13.1135 10.8868 12.6668 10.3335 12.6668Z" stroke="currentColor" stroke-width="1.6" stroke-linecap="round" stroke-linejoin="round"/>
<path d="M6.66683 6.3335C6.66683 5.78016 6.22016 5.3335 5.66683 5.3335H2.3335C1.78016 5.3335 1.3335 5.78016 1.3335 6.3335C1.3335 6.88683 1.78016 7.3335 2.3335 7.3335H5.66683C6.22016 7.3335 6.66683 6.88683 6.66683 6.3335Z" stroke="currentColor" stroke-width="1.6" stroke-linecap="round" stroke-linejoin="round"/>
<path d="M5.66683 3.3335H6.66683V2.3335C6.66683 1.78016 6.22016 1.3335 5.66683 1.3335C5.1135 1.3335 4.66683 1.78016 4.66683 2.3335C4.66683 2.88683 5.1135 3.3335 5.66683 3.3335Z" stroke="currentColor" stroke-width="1.6" stroke-linecap="round" stroke-linejoin="round"/>
</g>
<defs>
<clipPath id="clip0_12027_3208">
<rect width="16" height="16" fill="white"/>
</clipPath>
</defs>
</svg>
