<svg width="32" height="32" viewBox="0 0 32 32" fill="none" xmlns="http://www.w3.org/2000/svg">
<path d="M19.3332 13.3332C18.2265 13.3332 17.3332 12.4398 17.3332 11.3332V4.6665C17.3332 3.55984 18.2265 2.6665 19.3332 2.6665C20.4398 2.6665 21.3332 3.55984 21.3332 4.6665V11.3332C21.3332 12.4398 20.4398 13.3332 19.3332 13.3332Z" stroke="currentColor" stroke-width="3" stroke-linecap="round" stroke-linejoin="round"/>
<path d="M27.3332 13.3332H25.3332V11.3332C25.3332 10.2265 26.2265 9.33317 27.3332 9.33317C28.4398 9.33317 29.3332 10.2265 29.3332 11.3332C29.3332 12.4398 28.4398 13.3332 27.3332 13.3332Z" stroke="currentColor" stroke-width="3" stroke-linecap="round" stroke-linejoin="round"/>
<path d="M12.6665 18.6665C13.7732 18.6665 14.6665 19.5598 14.6665 20.6665V27.3332C14.6665 28.4398 13.7732 29.3332 12.6665 29.3332C11.5598 29.3332 10.6665 28.4398 10.6665 27.3332V20.6665C10.6665 19.5598 11.5598 18.6665 12.6665 18.6665Z" stroke="currentColor" stroke-width="3" stroke-linecap="round" stroke-linejoin="round"/>
<path d="M4.6665 18.6665H6.6665V20.6665C6.6665 21.7732 5.77317 22.6665 4.6665 22.6665C3.55984 22.6665 2.6665 21.7732 2.6665 20.6665C2.6665 19.5598 3.55984 18.6665 4.6665 18.6665Z" stroke="currentColor" stroke-width="3" stroke-linecap="round" stroke-linejoin="round"/>
<path d="M18.6665 19.3332C18.6665 18.2265 19.5598 17.3332 20.6665 17.3332H27.3332C28.4398 17.3332 29.3332 18.2265 29.3332 19.3332C29.3332 20.4398 28.4398 21.3332 27.3332 21.3332H20.6665C19.5598 21.3332 18.6665 20.4398 18.6665 19.3332Z" stroke="currentColor" stroke-width="3" stroke-linecap="round" stroke-linejoin="round"/>
<path d="M20.6665 25.3332H18.6665V27.3332C18.6665 28.4398 19.5598 29.3332 20.6665 29.3332C21.7732 29.3332 22.6665 28.4398 22.6665 27.3332C22.6665 26.2265 21.7732 25.3332 20.6665 25.3332Z" stroke="currentColor" stroke-width="3" stroke-linecap="round" stroke-linejoin="round"/>
<path d="M13.3332 12.6665C13.3332 11.5598 12.4398 10.6665 11.3332 10.6665H4.6665C3.55984 10.6665 2.6665 11.5598 2.6665 12.6665C2.6665 13.7732 3.55984 14.6665 4.6665 14.6665H11.3332C12.4398 14.6665 13.3332 13.7732 13.3332 12.6665Z" stroke="currentColor" stroke-width="3" stroke-linecap="round" stroke-linejoin="round"/>
<path d="M11.3332 6.6665H13.3332V4.6665C13.3332 3.55984 12.4398 2.6665 11.3332 2.6665C10.2265 2.6665 9.33317 3.55984 9.33317 4.6665C9.33317 5.77317 10.2265 6.6665 11.3332 6.6665Z" stroke="currentColor" stroke-width="3" stroke-linecap="round" stroke-linejoin="round"/>
</svg>
