<svg width="20" height="20" viewBox="0 0 20 20" fill="none" xmlns="http://www.w3.org/2000/svg">
<g clip-path="url(#clip0_12027_3210)">
<path d="M12.0832 8.33317C11.3915 8.33317 10.8332 7.77484 10.8332 7.08317V2.9165C10.8332 2.22484 11.3915 1.6665 12.0832 1.6665C12.7748 1.6665 13.3332 2.22484 13.3332 2.9165V7.08317C13.3332 7.77484 12.7748 8.33317 12.0832 8.33317Z" stroke="currentColor" stroke-width="2" stroke-linecap="round" stroke-linejoin="round"/>
<path d="M17.0832 8.33317H15.8332V7.08317C15.8332 6.3915 16.3915 5.83317 17.0832 5.83317C17.7748 5.83317 18.3332 6.3915 18.3332 7.08317C18.3332 7.77484 17.7748 8.33317 17.0832 8.33317Z" stroke="currentColor" stroke-width="2" stroke-linecap="round" stroke-linejoin="round"/>
<path d="M7.9165 11.6665C8.60817 11.6665 9.1665 12.2248 9.1665 12.9165V17.0832C9.1665 17.7748 8.60817 18.3332 7.9165 18.3332C7.22484 18.3332 6.6665 17.7748 6.6665 17.0832V12.9165C6.6665 12.2248 7.22484 11.6665 7.9165 11.6665Z" stroke="currentColor" stroke-width="2" stroke-linecap="round" stroke-linejoin="round"/>
<path d="M2.9165 11.6665H4.1665V12.9165C4.1665 13.6082 3.60817 14.1665 2.9165 14.1665C2.22484 14.1665 1.6665 13.6082 1.6665 12.9165C1.6665 12.2248 2.22484 11.6665 2.9165 11.6665Z" stroke="currentColor" stroke-width="2" stroke-linecap="round" stroke-linejoin="round"/>
<path d="M11.6665 12.0832C11.6665 11.3915 12.2248 10.8332 12.9165 10.8332H17.0832C17.7748 10.8332 18.3332 11.3915 18.3332 12.0832C18.3332 12.7748 17.7748 13.3332 17.0832 13.3332H12.9165C12.2248 13.3332 11.6665 12.7748 11.6665 12.0832Z" stroke="currentColor" stroke-width="2" stroke-linecap="round" stroke-linejoin="round"/>
<path d="M12.9165 15.8332H11.6665V17.0832C11.6665 17.7748 12.2248 18.3332 12.9165 18.3332C13.6082 18.3332 14.1665 17.7748 14.1665 17.0832C14.1665 16.3915 13.6082 15.8332 12.9165 15.8332Z" stroke="currentColor" stroke-width="2" stroke-linecap="round" stroke-linejoin="round"/>
<path d="M8.33317 7.9165C8.33317 7.22484 7.77484 6.6665 7.08317 6.6665H2.9165C2.22484 6.6665 1.6665 7.22484 1.6665 7.9165C1.6665 8.60817 2.22484 9.1665 2.9165 9.1665H7.08317C7.77484 9.1665 8.33317 8.60817 8.33317 7.9165Z" stroke="currentColor" stroke-width="2" stroke-linecap="round" stroke-linejoin="round"/>
<path d="M7.08317 4.1665H8.33317V2.9165C8.33317 2.22484 7.77484 1.6665 7.08317 1.6665C6.3915 1.6665 5.83317 2.22484 5.83317 2.9165C5.83317 3.60817 6.3915 4.1665 7.08317 4.1665Z" stroke="currentColor" stroke-width="2" stroke-linecap="round" stroke-linejoin="round"/>
</g>
<defs>
<clipPath id="clip0_12027_3210">
<rect width="20" height="20" fill="white"/>
</clipPath>
</defs>
</svg>
