<svg width="40" height="40" viewBox="0 0 40 40" fill="none" xmlns="http://www.w3.org/2000/svg">
<path d="M24.1668 16.6668C22.7835 16.6668 21.6668 15.5502 21.6668 14.1668V5.8335C21.6668 4.45016 22.7835 3.3335 24.1668 3.3335C25.5502 3.3335 26.6668 4.45016 26.6668 5.8335V14.1668C26.6668 15.5502 25.5502 16.6668 24.1668 16.6668Z" stroke="currentColor" stroke-width="3.5" stroke-linecap="round" stroke-linejoin="round"/>
<path d="M34.1668 16.6668H31.6668V14.1668C31.6668 12.7835 32.7835 11.6668 34.1668 11.6668C35.5502 11.6668 36.6668 12.7835 36.6668 14.1668C36.6668 15.5502 35.5502 16.6668 34.1668 16.6668Z" stroke="currentColor" stroke-width="3.5" stroke-linecap="round" stroke-linejoin="round"/>
<path d="M15.8335 23.3335C17.2168 23.3335 18.3335 24.4502 18.3335 25.8335V34.1668C18.3335 35.5502 17.2168 36.6668 15.8335 36.6668C14.4502 36.6668 13.3335 35.5502 13.3335 34.1668V25.8335C13.3335 24.4502 14.4502 23.3335 15.8335 23.3335Z" stroke="currentColor" stroke-width="3.5" stroke-linecap="round" stroke-linejoin="round"/>
<path d="M5.8335 23.3335H8.3335V25.8335C8.3335 27.2168 7.21683 28.3335 5.8335 28.3335C4.45016 28.3335 3.3335 27.2168 3.3335 25.8335C3.3335 24.4502 4.45016 23.3335 5.8335 23.3335Z" stroke="currentColor" stroke-width="3.5" stroke-linecap="round" stroke-linejoin="round"/>
<path d="M23.3335 24.1668C23.3335 22.7835 24.4502 21.6668 25.8335 21.6668H34.1668C35.5502 21.6668 36.6668 22.7835 36.6668 24.1668C36.6668 25.5502 35.5502 26.6668 34.1668 26.6668H25.8335C24.4502 26.6668 23.3335 25.5502 23.3335 24.1668Z" stroke="currentColor" stroke-width="3.5" stroke-linecap="round" stroke-linejoin="round"/>
<path d="M25.8335 31.6668H23.3335V34.1668C23.3335 35.5502 24.4502 36.6668 25.8335 36.6668C27.2168 36.6668 28.3335 35.5502 28.3335 34.1668C28.3335 32.7835 27.2168 31.6668 25.8335 31.6668Z" stroke="currentColor" stroke-width="3.5" stroke-linecap="round" stroke-linejoin="round"/>
<path d="M16.6668 15.8335C16.6668 14.4502 15.5502 13.3335 14.1668 13.3335H5.8335C4.45016 13.3335 3.3335 14.4502 3.3335 15.8335C3.3335 17.2168 4.45016 18.3335 5.8335 18.3335H14.1668C15.5502 18.3335 16.6668 17.2168 16.6668 15.8335Z" stroke="currentColor" stroke-width="3.5" stroke-linecap="round" stroke-linejoin="round"/>
<path d="M14.1668 8.3335H16.6668V5.8335C16.6668 4.45016 15.5502 3.3335 14.1668 3.3335C12.7835 3.3335 11.6668 4.45016 11.6668 5.8335C11.6668 7.21683 12.7835 8.3335 14.1668 8.3335Z" stroke="currentColor" stroke-width="3.5" stroke-linecap="round" stroke-linejoin="round"/>
</svg>
