<svg width="20" height="20" viewBox="0 0 20 20" fill="none" xmlns="http://www.w3.org/2000/svg">
<path d="M9.99992 4.99984H10.0083M4.99992 1.6665H14.9999C15.9204 1.6665 16.6666 2.4127 16.6666 3.33317V16.6665C16.6666 17.587 15.9204 18.3332 14.9999 18.3332H4.99992C4.07944 18.3332 3.33325 17.587 3.33325 16.6665V3.33317C3.33325 2.4127 4.07944 1.6665 4.99992 1.6665ZM13.3333 11.6665C13.3333 13.5075 11.8409 14.9998 9.99992 14.9998C8.15897 14.9998 6.66659 13.5075 6.66659 11.6665C6.66659 9.82555 8.15897 8.33317 9.99992 8.33317C11.8409 8.33317 13.3333 9.82555 13.3333 11.6665Z" stroke="currentColor" stroke-width="2" stroke-linecap="round" stroke-linejoin="round"/>
</svg>
