<svg width="32" height="32" viewBox="0 0 32 32" fill="none" xmlns="http://www.w3.org/2000/svg">
<path d="M15.9999 7.99984H16.0133M7.99992 2.6665H23.9999C25.4727 2.6665 26.6666 3.86041 26.6666 5.33317V26.6665C26.6666 28.1393 25.4727 29.3332 23.9999 29.3332H7.99992C6.52716 29.3332 5.33325 28.1393 5.33325 26.6665V5.33317C5.33325 3.86041 6.52716 2.6665 7.99992 2.6665ZM21.3333 18.6665C21.3333 21.612 18.9454 23.9998 15.9999 23.9998C13.0544 23.9998 10.6666 21.612 10.6666 18.6665C10.6666 15.721 13.0544 13.3332 15.9999 13.3332C18.9454 13.3332 21.3333 15.721 21.3333 18.6665Z" stroke="currentColor" stroke-width="3" stroke-linecap="round" stroke-linejoin="round"/>
</svg>
