<svg width="32" height="32" viewBox="0 0 32 32" fill="none" xmlns="http://www.w3.org/2000/svg">
<path d="M16.0001 29.3332C23.3639 29.3332 29.3334 23.3636 29.3334 15.9998C29.3334 8.63604 23.3639 2.6665 16.0001 2.6665C8.63628 2.6665 2.66675 8.63604 2.66675 15.9998C2.66675 23.3636 8.63628 29.3332 16.0001 29.3332Z" stroke="currentColor" stroke-width="3" stroke-linecap="round" stroke-linejoin="round"/>
<path d="M16.0001 23.9998C20.4184 23.9998 24.0001 20.4181 24.0001 15.9998C24.0001 11.5816 20.4184 7.99984 16.0001 7.99984C11.5818 7.99984 8.00008 11.5816 8.00008 15.9998C8.00008 20.4181 11.5818 23.9998 16.0001 23.9998Z" stroke="currentColor" stroke-width="3" stroke-linecap="round" stroke-linejoin="round"/>
<path d="M16.0001 18.6665C17.4728 18.6665 18.6667 17.4726 18.6667 15.9998C18.6667 14.5271 17.4728 13.3332 16.0001 13.3332C14.5273 13.3332 13.3334 14.5271 13.3334 15.9998C13.3334 17.4726 14.5273 18.6665 16.0001 18.6665Z" stroke="currentColor" stroke-width="3" stroke-linecap="round" stroke-linejoin="round"/>
</svg>
