<svg width="40" height="40" viewBox="0 0 40 40" fill="none" xmlns="http://www.w3.org/2000/svg">
<path d="M19.9999 36.6668C29.2047 36.6668 36.6666 29.2049 36.6666 20.0002C36.6666 10.7954 29.2047 3.3335 19.9999 3.3335C10.7952 3.3335 3.33325 10.7954 3.33325 20.0002C3.33325 29.2049 10.7952 36.6668 19.9999 36.6668Z" stroke="currentColor" stroke-width="3.5" stroke-linecap="round" stroke-linejoin="round"/>
<path d="M19.9999 30.0002C25.5228 30.0002 29.9999 25.523 29.9999 20.0002C29.9999 14.4773 25.5228 10.0002 19.9999 10.0002C14.4771 10.0002 9.99992 14.4773 9.99992 20.0002C9.99992 25.523 14.4771 30.0002 19.9999 30.0002Z" stroke="currentColor" stroke-width="3.5" stroke-linecap="round" stroke-linejoin="round"/>
<path d="M19.9999 23.3335C21.8409 23.3335 23.3333 21.8411 23.3333 20.0002C23.3333 18.1592 21.8409 16.6668 19.9999 16.6668C18.159 16.6668 16.6666 18.1592 16.6666 20.0002C16.6666 21.8411 18.159 23.3335 19.9999 23.3335Z" stroke="currentColor" stroke-width="3.5" stroke-linecap="round" stroke-linejoin="round"/>
</svg>
