<svg width="16" height="16" viewBox="0 0 16 16" fill="none" xmlns="http://www.w3.org/2000/svg">
<g clip-path="url(#clip0_12027_3429)">
<path d="M9.33317 9.83984V2.33317C9.33317 1.89114 9.15758 1.46722 8.84502 1.15466C8.53245 0.842099 8.10853 0.666504 7.6665 0.666504C7.22448 0.666504 6.80055 0.842099 6.48799 1.15466C6.17543 1.46722 5.99984 1.89114 5.99984 2.33317V9.83984C5.46469 10.1974 5.05872 10.7176 4.84189 11.3236C4.62505 11.9296 4.60885 12.5892 4.79568 13.2051C4.9825 13.821 5.36244 14.3605 5.8794 14.7439C6.39635 15.1273 7.02289 15.3343 7.6665 15.3343C8.31011 15.3343 8.93666 15.1273 9.45361 14.7439C9.97056 14.3605 10.3505 13.821 10.5373 13.2051C10.7242 12.5892 10.708 11.9296 10.4911 11.3236C10.2743 10.7176 9.86832 10.1974 9.33317 9.83984Z" stroke="currentColor" stroke-width="1.6" stroke-linecap="round" stroke-linejoin="round"/>
</g>
<defs>
<clipPath id="clip0_12027_3429">
<rect width="16" height="16" fill="white"/>
</clipPath>
</defs>
</svg>
