<svg width="20" height="20" viewBox="0 0 20 20" fill="none" xmlns="http://www.w3.org/2000/svg">
<g clip-path="url(#clip0_12027_3431)">
<path d="M11.6668 12.3002V2.91683C11.6668 2.3643 11.4473 1.83439 11.0566 1.44369C10.6659 1.05299 10.136 0.833496 9.5835 0.833496C9.03096 0.833496 8.50106 1.05299 8.11036 1.44369C7.71966 1.83439 7.50016 2.3643 7.50016 2.91683V12.3002C6.83123 12.7471 6.32376 13.3973 6.05272 14.1548C5.78168 14.9123 5.76143 15.7369 5.99496 16.5067C6.22849 17.2766 6.70342 17.951 7.34961 18.4302C7.9958 18.9095 8.77898 19.1682 9.5835 19.1682C10.388 19.1682 11.1712 18.9095 11.8174 18.4302C12.4636 17.951 12.9385 17.2766 13.172 16.5067C13.4056 15.7369 13.3853 14.9123 13.1143 14.1548C12.8432 13.3973 12.3358 12.7471 11.6668 12.3002Z" stroke="currentColor" stroke-width="2" stroke-linecap="round" stroke-linejoin="round"/>
</g>
<defs>
<clipPath id="clip0_12027_3431">
<rect width="20" height="20" fill="white"/>
</clipPath>
</defs>
</svg>
