<svg width="40" height="40" viewBox="0 0 40 40" fill="none" xmlns="http://www.w3.org/2000/svg">
<g clip-path="url(#clip0_12027_3437)">
<path d="M23.3332 24.5998V5.83317C23.3332 4.7281 22.8942 3.66829 22.1128 2.88689C21.3314 2.10549 20.2716 1.6665 19.1665 1.6665C18.0614 1.6665 17.0016 2.10549 16.2202 2.88689C15.4388 3.66829 14.9998 4.7281 14.9998 5.83317V24.5998C13.662 25.4937 12.647 26.7942 12.105 28.3092C11.5629 29.8241 11.5224 31.4733 11.9894 33.013C12.4565 34.5527 13.4064 35.9015 14.6987 36.86C15.9911 37.8185 17.5575 38.3359 19.1665 38.3359C20.7755 38.3359 22.3419 37.8185 23.6343 36.86C24.9267 35.9015 25.8765 34.5527 26.3436 33.013C26.8106 31.4733 26.7701 29.8241 26.2281 28.3092C25.686 26.7942 24.671 25.4937 23.3332 24.5998Z" stroke="currentColor" stroke-width="3.5" stroke-linecap="round" stroke-linejoin="round"/>
</g>
<defs>
<clipPath id="clip0_12027_3437">
<rect width="40" height="40" fill="white"/>
</clipPath>
</defs>
</svg>
