<svg width="32" height="32" viewBox="0 0 32 32" fill="none" xmlns="http://www.w3.org/2000/svg">
<g clip-path="url(#clip0_12027_3435)">
<path d="M18.6668 19.6802V4.66683C18.6668 3.78277 18.3156 2.93493 17.6905 2.30981C17.0654 1.68469 16.2176 1.3335 15.3335 1.3335C14.4494 1.3335 13.6016 1.68469 12.9765 2.30981C12.3514 2.93493 12.0002 3.78277 12.0002 4.66683V19.6802C10.9299 20.3953 10.1179 21.4357 9.68426 22.6476C9.25059 23.8596 9.21819 25.1789 9.59184 26.4107C9.96549 27.6425 10.7254 28.7215 11.7593 29.4883C12.7932 30.2551 14.0463 30.669 15.3335 30.669C16.6207 30.669 17.8738 30.2551 18.9077 29.4883C19.9416 28.7215 20.7015 27.6425 21.0752 26.4107C21.4488 25.1789 21.4164 23.8596 20.9827 22.6476C20.5491 21.4357 19.7371 20.3953 18.6668 19.6802Z" stroke="currentColor" stroke-width="3" stroke-linecap="round" stroke-linejoin="round"/>
</g>
<defs>
<clipPath id="clip0_12027_3435">
<rect width="32" height="32" fill="white"/>
</clipPath>
</defs>
</svg>
