<svg width="32" height="32" viewBox="0 0 32 32" fill="none" xmlns="http://www.w3.org/2000/svg">
<path d="M9.33317 14.6665L14.6665 2.6665C15.7274 2.6665 16.7448 3.08793 17.4949 3.83808C18.2451 4.58822 18.6665 5.60564 18.6665 6.6665V11.9998H26.2132C26.5997 11.9955 26.9826 12.0752 27.3353 12.2335C27.6879 12.3917 28.002 12.6248 28.2556 12.9165C28.5093 13.2082 28.6965 13.5516 28.8043 13.9228C28.9121 14.2941 28.9378 14.6843 28.8798 15.0665L27.0398 27.0665C26.9434 27.7024 26.6204 28.282 26.1304 28.6985C25.6403 29.115 25.0163 29.3404 24.3732 29.3332H9.33317M9.33317 14.6665V29.3332M9.33317 14.6665H5.33317C4.62593 14.6665 3.94765 14.9475 3.44755 15.4476C2.94746 15.9477 2.6665 16.6259 2.6665 17.3332V26.6665C2.6665 27.3737 2.94746 28.052 3.44755 28.5521C3.94765 29.0522 4.62593 29.3332 5.33317 29.3332H9.33317" stroke="currentColor" stroke-width="3" stroke-linecap="round" stroke-linejoin="round"/>
</svg>
