<svg width="40" height="40" viewBox="0 0 40 40" fill="none" xmlns="http://www.w3.org/2000/svg">
<path d="M11.6668 18.3335L18.3335 3.3335C19.6596 3.3335 20.9313 3.86028 21.869 4.79796C22.8067 5.73564 23.3335 7.00741 23.3335 8.3335V15.0002H32.7668C33.25 14.9947 33.7286 15.0943 34.1694 15.2922C34.6103 15.49 35.0029 15.7814 35.3199 16.146C35.637 16.5107 35.871 16.9399 36.0057 17.4039C36.1405 17.868 36.1727 18.3558 36.1002 18.8335L33.8002 33.8335C33.6796 34.6283 33.2759 35.3528 32.6633 35.8735C32.0508 36.3942 31.2707 36.6759 30.4668 36.6668H11.6668M11.6668 18.3335V36.6668M11.6668 18.3335H6.66683C5.78277 18.3335 4.93493 18.6847 4.30981 19.3098C3.68469 19.9349 3.3335 20.7828 3.3335 21.6668V33.3335C3.3335 34.2176 3.68469 35.0654 4.30981 35.6905C4.93493 36.3156 5.78277 36.6668 6.66683 36.6668H11.6668" stroke="currentColor" stroke-width="3.5" stroke-linecap="round" stroke-linejoin="round"/>
</svg>
