<svg width="40" height="40" viewBox="0 0 40 40" fill="none" xmlns="http://www.w3.org/2000/svg">
<path d="M28.3334 21.6665L21.6667 36.6665C20.3406 36.6665 19.0689 36.1397 18.1312 35.202C17.1935 34.2643 16.6667 32.9925 16.6667 31.6665V24.9998H7.23338C6.7502 25.0053 6.27161 24.9056 5.83076 24.7078C5.38992 24.5099 4.99736 24.2186 4.68029 23.8539C4.36321 23.4893 4.12921 23.0601 3.99448 22.596C3.85976 22.132 3.82754 21.6442 3.90005 21.1665L6.20005 6.16646C6.32059 5.37161 6.72433 4.64711 7.33687 4.12644C7.94942 3.60578 8.7295 3.32403 9.53338 3.33312H28.3334M28.3334 21.6665V3.33312M28.3334 21.6665H32.7834C33.7267 21.6831 34.6432 21.3529 35.3591 20.7384C36.0749 20.1239 36.5403 19.268 36.6667 18.3331V6.66646C36.5403 5.73155 36.0749 4.87563 35.3591 4.26115C34.6432 3.64668 33.7267 3.31644 32.7834 3.33312H28.3334" stroke="currentColor" stroke-width="3.5" stroke-linecap="round" stroke-linejoin="round"/>
</svg>
