<svg width="32" height="32" viewBox="0 0 32 32" fill="none" xmlns="http://www.w3.org/2000/svg">
<path d="M19.6001 8.39981C19.3557 8.64905 19.2189 8.98414 19.2189 9.33314C19.2189 9.68215 19.3557 10.0172 19.6001 10.2665L21.7334 12.3998C21.9826 12.6441 22.3177 12.781 22.6667 12.781C23.0157 12.781 23.3508 12.6441 23.6001 12.3998L28.6267 7.37314C29.2972 8.85473 29.5002 10.5055 29.2087 12.1053C28.9172 13.7052 28.145 15.1783 26.9951 16.3282C25.8452 17.4781 24.3721 18.2503 22.7722 18.5418C21.1724 18.8333 19.5216 18.6303 18.0401 17.9598L8.82672 27.1731C8.29629 27.7036 7.57686 28.0016 6.82672 28.0016C6.07657 28.0016 5.35715 27.7036 4.82672 27.1731C4.29629 26.6427 3.99829 25.9233 3.99829 25.1731C3.99829 24.423 4.29629 23.7036 4.82672 23.1731L14.0401 13.9598C13.3696 12.4782 13.1666 10.8275 13.4581 9.22762C13.7496 7.62774 14.5218 6.15468 15.6717 5.00477C16.8216 3.85486 18.2946 3.0827 19.8945 2.7912C21.4944 2.4997 23.1451 2.7027 24.6267 3.37314L19.6001 8.39981Z" stroke="currentColor" stroke-width="3" stroke-linecap="round" stroke-linejoin="round"/>
</svg>
