<svg width="40" height="40" viewBox="0 0 40 40" fill="none" xmlns="http://www.w3.org/2000/svg">
<path d="M17.1498 6.43319L3.03312 29.9999C2.74207 30.5039 2.58807 31.0754 2.58644 31.6574C2.58481 32.2394 2.73561 32.8117 3.02383 33.3174C3.31206 33.8231 3.72767 34.2444 4.2293 34.5396C4.73094 34.8348 5.30112 34.9935 5.88312 34.9999H34.1165C34.6985 34.9935 35.2686 34.8348 35.7703 34.5396C36.2719 34.2444 36.6875 33.8231 36.9757 33.3174C37.264 32.8117 37.4148 32.2394 37.4131 31.6574C37.4115 31.0754 37.2575 30.5039 36.9665 29.9999L22.8498 6.43319C22.5527 5.94336 22.1343 5.53839 21.6351 5.25733C21.1359 4.97627 20.5727 4.82861 19.9998 4.82861C19.4269 4.82861 18.8637 4.97627 18.3645 5.25733C17.8653 5.53839 17.4469 5.94336 17.1498 6.43319Z" stroke="currentColor" stroke-width="3.5" stroke-linecap="round" stroke-linejoin="round"/>
</svg>
