<svg width="32" height="32" viewBox="0 0 32 32" fill="none" xmlns="http://www.w3.org/2000/svg">
<path d="M19.3335 20.3333V5H3.3335V20.3333H19.3335ZM19.3335 20.3333H28.6668V14.6667L24.6668 10.6667H19.3335L19.3335 20.3333ZM12.6668 23.6667C12.6668 25.5076 11.1744 27 9.3335 27C7.49255 27 6.00016 25.5076 6.00016 23.6667C6.00016 21.8257 7.49255 20.3333 9.3335 20.3333C11.1744 20.3333 12.6668 21.8257 12.6668 23.6667ZM26.0002 23.6667C26.0002 25.5076 24.5078 27 22.6668 27C20.8259 27 19.3335 25.5076 19.3335 23.6667C19.3335 21.8257 20.8259 20.3333 22.6668 20.3333C24.5078 20.3333 26.0002 21.8257 26.0002 23.6667Z" stroke="currentColor" stroke-width="3" stroke-linecap="round" stroke-linejoin="round"/>
</svg>
