<svg width="16" height="16" viewBox="0 0 16 16" fill="none" xmlns="http://www.w3.org/2000/svg">
<path d="M9.6665 10.4704V2.80371H1.6665V10.4704H9.6665ZM9.6665 10.4704H14.3332V7.13704L12.3332 5.13704H9.6665L9.6665 10.4704ZM6.33317 12.137C6.33317 13.0575 5.58698 13.8037 4.6665 13.8037C3.74603 13.8037 2.99984 13.0575 2.99984 12.137C2.99984 11.2166 3.74603 10.4704 4.6665 10.4704C5.58698 10.4704 6.33317 11.2166 6.33317 12.137ZM12.9998 12.137C12.9998 13.0575 12.2536 13.8037 11.3332 13.8037C10.4127 13.8037 9.6665 13.0575 9.6665 12.137C9.6665 11.2166 10.4127 10.4704 11.3332 10.4704C12.2536 10.4704 12.9998 11.2166 12.9998 12.137Z" stroke="currentColor" stroke-width="1.6" stroke-linecap="round" stroke-linejoin="round"/>
</svg>
