<svg width="20" height="20" viewBox="0 0 20 20" fill="none" xmlns="http://www.w3.org/2000/svg">
<path d="M12.3335 13.3333V3.5H1.8335V13.3333H12.3335ZM12.3335 13.3333H18.1668V9.16667L15.6668 6.66667H12.3335L12.3335 13.3333ZM7.66683 15.4167C7.66683 16.5673 6.73409 17.5 5.5835 17.5C4.4329 17.5 3.50016 16.5673 3.50016 15.4167C3.50016 14.2661 4.4329 13.3333 5.5835 13.3333C6.73409 13.3333 7.66683 14.2661 7.66683 15.4167ZM16.5002 15.4167C16.5002 16.5673 15.5674 17.5 14.4168 17.5C13.2662 17.5 12.3335 16.5673 12.3335 15.4167C12.3335 14.2661 13.2662 13.3333 14.4168 13.3333C15.5674 13.3333 16.5002 14.2661 16.5002 15.4167Z" stroke="currentColor" stroke-width="2" stroke-linecap="round" stroke-linejoin="round"/>
</svg>
