<svg width="40" height="40" viewBox="0 0 40 40" fill="none" xmlns="http://www.w3.org/2000/svg">
<path d="M23.6665 25.6667V6H4.6665V25.6667H23.6665ZM23.6665 25.6667H35.3332V18.3333L30.3332 13.3333H23.6665L23.6665 25.6667ZM16.3332 29.8333C16.3332 32.1345 14.4677 34 12.1665 34C9.86532 34 7.99984 32.1345 7.99984 29.8333C7.99984 27.5321 9.86532 25.6667 12.1665 25.6667C14.4677 25.6667 16.3332 27.5321 16.3332 29.8333ZM31.9998 29.8333C31.9998 32.1345 30.1344 34 27.8332 34C25.532 34 23.6665 32.1345 23.6665 29.8333C23.6665 27.5321 25.532 25.6667 27.8332 25.6667C30.1344 25.6667 31.9998 27.5321 31.9998 29.8333Z" stroke="currentColor" stroke-width="3.5" stroke-linecap="round" stroke-linejoin="round"/>
</svg>
