<svg width="32" height="32" viewBox="0 0 32 32" fill="none" xmlns="http://www.w3.org/2000/svg">
<g clip-path="url(#clip0_12027_3695)">
<path d="M10.6666 21.3335L15.9999 16.0001L21.3333 21.3335M15.9999 16.0001L15.9999 28.0001M27.1866 24.5201C28.4871 23.8112 29.5144 22.6893 30.1064 21.3316C30.6985 19.974 30.8216 18.4578 30.4562 17.0224C30.0909 15.587 29.2579 14.3142 28.0888 13.4047C26.9198 12.4953 25.4811 12.0011 23.9999 12.0001H22.3199C21.9164 10.4391 21.1642 8.98992 20.1199 7.76147C19.0756 6.53301 17.7664 5.55727 16.2907 4.90762C14.8151 4.25796 13.2113 3.95129 11.6001 4.01065C9.98886 4.07002 8.41204 4.49387 6.98818 5.25036C5.56433 6.00685 4.3305 7.07628 3.37944 8.37825C2.42839 9.68022 1.78487 11.1809 1.49725 12.7673C1.20964 14.3538 1.28542 15.9848 1.7189 17.5378C2.15238 19.0908 2.93227 20.5253 3.99995 21.7335" stroke="currentColor" stroke-width="3" stroke-linecap="round" stroke-linejoin="round"/>
</g>
<defs>
<clipPath id="clip0_12027_3695">
<rect width="32" height="32" fill="white"/>
</clipPath>
</defs>
</svg>
