<svg width="40" height="40" viewBox="0 0 40 40" fill="none" xmlns="http://www.w3.org/2000/svg">
<g clip-path="url(#clip0_12027_3697)">
<path d="M13.3333 26.6665L19.9999 19.9998L26.6666 26.6665M19.9999 19.9998V34.9998M33.9833 30.6498C35.6088 29.7636 36.893 28.3613 37.6331 26.6642C38.3731 24.9671 38.527 23.0719 38.0703 21.2776C37.6136 19.4834 36.5724 17.8923 35.111 16.7556C33.6497 15.6188 31.8514 15.001 29.9999 14.9998H27.8999C27.3955 13.0485 26.4552 11.237 25.1498 9.70147C23.8445 8.1659 22.208 6.94623 20.3634 6.13416C18.5189 5.32208 16.5142 4.93874 14.5001 5.01295C12.4861 5.08715 10.515 5.61698 8.73523 6.56259C6.95541 7.5082 5.41312 8.84498 4.2243 10.4724C3.03549 12.0999 2.23108 13.9757 1.87157 15.9588C1.51205 17.9419 1.60678 19.9807 2.14862 21.9219C2.69047 23.8631 3.66534 25.6563 4.99993 27.1665" stroke="currentColor" stroke-width="3.5" stroke-linecap="round" stroke-linejoin="round"/>
</g>
<defs>
<clipPath id="clip0_12027_3697">
<rect width="40" height="40" fill="white"/>
</clipPath>
</defs>
</svg>
