<svg width="40" height="40" viewBox="0 0 40 40" fill="none" xmlns="http://www.w3.org/2000/svg">
<g clip-path="url(#clip0_12027_3762)">
<path d="M26.6667 35V31.6667C26.6667 29.8986 25.9644 28.2029 24.7141 26.9526C23.4639 25.7024 21.7682 25 20.0001 25H8.33341C6.5653 25 4.86961 25.7024 3.61937 26.9526C2.36913 28.2029 1.66675 29.8986 1.66675 31.6667V35M30.0001 13.3333L38.3334 21.6667M38.3334 13.3333L30.0001 21.6667M20.8334 11.6667C20.8334 15.3486 17.8486 18.3333 14.1667 18.3333C10.4848 18.3333 7.50008 15.3486 7.50008 11.6667C7.50008 7.98477 10.4848 5 14.1667 5C17.8486 5 20.8334 7.98477 20.8334 11.6667Z" stroke="currentColor" stroke-width="3.5" stroke-linecap="round" stroke-linejoin="round"/>
</g>
<defs>
<clipPath id="clip0_12027_3762">
<rect width="40" height="40" fill="white"/>
</clipPath>
</defs>
</svg>
