<svg width="16" height="16" viewBox="0 0 16 16" fill="none" xmlns="http://www.w3.org/2000/svg">
<g clip-path="url(#clip0_12027_3793)">
<path d="M10.6665 10.6665V11.3332C10.6665 11.6868 10.526 12.0259 10.276 12.276C10.0259 12.526 9.68679 12.6665 9.33317 12.6665H1.99984C1.64622 12.6665 1.30708 12.526 1.05703 12.276C0.80698 12.0259 0.666504 11.6868 0.666504 11.3332V4.6665C0.666504 4.31288 0.80698 3.97374 1.05703 3.72369C1.30708 3.47365 1.64622 3.33317 1.99984 3.33317H3.33317M7.1065 3.33317H9.33317C9.68679 3.33317 10.0259 3.47365 10.276 3.72369C10.526 3.97374 10.6665 4.31288 10.6665 4.6665V6.89317L11.3332 7.55984L15.3332 4.6665V11.3332M0.666504 0.666504L15.3332 15.3332" stroke="currentColor" stroke-width="1.6" stroke-linecap="round" stroke-linejoin="round"/>
</g>
<defs>
<clipPath id="clip0_12027_3793">
<rect width="16" height="16" fill="white"/>
</clipPath>
</defs>
</svg>
