<svg width="40" height="40" viewBox="0 0 40 40" fill="none" xmlns="http://www.w3.org/2000/svg">
<g clip-path="url(#clip0_12027_3801)">
<path d="M26.6665 26.6665V28.3332C26.6665 29.2172 26.3153 30.0651 25.6902 30.6902C25.0651 31.3153 24.2172 31.6665 23.3332 31.6665H4.99984C4.11578 31.6665 3.26794 31.3153 2.64281 30.6902C2.01769 30.0651 1.6665 29.2172 1.6665 28.3332V11.6665C1.6665 10.7824 2.01769 9.9346 2.64281 9.30948C3.26794 8.68436 4.11578 8.33317 4.99984 8.33317H8.33317M17.7665 8.33317H23.3332C24.2172 8.33317 25.0651 8.68436 25.6902 9.30948C26.3153 9.9346 26.6665 10.7824 26.6665 11.6665V17.2332L28.3332 18.8998L38.3332 11.6665V28.3332M1.6665 1.6665L38.3332 38.3332" stroke="currentColor" stroke-width="3.5" stroke-linecap="round" stroke-linejoin="round"/>
</g>
<defs>
<clipPath id="clip0_12027_3801">
<rect width="40" height="40" fill="white"/>
</clipPath>
</defs>
</svg>
