<svg width="32" height="32" viewBox="0 0 32 32" fill="none" xmlns="http://www.w3.org/2000/svg">
<g clip-path="url(#clip0_12027_3799)">
<path d="M21.3335 21.3335V22.6668C21.3335 23.3741 21.0525 24.0524 20.5524 24.5524C20.0524 25.0525 19.3741 25.3335 18.6668 25.3335H4.00016C3.29292 25.3335 2.61464 25.0525 2.11454 24.5524C1.61445 24.0524 1.3335 23.3741 1.3335 22.6668V9.3335C1.3335 8.62625 1.61445 7.94798 2.11454 7.44788C2.61464 6.94778 3.29292 6.66683 4.00016 6.66683H6.66683M14.2135 6.66683H18.6668C19.3741 6.66683 20.0524 6.94778 20.5524 7.44788C21.0525 7.94798 21.3335 8.62625 21.3335 9.3335V13.7868L22.6668 15.1202L30.6668 9.3335V22.6668M1.3335 1.3335L30.6668 30.6668" stroke="currentColor" stroke-width="3" stroke-linecap="round" stroke-linejoin="round"/>
</g>
<defs>
<clipPath id="clip0_12027_3799">
<rect width="32" height="32" fill="white"/>
</clipPath>
</defs>
</svg>
