<svg width="20" height="20" viewBox="0 0 20 20" fill="none" xmlns="http://www.w3.org/2000/svg">
<g clip-path="url(#clip0_12027_3795)">
<path d="M13.3335 13.3335V14.1668C13.3335 14.6089 13.1579 15.0328 12.8453 15.3453C12.5328 15.6579 12.1089 15.8335 11.6668 15.8335H2.50016C2.05814 15.8335 1.63421 15.6579 1.32165 15.3453C1.00909 15.0328 0.833496 14.6089 0.833496 14.1668V5.8335C0.833496 5.39147 1.00909 4.96755 1.32165 4.65498C1.63421 4.34242 2.05814 4.16683 2.50016 4.16683H4.16683M8.8835 4.16683H11.6668C12.1089 4.16683 12.5328 4.34242 12.8453 4.65498C13.1579 4.96755 13.3335 5.39147 13.3335 5.8335V8.61683L14.1668 9.45016L19.1668 5.8335V14.1668M0.833496 0.833496L19.1668 19.1668" stroke="currentColor" stroke-width="2" stroke-linecap="round" stroke-linejoin="round"/>
</g>
<defs>
<clipPath id="clip0_12027_3795">
<rect width="20" height="20" fill="white"/>
</clipPath>
</defs>
</svg>
