<svg width="32" height="32" viewBox="0 0 32 32" fill="none" xmlns="http://www.w3.org/2000/svg">
<g clip-path="url(#clip0_12027_3890)">
<path d="M15.9998 12.0002V16.0002L17.9998 18.0002M22.0132 23.1335L21.5465 28.2402C21.4864 28.905 21.1792 29.5232 20.6854 29.9725C20.1917 30.4218 19.5474 30.6696 18.8798 30.6669H13.1065C12.4389 30.6696 11.7946 30.4218 11.3009 29.9725C10.8072 29.5232 10.4999 28.905 10.4398 28.2402L9.97317 23.1335M9.9865 8.86685L10.4532 3.76018C10.513 3.09762 10.8184 2.48136 11.3093 2.03239C11.8002 1.58341 12.4412 1.33414 13.1065 1.33352H18.9065C19.5741 1.33081 20.2184 1.57858 20.7121 2.02788C21.2058 2.47718 21.5131 3.09533 21.5732 3.76018L22.0398 8.86685M25.3332 16.0002C25.3332 21.1548 21.1545 25.3335 15.9998 25.3335C10.8452 25.3335 6.6665 21.1548 6.6665 16.0002C6.6665 10.8455 10.8452 6.66685 15.9998 6.66685C21.1545 6.66685 25.3332 10.8455 25.3332 16.0002Z" stroke="currentColor" stroke-width="3" stroke-linecap="round" stroke-linejoin="round"/>
</g>
<defs>
<clipPath id="clip0_12027_3890">
<rect width="32" height="32" fill="white"/>
</clipPath>
</defs>
</svg>
