<svg width="20" height="20" viewBox="0 0 20 20" fill="none" xmlns="http://www.w3.org/2000/svg">
<g clip-path="url(#clip0_12027_3886)">
<path d="M9.99984 7.50018V10.0002L11.2498 11.2502M13.7582 14.4585L13.4665 17.6502C13.429 18.0657 13.2369 18.4521 12.9283 18.7329C12.6197 19.0137 12.2171 19.1685 11.7998 19.1668H8.1915C7.77428 19.1685 7.37159 19.0137 7.06301 18.7329C6.75442 18.4521 6.56238 18.0657 6.52484 17.6502L6.23317 14.4585M6.2415 5.54184L6.53317 2.35018C6.57059 1.93607 6.76145 1.55091 7.06827 1.2703C7.37509 0.989694 7.77571 0.833901 8.1915 0.83351H11.8165C12.2337 0.831817 12.6364 0.986675 12.945 1.26749C13.2536 1.5483 13.4456 1.93464 13.4832 2.35018L13.7748 5.54184M15.8332 10.0002C15.8332 13.2218 13.2215 15.8335 9.99984 15.8335C6.77818 15.8335 4.1665 13.2218 4.1665 10.0002C4.1665 6.77852 6.77818 4.16684 9.99984 4.16684C13.2215 4.16684 15.8332 6.77852 15.8332 10.0002Z" stroke="currentColor" stroke-width="2" stroke-linecap="round" stroke-linejoin="round"/>
</g>
<defs>
<clipPath id="clip0_12027_3886">
<rect width="20" height="20" fill="white"/>
</clipPath>
</defs>
</svg>
