<svg width="40" height="40" viewBox="0 0 40 40" fill="none" xmlns="http://www.w3.org/2000/svg">
<g clip-path="url(#clip0_12027_3892)">
<path d="M20.0002 14.9999V19.9999L22.5002 22.4999M27.5168 28.9165L26.9335 35.2999C26.8584 36.1309 26.4743 36.9036 25.8572 37.4652C25.24 38.0269 24.4346 38.3366 23.6002 38.3332H16.3835C15.549 38.3366 14.7437 38.0269 14.1265 37.4652C13.5093 36.9036 13.1253 36.1309 13.0502 35.2999L12.4668 28.9165M12.4835 11.0832L13.0668 4.69986C13.1417 3.87166 13.5234 3.10134 14.137 2.54012C14.7507 1.9789 15.5519 1.66731 16.3835 1.66653H23.6335C24.4679 1.66315 25.2733 1.97286 25.8905 2.53449C26.5077 3.09611 26.8917 3.86879 26.9668 4.69986L27.5502 11.0832M31.6668 19.9999C31.6668 26.4432 26.4435 31.6665 20.0002 31.6665C13.5568 31.6665 8.3335 26.4432 8.3335 19.9999C8.3335 13.5565 13.5568 8.3332 20.0002 8.3332C26.4435 8.3332 31.6668 13.5565 31.6668 19.9999Z" stroke="currentColor" stroke-width="3.5" stroke-linecap="round" stroke-linejoin="round"/>
</g>
<defs>
<clipPath id="clip0_12027_3892">
<rect width="40" height="40" fill="white"/>
</clipPath>
</defs>
</svg>
