<svg width="16" height="16" viewBox="0 0 16 16" fill="none" xmlns="http://www.w3.org/2000/svg">
<g clip-path="url(#clip0_12027_3884)">
<path d="M8.00016 5.99985V7.99985L9.00016 8.99985M11.0068 11.5665L10.7735 14.1199C10.7435 14.4523 10.5898 14.7614 10.343 14.986C10.0961 15.2107 9.77394 15.3345 9.44016 15.3332H6.5535C6.21972 15.3345 5.89757 15.2107 5.6507 14.986C5.40383 14.7614 5.2502 14.4523 5.22016 14.1199L4.98683 11.5665M4.9935 4.43318L5.22683 1.87985C5.25677 1.54857 5.40945 1.24044 5.65491 1.01595C5.90036 0.791462 6.22086 0.666828 6.5535 0.666515H9.4535C9.78728 0.665161 10.1094 0.789047 10.3563 1.0137C10.6032 1.23835 10.7568 1.54742 10.7868 1.87985L11.0202 4.43318M12.6668 7.99985C12.6668 10.5772 10.5775 12.6665 8.00016 12.6665C5.42283 12.6665 3.3335 10.5772 3.3335 7.99985C3.3335 5.42252 5.42283 3.33318 8.00016 3.33318C10.5775 3.33318 12.6668 5.42252 12.6668 7.99985Z" stroke="currentColor" stroke-width="1.6" stroke-linecap="round" stroke-linejoin="round"/>
</g>
<defs>
<clipPath id="clip0_12027_3884">
<rect width="16" height="16" fill="white"/>
</clipPath>
</defs>
</svg>
