<svg width="40" height="40" viewBox="0 0 40 40" fill="none" xmlns="http://www.w3.org/2000/svg">
<g clip-path="url(#clip0_12027_3905)">
<path d="M1.6665 1.6665L38.3332 38.3332M27.8665 18.4332C29.2317 19.0994 30.5082 19.9337 31.6665 20.9165M8.33317 20.9165C10.8033 18.8512 13.7763 17.4769 16.9498 16.9332M17.8498 8.4165C21.4205 8.12879 25.0126 8.56345 28.4116 9.69454C31.8106 10.8256 34.9469 12.63 37.6332 14.9998M2.3665 14.9998C4.67845 12.9563 7.32933 11.3319 10.1998 10.1998M14.2165 26.8498C15.9085 25.6478 17.9326 25.0019 20.0082 25.0019C22.0837 25.0019 24.1078 25.6478 25.7998 26.8498M19.9998 33.3332H20.0165" stroke="currentColor" stroke-width="3.5" stroke-linecap="round" stroke-linejoin="round"/>
</g>
<defs>
<clipPath id="clip0_12027_3905">
<rect width="40" height="40" fill="white"/>
</clipPath>
</defs>
</svg>
