<svg width="16" height="16" viewBox="0 0 16 16" fill="none" xmlns="http://www.w3.org/2000/svg">
<g clip-path="url(#clip0_12027_3897)">
<path d="M0.666504 0.666504L15.3332 15.3332M11.1465 7.37317C11.6926 7.63967 12.2032 7.97337 12.6665 8.3665M3.33317 8.3665C4.32123 7.54039 5.51042 6.99065 6.77984 6.77317M7.13984 3.3665C8.56811 3.25142 10.0049 3.42528 11.3645 3.87772C12.7241 4.33015 13.9786 5.05189 15.0532 5.99984M0.946504 5.99984C1.87128 5.1824 2.93164 4.53265 4.07984 4.07984M5.6865 10.7398C6.36331 10.259 7.17295 10.0007 8.00317 10.0007C8.83339 10.0007 9.64304 10.259 10.3198 10.7398M7.99984 13.3332H8.0065" stroke="currentColor" stroke-width="1.6" stroke-linecap="round" stroke-linejoin="round"/>
</g>
<defs>
<clipPath id="clip0_12027_3897">
<rect width="16" height="16" fill="white"/>
</clipPath>
</defs>
</svg>
