<svg width="20" height="20" viewBox="0 0 20 20" fill="none" xmlns="http://www.w3.org/2000/svg">
<g clip-path="url(#clip0_12027_3899)">
<path d="M0.833496 0.833496L19.1668 19.1668M13.9335 9.21683C14.6161 9.54996 15.2544 9.96708 15.8335 10.4585M4.16683 10.4585C5.4019 9.42585 6.88839 8.73867 8.47516 8.46683M8.92516 4.2085C10.7105 4.06464 12.5065 4.28197 14.206 4.84751C15.9055 5.41306 17.4737 6.31523 18.8168 7.50016M1.1835 7.50016C2.33947 6.47837 3.66491 5.66618 5.10016 5.10016M7.1085 13.4252C7.9545 12.8241 8.96656 12.5012 10.0043 12.5012C11.0421 12.5012 12.0542 12.8241 12.9002 13.4252M10.0002 16.6668H10.0085" stroke="currentColor" stroke-width="2" stroke-linecap="round" stroke-linejoin="round"/>
</g>
<defs>
<clipPath id="clip0_12027_3899">
<rect width="20" height="20" fill="white"/>
</clipPath>
</defs>
</svg>
