<svg width="32" height="32" viewBox="0 0 32 32" fill="none" xmlns="http://www.w3.org/2000/svg">
<g clip-path="url(#clip0_12027_3903)">
<path d="M1.3335 1.3335L30.6668 30.6668M22.2935 14.7468C23.3856 15.2798 24.4069 15.9472 25.3335 16.7335M6.66683 16.7335C8.64294 15.0813 11.0213 13.9818 13.5602 13.5468M14.2802 6.7335C17.1367 6.50332 20.0104 6.85105 22.7296 7.75592C25.4488 8.6608 27.9578 10.1043 30.1068 12.0002M1.8935 12.0002C3.74305 10.3653 5.86376 9.0658 8.16016 8.16016M11.3735 21.4802C12.7271 20.5185 14.3464 20.0018 16.0068 20.0018C17.6673 20.0018 19.2866 20.5185 20.6402 21.4802M16.0002 26.6668H16.0135" stroke="currentColor" stroke-width="3" stroke-linecap="round" stroke-linejoin="round"/>
</g>
<defs>
<clipPath id="clip0_12027_3903">
<rect width="32" height="32" fill="white"/>
</clipPath>
</defs>
</svg>
