<svg width="20" height="20" viewBox="0 0 20 20" fill="none" xmlns="http://www.w3.org/2000/svg">
<path d="M7.9915 3.82515C8.18509 3.63041 8.4238 3.48652 8.6864 3.40627C8.949 3.32601 9.22736 3.31189 9.49674 3.36514C9.76611 3.41839 10.0182 3.53738 10.2305 3.71152C10.4428 3.88566 10.6088 4.10956 10.7137 4.36331C10.8186 4.61706 10.8592 4.89281 10.8319 5.16603C10.8046 5.43926 10.7102 5.7015 10.557 5.92945C10.4039 6.15739 10.1969 6.34398 9.9543 6.47262C9.71171 6.60126 9.44109 6.66797 9.1665 6.66681H1.6665M10.4915 16.1751C10.6851 16.3699 10.9238 16.5138 11.1864 16.594C11.449 16.6743 11.7274 16.6884 11.9967 16.6352C12.2661 16.5819 12.5182 16.4629 12.7305 16.2888C12.9428 16.1146 13.1088 15.8907 13.2137 15.637C13.3186 15.3832 13.3592 15.1075 13.3319 14.8343C13.3046 14.561 13.2102 14.2988 13.057 14.0708C12.9039 13.8429 12.6969 13.6563 12.4543 13.5277C12.2117 13.399 11.9411 13.3323 11.6665 13.3335H1.6665M14.7748 6.44181C15.0172 6.20005 15.3154 6.02174 15.6431 5.92266C15.9708 5.82357 16.3178 5.80676 16.6536 5.87372C16.9893 5.94068 17.3034 6.08933 17.568 6.30654C17.8326 6.52375 18.0396 6.80281 18.1707 7.11906C18.3017 7.4353 18.3529 7.77898 18.3195 8.11969C18.2862 8.4604 18.1694 8.78764 17.9795 9.07248C17.7896 9.35732 17.5325 9.59097 17.2308 9.75277C16.9291 9.91457 16.5922 9.99954 16.2498 10.0001H1.6665" stroke="currentColor" stroke-width="2" stroke-linecap="round" stroke-linejoin="round"/>
</svg>
