<svg width="40" height="40" viewBox="0 0 40 40" fill="none" xmlns="http://www.w3.org/2000/svg">
<path d="M15.9835 7.64981C16.3707 7.26033 16.8481 6.97255 17.3733 6.81204C17.8985 6.65154 18.4552 6.62328 18.994 6.72979C19.5327 6.8363 20.0368 7.07427 20.4614 7.42255C20.886 7.77083 21.218 8.21862 21.4279 8.72613C21.6377 9.23363 21.7189 9.78513 21.6643 10.3316C21.6096 10.878 21.4208 11.4025 21.1146 11.8584C20.8084 12.3143 20.3943 12.6875 19.9091 12.9447C19.4239 13.202 18.8827 13.3354 18.3335 13.3331H3.3335M20.9835 32.3498C21.3707 32.7393 21.8481 33.0271 22.3733 33.1876C22.8985 33.3481 23.4552 33.3763 23.994 33.2698C24.5327 33.1633 25.0368 32.9253 25.4614 32.5771C25.886 32.2288 26.218 31.781 26.4279 31.2735C26.6377 30.766 26.7189 30.2145 26.6643 29.668C26.6096 29.1216 26.4208 28.5971 26.1146 28.1412C25.8084 27.6853 25.3943 27.3121 24.9091 27.0549C24.4239 26.7976 23.8827 26.6642 23.3335 26.6665H3.3335M29.5502 12.8831C30.0349 12.3996 30.6313 12.043 31.2867 11.8448C31.9421 11.6467 32.6362 11.613 33.3076 11.747C33.9791 11.8809 34.6072 12.1782 35.1364 12.6126C35.6656 13.047 36.0796 13.6051 36.3418 14.2376C36.604 14.8701 36.7062 15.5575 36.6396 16.2389C36.5729 16.9203 36.3393 17.5748 35.9595 18.1445C35.5797 18.7141 35.0654 19.1815 34.462 19.5051C33.8587 19.8287 33.1848 19.9986 32.5002 19.9998H3.3335" stroke="currentColor" stroke-width="3.5" stroke-linecap="round" stroke-linejoin="round"/>
</svg>
