<svg width="32" height="32" viewBox="0 0 32 32" fill="none" xmlns="http://www.w3.org/2000/svg">
<path d="M12.7865 6.12014C13.0962 5.80856 13.4782 5.57833 13.8983 5.44993C14.3185 5.32152 14.7639 5.29892 15.1949 5.38413C15.6259 5.46933 16.0292 5.65971 16.3688 5.93833C16.7085 6.21696 16.9741 6.57519 17.142 6.9812C17.3099 7.3872 17.3749 7.82839 17.3311 8.26556C17.2874 8.70272 17.1363 9.12231 16.8914 9.48702C16.6464 9.85173 16.3151 10.1503 15.927 10.3561C15.5388 10.5619 15.1058 10.6687 14.6665 10.6668H2.6665M16.7865 25.8801C17.0962 26.1917 17.4782 26.4219 17.8983 26.5504C18.3185 26.6788 18.7639 26.7014 19.1949 26.6162C19.6259 26.5309 20.0292 26.3406 20.3688 26.0619C20.7085 25.7833 20.9741 25.4251 21.142 25.0191C21.3099 24.6131 21.3749 24.1719 21.3311 23.7347C21.2874 23.2976 21.1363 22.878 20.8914 22.5133C20.6464 22.1485 20.3151 21.85 19.927 21.6442C19.5388 21.4384 19.1058 21.3316 18.6665 21.3335H2.6665M23.6398 10.3068C24.0276 9.91999 24.5048 9.63469 25.0291 9.47616C25.5534 9.31762 26.1087 9.29073 26.6458 9.39785C27.183 9.50498 27.6855 9.74283 28.1088 10.0904C28.5322 10.4379 28.8634 10.8844 29.0731 11.3904C29.2829 11.8964 29.3647 12.4463 29.3114 12.9914C29.258 13.5365 29.0712 14.0601 28.7673 14.5159C28.4635 14.9716 28.052 15.3455 27.5693 15.6043C27.0866 15.8632 26.5476 15.9992 25.9998 16.0001H2.6665" stroke="currentColor" stroke-width="3" stroke-linecap="round" stroke-linejoin="round"/>
</svg>
