<svg width="48" height="21" viewBox="0 0 48 21" fill="none" xmlns="http://www.w3.org/2000/svg">
<path d="M15.5388 9.10724C15.5388 8.56639 15.4946 8.02756 15.4021 7.49475H7.92676V10.5468H12.2073C12.0304 11.532 11.4594 12.4026 10.625 12.9555V14.9379H13.1804C14.6763 13.5607 15.5388 11.5199 15.5388 9.10724Z" fill="#4285F4"/>
<path d="M7.92795 16.8538C10.0672 16.8538 11.8687 16.1521 13.1816 14.9398L10.6261 12.9573C9.9144 13.4399 8.99959 13.7153 7.92795 13.7153C5.86107 13.7153 4.10583 12.322 3.47853 10.4441H0.84668V12.4868C2.19176 15.1649 4.93218 16.8538 7.92795 16.8538Z" fill="#34A853"/>
<path d="M3.4763 10.4442C3.14455 9.46098 3.14455 8.39336 3.4763 7.41018V5.36743H0.844445C-0.281482 7.60722 -0.281482 10.2471 0.844445 12.4869L3.4763 10.4442Z" fill="#FBBC04"/>
<path d="M22.703 10.3134V15.8988H20.9297V2.10216H25.6304C26.7644 2.07803 27.8602 2.5083 28.6745 3.29644C29.4988 4.03835 29.9632 5.09994 29.9451 6.20777C29.9693 7.32364 29.5048 8.39327 28.6745 9.13719C27.8521 9.92131 26.8368 10.3134 25.6304 10.3114L22.703 10.3134ZM22.703 3.8011V8.61846H25.6747C26.3341 8.63856 26.9695 8.3792 27.4279 7.9047C28.3588 6.99994 28.3809 5.5101 27.4741 4.5792C27.458 4.56311 27.444 4.54703 27.4279 4.53295C26.9755 4.0484 26.3361 3.78301 25.6747 3.8011H22.703ZM34.0306 6.15147C35.3415 6.15147 36.375 6.50131 37.133 7.201C37.891 7.90068 38.269 8.86174 38.269 10.0802V15.8988H36.574V14.5879H36.4976C35.7638 15.6676 34.7866 16.2064 33.5682 16.2064C32.5287 16.2064 31.6582 15.8988 30.9585 15.2815C30.2789 14.7085 29.8929 13.86 29.9089 12.9694C29.9089 11.9922 30.2789 11.2161 31.0168 10.6391C31.7547 10.0621 32.7398 9.77253 33.9743 9.77253C35.0259 9.77253 35.8945 9.96555 36.574 10.3496V9.94343C36.5781 9.33623 36.3086 8.76121 35.8422 8.37518C35.3737 7.95295 34.7625 7.72174 34.1312 7.72978C33.142 7.72978 32.3578 8.14798 31.7808 8.98237L30.2206 7.9992C31.0771 6.76671 32.3478 6.15147 34.0306 6.15147ZM31.7366 13.0096C31.7346 13.468 31.9537 13.8982 32.3237 14.1657C32.7157 14.4733 33.2023 14.6381 33.7009 14.6281C34.4488 14.6261 35.1666 14.3285 35.6954 13.7997C36.2825 13.2468 36.576 12.5994 36.576 11.8535C36.0231 11.4132 35.2531 11.192 34.2639 11.192C33.5441 11.192 32.9429 11.3649 32.4624 11.7127C31.9778 12.0666 31.7366 12.4949 31.7366 13.0096ZM48.0002 6.45909L42.083 20.0607H40.2534L42.449 15.3016L38.5565 6.45909H40.4826L43.2954 13.2408H43.3336L46.07 6.45909H48.0002Z" fill="#5F6368"/>
<path d="M7.92795 4.139C9.05789 4.12091 10.1496 4.54715 10.9679 5.32726L13.2319 3.06535C11.7963 1.71826 9.89631 0.978365 7.92795 1.00048C4.93218 1.00048 2.19176 2.69138 0.84668 5.36747L3.47853 7.41022C4.10583 5.53233 5.86107 4.139 7.92795 4.139Z" fill="#EA4335"/>
</svg>
