<svg width="48" height="20" viewBox="0 0 48 20" fill="none" xmlns="http://www.w3.org/2000/svg">
<rect x="0.5" y="1.5" width="47" height="17" rx="2.6" stroke="currentColor" stroke-opacity="0.55"/>
<path d="M38.7685 6.86662L36.4044 15.5029V15.5302H38.2558L40.6199 6.89387H38.7685V6.86662ZM9.54449 11.7705C9.25965 11.9067 8.97482 11.9612 8.6615 11.9612C8.00638 11.9612 7.63609 11.8523 7.57913 11.3346V11.3074C7.57913 11.2801 7.57913 11.2801 7.57913 11.2529V9.75447V9.59101V8.5285V8.0926V7.92914V6.92111L5.92709 7.11182C7.03794 6.89387 7.66458 6.07655 7.66458 5.23199V4.71436H5.81315V7.13906L5.69922 7.16631V11.6343C5.75619 12.8875 6.63917 13.6504 8.03486 13.6504C8.54756 13.6504 9.08875 13.5414 9.516 13.3507L9.54449 11.7705Z" fill="currentColor"/>
<path d="M9.8295 6.53962L4.64551 7.30245V8.55567L9.8295 7.79284V6.53962ZM9.8295 8.3922L4.64551 9.15503V10.3538L9.8295 9.59093V8.3922ZM15.6401 8.96433C15.5547 7.57489 14.6432 6.73033 13.1621 6.73033C12.3076 6.73033 11.5955 7.05725 11.1113 7.65662C10.627 8.25598 10.3707 9.12779 10.3707 10.1903C10.3707 11.2528 10.627 12.1246 11.1113 12.724C11.5955 13.3233 12.3076 13.623 13.1621 13.623C14.6432 13.623 15.5547 12.8057 15.6401 11.389V13.4868H17.4915V6.89379L15.6401 7.16623V8.96433ZM15.7541 10.1903C15.7541 11.4163 15.0705 12.2336 14.0166 12.2336C12.9342 12.2336 12.2791 11.4708 12.2791 10.1903C12.2791 8.90984 12.9342 8.14701 14.0166 8.14701C14.5293 8.14701 14.985 8.33772 15.2983 8.71913C15.5832 9.0733 15.7541 9.59094 15.7541 10.1903ZM22.8749 6.73033C21.3938 6.73033 20.4823 7.54764 20.3969 8.96433V4.95947L18.5454 5.23191V13.4868H20.3969V11.389C20.4823 12.8057 21.3938 13.623 22.8749 13.623C24.6124 13.623 25.6663 12.3426 25.6663 10.1903C25.6663 8.03803 24.6124 6.73033 22.8749 6.73033ZM22.0489 12.2336C20.995 12.2336 20.3114 11.4435 20.3114 10.1903C20.3114 9.59094 20.4823 9.0733 20.7671 8.71913C21.0805 8.33772 21.5077 8.14701 22.0489 8.14701C23.1313 8.14701 23.7864 8.90984 23.7864 10.1903C23.7864 11.4708 23.1313 12.2336 22.0489 12.2336ZM30.6794 6.73033C29.1983 6.73033 28.2868 7.54764 28.2013 8.96433V4.95947L26.3499 5.23191V13.4868H28.2013V11.389C28.2868 12.8057 29.1983 13.623 30.6794 13.623C32.4169 13.623 33.4708 12.3426 33.4708 10.1903C33.4708 8.03803 32.4169 6.73033 30.6794 6.73033ZM29.8534 12.2336C28.7995 12.2336 28.1159 11.4435 28.1159 10.1903C28.1159 9.59094 28.2868 9.0733 28.5716 8.71913C28.8849 8.33772 29.3122 8.14701 29.8534 8.14701C30.9357 8.14701 31.5909 8.90984 31.5909 10.1903C31.5909 11.4708 30.9357 12.2336 29.8534 12.2336ZM33.4708 6.86655H35.4361L37.0312 13.4868H35.2652L33.4708 6.86655ZM42.1297 7.54764V7.03001H41.9019V6.92103H42.5V7.03001H42.2722V7.54764H42.1297ZM42.5285 7.54764V6.89379H42.7564L42.8703 7.19347C42.8988 7.2752 42.9273 7.30245 42.9273 7.32969C42.9273 7.30245 42.9558 7.2752 42.9842 7.19347L43.0982 6.89379H43.326V7.54764H43.1836V7.03001L42.9842 7.54764H42.8418L42.6709 7.03001V7.54764H42.5285Z" fill="currentColor"/>
</svg>
